<svg xmlns="http://www.w3.org/2000/svg" xmlns:xlink="http://www.w3.org/1999/xlink" width="2200" zoomAndPan="magnify" viewBox="0 0 1650 1649.999929" height="2200" preserveAspectRatio="xMidYMid meet" version="1.0"><defs><clipPath id="2f7a93a421"><path d="M 1113.414062 750.214844 L 1441 750.214844 L 1441 1060.8125 L 1113.414062 1060.8125 Z M 1113.414062 750.214844 " clip-rule="nonzero"/></clipPath><clipPath id="b738abe0d0"><path d="M 1467 887 L 1650 887 L 1650 1060.8125 L 1467 1060.8125 Z M 1467 887 " clip-rule="nonzero"/></clipPath><clipPath id="06aafd5b2e"><path d="M 0 887 L 183 887 L 183 1060.8125 L 0 1060.8125 Z M 0 887 " clip-rule="nonzero"/></clipPath><clipPath id="ad18da6574"><path d="M 209 750.214844 L 536.585938 750.214844 L 536.585938 1060.8125 L 209 1060.8125 Z M 209 750.214844 " clip-rule="nonzero"/></clipPath><clipPath id="54b0bf08e5"><path d="M 576 589.238281 L 1073 589.238281 L 1073 1060.8125 L 576 1060.8125 Z M 576 589.238281 " clip-rule="nonzero"/></clipPath></defs><g clip-path="url(#2f7a93a421)"><path fill="#fbb93e" d="M 1276.921875 750.597656 L 1327.316406 852.71875 L 1440.003906 869.09375 L 1358.457031 948.578125 L 1377.707031 1060.8125 L 1276.921875 1007.816406 L 1176.128906 1060.8125 L 1195.378906 948.578125 L 1113.832031 869.09375 L 1226.523438 852.71875 L 1276.921875 750.597656 " fill-opacity="1" fill-rule="nonzero"/></g><path fill="#fad550" d="M 1113.832031 869.09375 L 1195.378906 948.578125 L 1187.054688 997.066406 C 1259.246094 974.828125 1312.484375 909.355469 1316.539062 830.875 L 1276.921875 750.597656 L 1226.523438 852.71875 L 1113.832031 869.09375 " fill-opacity="1" fill-rule="nonzero"/><g clip-path="url(#b738abe0d0)"><path fill="#fbb93e" d="M 1558.988281 887.695312 L 1587.109375 944.683594 L 1650 953.816406 L 1604.488281 998.175781 L 1615.230469 1060.8125 L 1558.988281 1031.238281 L 1502.734375 1060.8125 L 1513.476562 998.175781 L 1467.976562 953.816406 L 1530.867188 944.683594 L 1558.988281 887.695312 " fill-opacity="1" fill-rule="nonzero"/></g><path fill="#fad550" d="M 1467.976562 953.816406 L 1513.476562 998.175781 L 1508.839844 1025.230469 C 1549.128906 1012.820312 1578.839844 976.289062 1581.101562 932.488281 L 1558.988281 887.695312 L 1530.867188 944.683594 L 1467.976562 953.816406 " fill-opacity="1" fill-rule="nonzero"/><g clip-path="url(#06aafd5b2e)"><path fill="#fbb93e" d="M 91.011719 887.695312 L 119.132812 944.683594 L 182.023438 953.816406 L 136.523438 998.175781 L 147.265625 1060.8125 L 91.011719 1031.238281 L 34.757812 1060.8125 L 45.5 998.175781 L 0 953.816406 L 62.890625 944.683594 L 91.011719 887.695312 " fill-opacity="1" fill-rule="nonzero"/></g><path fill="#fad550" d="M 0 953.816406 L 45.5 998.175781 L 40.863281 1025.230469 C 81.152344 1012.820312 110.863281 976.289062 113.125 932.488281 L 91.011719 887.695312 L 62.890625 944.683594 L 0 953.816406 " fill-opacity="1" fill-rule="nonzero"/><g clip-path="url(#ad18da6574)"><path fill="#fbb93e" d="M 373.078125 750.597656 L 423.476562 852.71875 L 536.167969 869.09375 L 454.621094 948.578125 L 473.871094 1060.8125 L 373.078125 1007.816406 L 272.292969 1060.8125 L 291.542969 948.578125 L 209.996094 869.09375 L 322.683594 852.71875 L 373.078125 750.597656 " fill-opacity="1" fill-rule="nonzero"/></g><path fill="#fad550" d="M 209.996094 869.09375 L 291.542969 948.578125 L 283.226562 997.066406 C 355.410156 974.828125 408.648438 909.355469 412.699219 830.875 L 373.078125 750.597656 L 322.683594 852.71875 L 209.996094 869.09375 " fill-opacity="1" fill-rule="nonzero"/><g clip-path="url(#54b0bf08e5)"><path fill="#fbb93e" d="M 824.398438 589.246094 L 901 744.476562 L 1072.304688 769.367188 L 948.351562 890.195312 L 977.617188 1060.8125 L 824.398438 980.253906 L 671.167969 1060.8125 L 700.433594 890.195312 L 576.480469 769.367188 L 747.789062 744.476562 L 824.398438 589.246094 " fill-opacity="1" fill-rule="nonzero"/></g><path fill="#fad550" d="M 576.480469 769.367188 L 700.433594 890.195312 L 687.796875 963.902344 C 797.53125 930.097656 878.457031 830.578125 884.625 711.28125 L 824.398438 589.246094 L 747.789062 744.476562 L 576.480469 769.367188 " fill-opacity="1" fill-rule="nonzero"/></svg>