<svg xmlns="http://www.w3.org/2000/svg" xmlns:xlink="http://www.w3.org/1999/xlink" width="2200" zoomAndPan="magnify" viewBox="0 0 1650 1649.999929" height="2200" preserveAspectRatio="xMidYMid meet" version="1.0"><defs><filter x="0%" y="0%" width="100%" height="100%" id="75a9305339"><feColorMatrix values="0 0 0 0 1 0 0 0 0 1 0 0 0 0 1 0 0 0 1 0" color-interpolation-filters="sRGB"/></filter><clipPath id="a04f51d9a4"><path d="M 825 0 C 369.363281 0 0 369.363281 0 825 C 0 1280.632812 369.363281 1650 825 1650 C 1280.636719 1650 1650 1280.632812 1650 825 C 1650 369.363281 1280.636719 0 825 0 Z M 825 0 " clip-rule="nonzero"/></clipPath><mask id="c7a75f6181"><g filter="url(#75a9305339)"><rect x="-165" width="1980" fill="#000000" y="-164.999993" height="1979.999915" fill-opacity="0.3"/></g></mask><clipPath id="8a203e2092"><path d="M 16.957031 67 L 701 67 L 701 1078 L 16.957031 1078 Z M 16.957031 67 " clip-rule="nonzero"/></clipPath><clipPath id="119567ba74"><rect x="0" width="777" y="0" height="1145"/></clipPath></defs><g clip-path="url(#a04f51d9a4)"><rect x="-165" width="1980" fill="#6b45ca" y="-164.999993" height="1979.999915" fill-opacity="1"/></g><g mask="url(#c7a75f6181)"><g transform="matrix(1, 0, 0, 1, 428, 256)"><g clip-path="url(#119567ba74)"><g clip-path="url(#8a203e2092)"><path fill="#000000" d="M 0.371094 581.019531 L 488.644531 94.78125 C 582.957031 0.859375 776.640625 174.589844 663.03125 283.878906 L 354.121094 581.019531 L 672.992188 873.253906 C 770.09375 962.242188 590.230469 1144.863281 493.628906 1052.523438 Z M 0.371094 581.019531 " fill-opacity="1" fill-rule="nonzero"/></g></g></g></g></svg>