<svg xmlns="http://www.w3.org/2000/svg" xmlns:xlink="http://www.w3.org/1999/xlink" width="2200" zoomAndPan="magnify" viewBox="0 0 1650 1649.999929" height="2200" preserveAspectRatio="xMidYMid meet" version="1.0"><defs><filter x="0%" y="0%" width="100%" height="100%" id="f05c7f1db8"><feColorMatrix values="0 0 0 0 1 0 0 0 0 1 0 0 0 0 1 0 0 0 1 0" color-interpolation-filters="sRGB"/></filter><clipPath id="4ee463e17d"><path d="M 825 0 C 369.363281 0 0 369.363281 0 825 C 0 1280.632812 369.363281 1650 825 1650 C 1280.636719 1650 1650 1280.632812 1650 825 C 1650 369.363281 1280.636719 0 825 0 Z M 825 0 " clip-rule="nonzero"/></clipPath><mask id="01e3c110bd"><g filter="url(#f05c7f1db8)"><rect x="-165" width="1980" fill="#000000" y="-164.999993" height="1979.999915" fill-opacity="0.31"/></g></mask><clipPath id="bc66fe8881"><path d="M 1.285156 67 L 687 67 L 687 1071 L 1.285156 1071 Z M 1.285156 67 " clip-rule="nonzero"/></clipPath><clipPath id="a821e3ae4d"><rect x="0" width="762" y="0" height="1138"/></clipPath></defs><g clip-path="url(#4ee463e17d)"><rect x="-165" width="1980" fill="#fbb93e" y="-164.999993" height="1979.999915" fill-opacity="1"/></g><g mask="url(#01e3c110bd)"><g transform="matrix(1, 0, 0, 1, 444, 256)"><g clip-path="url(#a821e3ae4d)"><g clip-path="url(#bc66fe8881)"><path fill="#000000" d="M 1.296875 577.078125 L 479.160156 94.167969 C 571.460938 0.890625 761.019531 173.429688 649.832031 281.972656 L 347.503906 577.078125 L 659.582031 867.3125 C 754.609375 955.691406 578.582031 1137.066406 484.039062 1045.355469 Z M 1.296875 577.078125 " fill-opacity="1" fill-rule="nonzero"/></g></g></g></g></svg>