<svg xmlns="http://www.w3.org/2000/svg" xmlns:xlink="http://www.w3.org/1999/xlink" width="2200" zoomAndPan="magnify" viewBox="0 0 1650 1649.999929" height="2200" preserveAspectRatio="xMidYMid meet" version="1.0"><defs><clipPath id="179f6db787"><path d="M 0 309.347656 L 1045 309.347656 L 1045 1340.597656 L 0 1340.597656 Z M 0 309.347656 " clip-rule="nonzero"/></clipPath><clipPath id="cbf16a3a98"><path d="M 1474.875 52.847656 L 1650 52.847656 L 1650 1597.152344 L 1474.875 1597.152344 Z M 1474.875 52.847656 " clip-rule="nonzero"/></clipPath></defs><g clip-path="url(#179f6db787)"><path fill="#fbb93e" d="M 410.171875 309.347656 C 184.035156 309.347656 0.15625 493.226562 0.15625 719.363281 C 0.15625 946.277344 184.035156 1129.378906 410.171875 1129.378906 C 492.332031 1129.378906 569.796875 1105.121094 633.957031 1062.867188 L 884.347656 1313.257812 C 902.34375 1331.253906 926.601562 1340.644531 950.859375 1340.644531 C 975.113281 1340.644531 999.371094 1331.253906 1017.367188 1313.257812 C 1054.144531 1276.480469 1054.144531 1216.230469 1017.367188 1179.457031 L 764.628906 926.71875 C 800.625 865.683594 820.96875 795.261719 820.96875 719.363281 C 820.96875 493.226562 637.085938 309.347656 410.171875 309.347656 Z M 410.171875 973.664062 C 270.890625 973.664062 156.648438 859.425781 156.648438 719.363281 C 156.648438 580.082031 270.890625 465.839844 410.171875 465.839844 C 550.234375 465.839844 663.691406 580.082031 663.691406 719.363281 C 664.472656 859.425781 550.234375 973.664062 410.171875 973.664062 Z M 410.171875 973.664062 " fill-opacity="1" fill-rule="nonzero"/></g><g clip-path="url(#cbf16a3a98)"><path fill="#fbb93e" d="M 1474.875 52.847656 L 1650 52.847656 L 1650 1597.488281 L 1474.875 1597.488281 Z M 1474.875 52.847656 " fill-opacity="1" fill-rule="nonzero"/></g></svg>