<?xml version="1.0" encoding="UTF-8" standalone="no"?>
<svg
   width="2200"
   zoomAndPan="magnify"
   viewBox="0 0 1650 1649.999929"
   height="2200"
   preserveAspectRatio="xMidYMid meet"
   version="1.0"
   id="svg2"
   sodipodi:docname="Anuncie.svg"
   inkscape:version="1.3.2 (091e20e, 2023-11-25, custom)"
   xmlns:inkscape="http://www.inkscape.org/namespaces/inkscape"
   xmlns:sodipodi="http://sodipodi.sourceforge.net/DTD/sodipodi-0.dtd"
   xmlns="http://www.w3.org/2000/svg"
   xmlns:svg="http://www.w3.org/2000/svg">
  <sodipodi:namedview
     id="namedview2"
     pagecolor="#ffffff"
     bordercolor="#000000"
     borderopacity="0.25"
     inkscape:showpageshadow="2"
     inkscape:pageopacity="0.0"
     inkscape:pagecheckerboard="0"
     inkscape:deskcolor="#d1d1d1"
     inkscape:zoom="0.13451099"
     inkscape:cx="-985.04959"
     inkscape:cy="1683.8772"
     inkscape:window-width="1920"
     inkscape:window-height="1051"
     inkscape:window-x="-9"
     inkscape:window-y="-9"
     inkscape:window-maximized="1"
     inkscape:current-layer="svg2" />
  <defs
     id="defs1">
    <clipPath
       id="95fb650473">
      <path
         d="M 781 780 L 869.964844 780 L 869.964844 869.964844 L 781 869.964844 Z M 781 780 "
         clip-rule="nonzero"
         id="path1" />
    </clipPath>
  </defs>
  <g
     clip-path="url(#95fb650473)"
     id="g2"
     transform="matrix(17.359988,0,0,17.359988,-13503.896,-13495.658)">
    <path
       fill="#fad550"
       d="m 849.93359,843.33984 c 0.44922,1.14063 0.34766,1.46875 0.3086,1.57813 -0.11328,0.26172 -0.29297,0.45703 -0.54297,0.58594 -0.70313,-0.16407 -1.63281,-0.10157 -2.07422,-0.53125 -1.67188,-1.58985 -3.54297,-2.88672 -5.62109,-3.88672 -2.07422,-1.00391 -4.25391,-1.66016 -6.53907,-1.97657 -7.88281,-1.3164 -15.48047,0.0117 -22.91797,2.60547 -1.66015,0.58203 -3.28125,1.27344 -5.09375,1.98438 l -8.71484,-18.52735 c 4.26563,-2.96875 8.57422,-5.59765 12.44531,-8.75781 5.58594,-4.5625 9.94532,-10.13281 11.55078,-17.39062 0.33985,-1.79688 0.47657,-3.60938 0.41797,-5.4375 0,-1 -0.33984,-2.0625 0.87891,-2.45313 1.38281,-0.4414 1.70312,0.75781 2.13672,1.67188 4.47265,9.51172 8.94531,19.01953 13.42187,28.52734 3.33203,7.07813 6.66407,14.15625 10,21.23438 0.12891,0.26562 0.20703,0.42968 0.34375,0.77343 z m -41.0039,3.91016 c 0.70312,1.37109 1.79297,3.31641 2.28125,4.26562 6.26172,-1.92968 6.13672,-3.42968 4.19922,-7.14062 z m -3.1211,1.07422 -6.16015,2.91406 c 3.58203,5.5625 7.09375,10.96875 10.5625,16.39844 0.77734,1.21875 1.73437,1.85547 3.13672,1.23047 1.21093,-0.53516 1.40625,-1.76563 0.6289,-3.42188 -2.49219,-5.30859 -4.99219,-10.61719 -7.49609,-15.92578 -0.1836,-0.39062 -0.42578,-0.75781 -0.67188,-1.1875 z M 845.5,781.60156 c -0.19141,-0.32422 -0.44531,-0.58594 -0.76953,-0.78125 -0.32031,-0.19531 -0.67188,-0.30078 -1.04688,-0.3164 -0.36718,-0.004 -0.71093,0.0781 -1.03125,0.25 -0.32422,0.17187 -0.58203,0.41015 -0.78515,0.71484 -1.14453,1.63672 -2.27735,3.29297 -3.39063,4.96875 -0.21094,0.29297 -0.33203,0.62109 -0.36328,0.98047 -0.0352,0.35937 0.0273,0.70312 0.18359,1.02734 0.11329,0.23438 0.26172,0.4375 0.45313,0.61328 0.19141,0.17188 0.41016,0.30469 0.65234,0.39453 0.2461,0.0898 0.4961,0.12891 0.75391,0.1211 0.26172,-0.0117 0.50781,-0.0664 0.74219,-0.17188 0.32812,-0.17187 0.60156,-0.40625 0.8125,-0.70703 1.13672,-1.625 2.34375,-3.36719 3.47656,-5.11328 0.20312,-0.35937 0.3125,-0.74609 0.33594,-1.15625 0.0117,-0.13281 0.0351,-0.26172 0.0586,-0.39453 l 0.0469,-0.23828 z m 17.6875,23.78125 c -0.0391,-0.375 -0.16797,-0.71875 -0.38672,-1.02734 -0.21484,-0.3086 -0.49219,-0.54688 -0.83203,-0.71485 -0.32813,-0.15625 -0.67188,-0.22265 -1.03125,-0.19921 -0.35938,0.0234 -0.69531,0.13281 -1,0.32812 -1.73047,1.01563 -3.44922,2.06641 -5.16016,3.12891 -0.30859,0.18359 -0.55078,0.43359 -0.72656,0.74609 -0.17969,0.3125 -0.26562,0.65234 -0.26172,1.01172 0.0117,0.33984 0.10547,0.66016 0.27344,0.95703 0.17578,0.30859 0.41797,0.55078 0.72656,0.72656 0.3086,0.17578 0.63672,0.25782 0.99219,0.25 0.37109,-0.004 0.70703,-0.10937 1.01562,-0.30859 1.72266,-1.00391 3.53516,-2.08984 5.29297,-3.21484 0.32813,-0.2461 0.58594,-0.55469 0.77735,-0.91797 0.0703,-0.1211 0.14062,-0.22657 0.20312,-0.33594 l 0.15235,-0.19141 z m 6.64062,31.78516 c -0.11718,-0.34375 -0.30859,-0.63672 -0.57812,-0.87891 -0.26563,-0.24609 -0.57422,-0.41015 -0.92578,-0.49609 -1.92188,-0.55078 -3.88281,-1.05078 -5.82813,-1.55469 -0.34765,-0.0937 -0.69922,-0.0977 -1.04687,-0.008 -0.34766,0.0898 -0.65235,0.26172 -0.91406,0.51172 -0.23047,0.24609 -0.39844,0.53515 -0.5,0.85937 -0.10157,0.33985 -0.10938,0.6836 -0.0195,1.02735 0.0859,0.34765 0.25782,0.64453 0.50782,0.89453 0.26172,0.25781 0.5664,0.42968 0.92187,0.51562 1.91016,0.53516 3.96485,1.09766 5.98438,1.58594 0.40625,0.0625 0.80859,0.0391 1.20312,-0.0703 0.13281,-0.0352 0.26563,-0.0586 0.38281,-0.082 l 0.25,-0.0234 0.14454,-0.20313 c 0.24609,-0.28906 0.40234,-0.61718 0.47656,-0.98828 0.0742,-0.36719 0.0547,-0.73047 -0.0586,-1.08984 z m -74.3789,-11.06641 c -3.29688,1.60938 -6.53516,2.9336 -9.50391,4.70313 -0.51562,0.32422 -1,0.6914 -1.44922,1.10156 -0.45312,0.41016 -0.86328,0.85547 -1.23437,1.33984 -0.3711,0.48438 -0.69531,0.9961 -0.97656,1.53516 -0.28125,0.54297 -0.50782,1.10547 -0.69141,1.6875 -0.17969,0.58203 -0.30469,1.17578 -0.37891,1.78125 -0.0742,0.60156 -0.0976,1.21094 -0.0625,1.82031 0.0352,0.60547 0.1211,1.20703 0.26172,1.80078 0.14063,0.59375 0.33203,1.16797 0.57422,1.72657 0.21875,0.57031 0.48438,1.11718 0.80469,1.63671 0.3164,0.52344 0.67578,1.01172 1.08203,1.46485 0.40625,0.45703 0.85156,0.87109 1.33594,1.24609 0.48047,0.3711 0.99218,0.69922 1.53515,0.98047 0.53907,0.28125 1.10157,0.51172 1.6875,0.6875 0.58203,0.17969 1.17578,0.30469 1.78125,0.375 0.60938,0.0703 1.21485,0.082 1.82422,0.043 0.60938,-0.0391 1.20703,-0.13672 1.80078,-0.28516 3.64063,-1.26562 7.19532,-2.73437 10.66797,-4.41015 z m 49.63281,-11.35937 c -1.08594,-2.14844 -2.98437,-2.84375 -6.07812,-2 l 3.86328,8.1875 c 2.74609,-1.98438 3.36328,-3.91797 2.21484,-6.1875 z m 0,0"
       fill-opacity="1"
       fill-rule="nonzero"
       id="path2" />
  </g>
</svg>
