<svg xmlns="http://www.w3.org/2000/svg" xmlns:xlink="http://www.w3.org/1999/xlink" width="2200"
    zoomAndPan="magnify" viewBox="0 0 1650 1649.999929" height="2200"
    preserveAspectRatio="xMidYMid meet" version="1.0">
    <defs>
        <filter x="0%" y="0%" width="100%" height="100%" id="b9d7290ca1">
            <feColorMatrix values="0 0 0 0 1 0 0 0 0 1 0 0 0 0 1 0 0 0 1 0"
                color-interpolation-filters="sRGB" />
        </filter>
        <clipPath id="11fe42f0e6">
            <path
                d="M 825 0 C 369.363281 0 0 369.363281 0 825 C 0 1280.632812 369.363281 1650 825 1650 C 1280.636719 1650 1650 1280.632812 1650 825 C 1650 369.363281 1280.636719 0 825 0 Z M 825 0 "
                clip-rule="nonzero" />
        </clipPath>
        <mask id="462928c0d1">
            <g filter="url(#b9d7290ca1)">
                <rect x="-165" width="1980" fill="#000000" y="-164.999993" height="1979.999915"
                    fill-opacity="0.31" />
            </g>
        </mask>
        <clipPath id="5cecf01759">
            <path d="M 75 67 L 760.707031 67 L 760.707031 1071 L 75 1071 Z M 75 67 "
                clip-rule="nonzero" />
        </clipPath>
        <clipPath id="688a1e70b5">
            <rect x="0" width="762" y="0" height="1138" />
        </clipPath>
    </defs>
    <g clip-path="url(#11fe42f0e6)">
        <rect x="-165" width="1980" fill="inherit" y="-164.999993" height="1979.999915"
            fill-opacity="1" />
    </g>
    <g mask="url(#462928c0d1)">
        <g transform="matrix(1, 0, 0, 1, 444, 256)">
            <g clip-path="url(#688a1e70b5)">
                <g clip-path="url(#5cecf01759)">
                    <path fill="#000000"
                        d="M 760.695312 577.078125 L 282.828125 94.167969 C 190.527344 0.890625 0.972656 173.429688 112.160156 281.972656 L 414.484375 577.078125 L 102.410156 867.3125 C 7.382812 955.691406 183.410156 1137.066406 277.953125 1045.355469 Z M 760.695312 577.078125 "
                        fill-opacity="1" fill-rule="nonzero" />
                </g>
            </g>
        </g>
    </g>
</svg>