<svg xmlns="http://www.w3.org/2000/svg" xmlns:xlink="http://www.w3.org/1999/xlink" width="2200"
    zoomAndPan="magnify" viewBox="0 0 1650 1649.999929" height="2200"
    preserveAspectRatio="xMidYMid meet" version="1.0">
    <defs>
        <clipPath id="641d436a53">
            <path d="M 1083 618 L 1601.320312 618 L 1601.320312 1032 L 1083 1032 Z M 1083 618 "
                clip-rule="nonzero" />
        </clipPath>
        <clipPath id="1181b91e1f">
            <path d="M 48.820312 773 L 981 773 L 981 877 L 48.820312 877 Z M 48.820312 773 "
                clip-rule="nonzero" />
        </clipPath>
        <clipPath id="3575e67f8f">
            <path d="M 1083 204 L 1601.320312 204 L 1601.320312 308 L 1083 308 Z M 1083 204 "
                clip-rule="nonzero" />
        </clipPath>
        <clipPath id="7a130bfc2a">
            <path
                d="M 48.820312 48.820312 L 981 48.820312 L 981 463 L 48.820312 463 Z M 48.820312 48.820312 "
                clip-rule="nonzero" />
        </clipPath>
        <clipPath id="f82d5a4d16">
            <path d="M 773 1342 L 1601.320312 1342 L 1601.320312 1446 L 773 1446 Z M 773 1342 "
                clip-rule="nonzero" />
        </clipPath>
        <clipPath id="0796a9b5e5">
            <path
                d="M 48.820312 1187 L 670 1187 L 670 1601.320312 L 48.820312 1601.320312 Z M 48.820312 1187 "
                clip-rule="nonzero" />
        </clipPath>
    </defs>
    <g clip-path="url(#641d436a53)">
        <path fill="#d62522"
            d="M 1549.433594 773.253906 L 1445.941406 773.253906 C 1445.941406 770.714844 1445.878906 768.175781 1445.757812 765.636719 C 1445.632812 763.097656 1445.445312 760.566406 1445.195312 758.039062 C 1444.945312 755.511719 1444.636719 752.988281 1444.261719 750.476562 C 1443.890625 747.964844 1443.457031 745.460938 1442.960938 742.96875 C 1442.464844 740.476562 1441.90625 738 1441.289062 735.535156 C 1440.671875 733.070312 1439.996094 730.621094 1439.257812 728.191406 C 1438.519531 725.761719 1437.722656 723.347656 1436.867188 720.957031 C 1436.011719 718.566406 1435.097656 716.195312 1434.125 713.847656 C 1433.152344 711.5 1432.125 709.179688 1431.039062 706.882812 C 1429.953125 704.585938 1428.808594 702.316406 1427.613281 700.078125 C 1426.414062 697.835938 1425.164062 695.625 1423.855469 693.445312 C 1422.550781 691.269531 1421.191406 689.121094 1419.78125 687.007812 C 1418.371094 684.898438 1416.90625 682.820312 1415.394531 680.78125 C 1413.878906 678.738281 1412.316406 676.738281 1410.707031 674.773438 C 1409.09375 672.808594 1407.433594 670.886719 1405.730469 669.003906 C 1404.023438 667.121094 1402.273438 665.28125 1400.476562 663.484375 C 1398.679688 661.6875 1396.839844 659.9375 1394.957031 658.230469 C 1393.074219 656.527344 1391.152344 654.867188 1389.1875 653.253906 C 1387.222656 651.644531 1385.222656 650.082031 1383.179688 648.566406 C 1381.140625 647.054688 1379.0625 645.589844 1376.953125 644.179688 C 1374.839844 642.769531 1372.695312 641.410156 1370.515625 640.105469 C 1368.335938 638.796875 1366.125 637.546875 1363.886719 636.347656 C 1361.644531 635.152344 1359.375 634.007812 1357.078125 632.921875 C 1354.78125 631.835938 1352.460938 630.808594 1350.113281 629.835938 C 1347.765625 628.863281 1345.398438 627.949219 1343.003906 627.09375 C 1340.613281 626.238281 1338.199219 625.441406 1335.769531 624.703125 C 1333.339844 623.964844 1330.890625 623.289062 1328.425781 622.671875 C 1325.960938 622.054688 1323.484375 621.496094 1320.992188 621 C 1318.5 620.503906 1315.996094 620.070312 1313.484375 619.699219 C 1310.972656 619.324219 1308.453125 619.015625 1305.921875 618.765625 C 1303.394531 618.515625 1300.863281 618.328125 1298.324219 618.207031 C 1295.785156 618.082031 1293.246094 618.019531 1290.707031 618.019531 L 1238.960938 618.019531 C 1236.421875 618.019531 1233.882812 618.082031 1231.34375 618.207031 C 1228.808594 618.328125 1226.273438 618.515625 1223.746094 618.765625 C 1221.21875 619.015625 1218.695312 619.324219 1216.183594 619.699219 C 1213.671875 620.070312 1211.167969 620.503906 1208.675781 621 C 1206.183594 621.496094 1203.707031 622.054688 1201.242188 622.671875 C 1198.777344 623.289062 1196.332031 623.964844 1193.898438 624.703125 C 1191.46875 625.441406 1189.058594 626.238281 1186.664062 627.09375 C 1184.273438 627.949219 1181.902344 628.863281 1179.554688 629.835938 C 1177.207031 630.808594 1174.886719 631.835938 1172.589844 632.921875 C 1170.292969 634.007812 1168.023438 635.152344 1165.785156 636.347656 C 1163.542969 637.546875 1161.332031 638.796875 1159.15625 640.105469 C 1156.976562 641.410156 1154.828125 642.769531 1152.71875 644.179688 C 1150.605469 645.589844 1148.527344 647.054688 1146.488281 648.566406 C 1144.449219 650.082031 1142.445312 651.644531 1140.480469 653.253906 C 1138.515625 654.867188 1136.59375 656.527344 1134.710938 658.230469 C 1132.828125 659.9375 1130.988281 661.6875 1129.195312 663.484375 C 1127.398438 665.28125 1125.644531 667.121094 1123.941406 669.003906 C 1122.234375 670.886719 1120.574219 672.808594 1118.964844 674.773438 C 1117.351562 676.738281 1115.789062 678.738281 1114.273438 680.78125 C 1112.761719 682.820312 1111.300781 684.898438 1109.886719 687.007812 C 1108.476562 689.121094 1107.117188 691.269531 1105.8125 693.445312 C 1104.503906 695.625 1103.253906 697.835938 1102.054688 700.078125 C 1100.859375 702.316406 1099.714844 704.585938 1098.628906 706.882812 C 1097.542969 709.179688 1096.515625 711.5 1095.542969 713.847656 C 1094.570312 716.195312 1093.65625 718.566406 1092.800781 720.957031 C 1091.945312 723.347656 1091.148438 725.761719 1090.410156 728.191406 C 1089.671875 730.621094 1088.996094 733.070312 1088.378906 735.535156 C 1087.761719 738 1087.203125 740.476562 1086.707031 742.96875 C 1086.214844 745.460938 1085.777344 747.964844 1085.40625 750.476562 C 1085.035156 752.988281 1084.722656 755.511719 1084.472656 758.039062 C 1084.222656 760.566406 1084.039062 763.097656 1083.914062 765.636719 C 1083.789062 768.175781 1083.726562 770.714844 1083.726562 773.253906 L 1083.726562 876.746094 C 1083.726562 879.285156 1083.789062 881.824219 1083.914062 884.363281 C 1084.039062 886.898438 1084.222656 889.433594 1084.472656 891.960938 C 1084.722656 894.488281 1085.035156 897.007812 1085.40625 899.523438 C 1085.777344 902.035156 1086.214844 904.539062 1086.707031 907.03125 C 1087.203125 909.519531 1087.761719 912 1088.378906 914.464844 C 1088.996094 916.929688 1089.671875 919.375 1090.410156 921.808594 C 1091.148438 924.238281 1091.945312 926.648438 1092.800781 929.042969 C 1093.65625 931.433594 1094.570312 933.804688 1095.542969 936.152344 C 1096.515625 938.496094 1097.542969 940.820312 1098.628906 943.117188 C 1099.714844 945.414062 1100.859375 947.683594 1102.054688 949.921875 C 1103.253906 952.164062 1104.503906 954.371094 1105.8125 956.550781 C 1107.117188 958.730469 1108.476562 960.875 1109.886719 962.988281 C 1111.300781 965.101562 1112.761719 967.179688 1114.273438 969.21875 C 1115.789062 971.257812 1117.351562 973.261719 1118.964844 975.226562 C 1120.574219 977.1875 1122.234375 979.113281 1123.941406 980.996094 C 1125.644531 982.878906 1127.398438 984.714844 1129.195312 986.511719 C 1130.988281 988.308594 1132.828125 990.0625 1134.710938 991.765625 C 1136.59375 993.472656 1138.515625 995.132812 1140.480469 996.742188 C 1142.445312 998.355469 1144.449219 999.917969 1146.488281 1001.429688 C 1148.527344 1002.945312 1150.605469 1004.40625 1152.71875 1005.820312 C 1154.828125 1007.230469 1156.976562 1008.589844 1159.15625 1009.894531 C 1161.332031 1011.199219 1163.542969 1012.453125 1165.785156 1013.648438 C 1168.023438 1014.847656 1170.292969 1015.988281 1172.589844 1017.074219 C 1174.886719 1018.164062 1177.207031 1019.191406 1179.554688 1020.164062 C 1181.902344 1021.136719 1184.273438 1022.050781 1186.664062 1022.90625 C 1189.054688 1023.761719 1191.46875 1024.558594 1193.898438 1025.296875 C 1196.332031 1026.035156 1198.777344 1026.710938 1201.242188 1027.328125 C 1203.707031 1027.945312 1206.183594 1028.503906 1208.675781 1028.996094 C 1211.167969 1029.492188 1213.671875 1029.925781 1216.183594 1030.300781 C 1218.695312 1030.671875 1221.21875 1030.984375 1223.746094 1031.234375 C 1226.273438 1031.480469 1228.808594 1031.667969 1231.34375 1031.792969 C 1233.882812 1031.917969 1236.421875 1031.980469 1238.960938 1031.980469 L 1290.707031 1031.980469 C 1293.246094 1031.980469 1295.785156 1031.917969 1298.324219 1031.792969 C 1300.863281 1031.667969 1303.394531 1031.480469 1305.921875 1031.234375 C 1308.453125 1030.984375 1310.972656 1030.671875 1313.484375 1030.300781 C 1316 1029.925781 1318.5 1029.492188 1320.992188 1028.996094 C 1323.484375 1028.503906 1325.960938 1027.945312 1328.425781 1027.328125 C 1330.890625 1026.710938 1333.339844 1026.035156 1335.769531 1025.296875 C 1338.199219 1024.558594 1340.613281 1023.761719 1343.003906 1022.90625 C 1345.398438 1022.050781 1347.765625 1021.136719 1350.113281 1020.164062 C 1352.460938 1019.191406 1354.78125 1018.164062 1357.078125 1017.074219 C 1359.375 1015.988281 1361.644531 1014.847656 1363.886719 1013.648438 C 1366.125 1012.453125 1368.335938 1011.199219 1370.515625 1009.894531 C 1372.695312 1008.589844 1374.839844 1007.230469 1376.953125 1005.820312 C 1379.0625 1004.40625 1381.140625 1002.945312 1383.179688 1001.429688 C 1385.222656 999.917969 1387.222656 998.355469 1389.1875 996.742188 C 1391.152344 995.132812 1393.074219 993.472656 1394.957031 991.765625 C 1396.839844 990.0625 1398.679688 988.308594 1400.476562 986.511719 C 1402.273438 984.714844 1404.023438 982.878906 1405.730469 980.996094 C 1407.433594 979.113281 1409.09375 977.1875 1410.707031 975.226562 C 1412.316406 973.261719 1413.878906 971.257812 1415.394531 969.21875 C 1416.90625 967.179688 1418.371094 965.101562 1419.78125 962.988281 C 1421.191406 960.875 1422.550781 958.730469 1423.855469 956.550781 C 1425.164062 954.371094 1426.414062 952.164062 1427.613281 949.921875 C 1428.808594 947.683594 1429.953125 945.414062 1431.039062 943.117188 C 1432.125 940.820312 1433.152344 938.496094 1434.125 936.152344 C 1435.097656 933.804688 1436.011719 931.433594 1436.867188 929.042969 C 1437.722656 926.648438 1438.519531 924.238281 1439.257812 921.808594 C 1439.996094 919.375 1440.671875 916.929688 1441.289062 914.464844 C 1441.90625 912 1442.464844 909.519531 1442.960938 907.03125 C 1443.457031 904.539062 1443.890625 902.035156 1444.261719 899.523438 C 1444.636719 897.007812 1444.945312 894.488281 1445.195312 891.960938 C 1445.445312 889.433594 1445.632812 886.898438 1445.757812 884.363281 C 1445.878906 881.824219 1445.941406 879.285156 1445.941406 876.746094 L 1549.433594 876.746094 C 1551.128906 876.746094 1552.820312 876.660156 1554.503906 876.496094 C 1556.191406 876.328125 1557.867188 876.082031 1559.527344 875.75 C 1561.191406 875.417969 1562.832031 875.007812 1564.453125 874.515625 C 1566.078125 874.023438 1567.671875 873.453125 1569.234375 872.804688 C 1570.800781 872.15625 1572.332031 871.433594 1573.828125 870.632812 C 1575.320312 869.835938 1576.773438 868.964844 1578.183594 868.023438 C 1579.589844 867.082031 1580.949219 866.074219 1582.261719 865 C 1583.570312 863.925781 1584.824219 862.789062 1586.023438 861.589844 C 1587.222656 860.390625 1588.359375 859.136719 1589.433594 857.824219 C 1590.507812 856.515625 1591.515625 855.15625 1592.457031 853.746094 C 1593.398438 852.339844 1594.269531 850.886719 1595.070312 849.390625 C 1595.867188 847.898438 1596.589844 846.367188 1597.238281 844.800781 C 1597.886719 843.234375 1598.457031 841.640625 1598.949219 840.019531 C 1599.441406 838.398438 1599.855469 836.757812 1600.183594 835.09375 C 1600.515625 833.433594 1600.765625 831.757812 1600.929688 830.070312 C 1601.097656 828.382812 1601.179688 826.695312 1601.179688 825 C 1601.179688 823.304688 1601.097656 821.613281 1600.929688 819.925781 C 1600.765625 818.242188 1600.515625 816.566406 1600.183594 814.90625 C 1599.855469 813.242188 1599.441406 811.601562 1598.949219 809.976562 C 1598.457031 808.355469 1597.890625 806.761719 1597.238281 805.195312 C 1596.589844 803.632812 1595.867188 802.101562 1595.070312 800.605469 C 1594.269531 799.113281 1593.398438 797.660156 1592.457031 796.25 C 1591.515625 794.84375 1590.507812 793.484375 1589.433594 792.171875 C 1588.359375 790.863281 1587.222656 789.609375 1586.023438 788.410156 C 1584.824219 787.210938 1583.570312 786.074219 1582.261719 785 C 1580.949219 783.925781 1579.589844 782.917969 1578.183594 781.976562 C 1576.773438 781.03125 1575.320312 780.164062 1573.828125 779.363281 C 1572.332031 778.566406 1570.800781 777.839844 1569.234375 777.191406 C 1567.671875 776.542969 1566.078125 775.972656 1564.453125 775.480469 C 1562.832031 774.992188 1561.191406 774.578125 1559.527344 774.25 C 1557.867188 773.917969 1556.191406 773.667969 1554.503906 773.503906 C 1552.820312 773.335938 1551.128906 773.253906 1549.433594 773.253906 Z M 1549.433594 773.253906 "
            fill-opacity="1" fill-rule="nonzero" />
    </g>
    <g clip-path="url(#1181b91e1f)">
        <path fill="#d62522"
            d="M 100.566406 876.746094 L 980.234375 876.746094 L 980.234375 773.253906 L 100.566406 773.253906 C 98.871094 773.253906 97.179688 773.335938 95.492188 773.503906 C 93.804688 773.667969 92.132812 773.917969 90.46875 774.25 C 88.808594 774.578125 87.164062 774.992188 85.542969 775.480469 C 83.921875 775.972656 82.328125 776.542969 80.761719 777.191406 C 79.199219 777.839844 77.667969 778.566406 76.171875 779.363281 C 74.679688 780.164062 73.226562 781.03125 71.816406 781.976562 C 70.40625 782.917969 69.046875 783.925781 67.738281 785 C 66.429688 786.074219 65.175781 787.210938 63.976562 788.410156 C 62.777344 789.609375 61.640625 790.863281 60.566406 792.171875 C 59.492188 793.484375 58.480469 794.84375 57.539062 796.25 C 56.597656 797.660156 55.730469 799.113281 54.929688 800.605469 C 54.132812 802.101562 53.40625 803.632812 52.757812 805.195312 C 52.109375 806.761719 51.539062 808.355469 51.046875 809.976562 C 50.554688 811.601562 50.144531 813.242188 49.8125 814.90625 C 49.484375 816.566406 49.234375 818.242188 49.070312 819.925781 C 48.902344 821.613281 48.820312 823.304688 48.820312 825 C 48.820312 826.695312 48.902344 828.382812 49.070312 830.070312 C 49.234375 831.757812 49.484375 833.433594 49.8125 835.09375 C 50.144531 836.757812 50.554688 838.398438 51.046875 840.019531 C 51.539062 841.640625 52.109375 843.234375 52.757812 844.800781 C 53.40625 846.367188 54.132812 847.898438 54.929688 849.390625 C 55.730469 850.886719 56.597656 852.339844 57.539062 853.746094 C 58.480469 855.15625 59.492188 856.515625 60.566406 857.824219 C 61.640625 859.136719 62.777344 860.390625 63.976562 861.589844 C 65.175781 862.789062 66.429688 863.925781 67.738281 865 C 69.046875 866.074219 70.40625 867.082031 71.816406 868.023438 C 73.226562 868.964844 74.679688 869.835938 76.171875 870.632812 C 77.667969 871.433594 79.199219 872.15625 80.761719 872.804688 C 82.328125 873.453125 83.921875 874.023438 85.542969 874.515625 C 87.164062 875.007812 88.808594 875.417969 90.46875 875.75 C 92.132812 876.082031 93.804688 876.328125 95.492188 876.496094 C 97.179688 876.660156 98.871094 876.746094 100.566406 876.746094 Z M 100.566406 876.746094 "
            fill-opacity="1" fill-rule="nonzero" />
    </g>
    <g clip-path="url(#3575e67f8f)">
        <path fill="#d62522"
            d="M 1601.179688 255.800781 C 1601.179688 254.105469 1601.097656 252.414062 1600.929688 250.730469 C 1600.765625 249.042969 1600.515625 247.367188 1600.183594 245.707031 C 1599.855469 244.042969 1599.441406 242.402344 1598.949219 240.78125 C 1598.457031 239.160156 1597.890625 237.566406 1597.238281 236 C 1596.589844 234.433594 1595.867188 232.902344 1595.070312 231.410156 C 1594.269531 229.914062 1593.398438 228.460938 1592.457031 227.054688 C 1591.515625 225.644531 1590.507812 224.285156 1589.433594 222.972656 C 1588.359375 221.664062 1587.222656 220.410156 1586.023438 219.210938 C 1584.824219 218.011719 1583.570312 216.875 1582.261719 215.800781 C 1580.949219 214.726562 1579.589844 213.71875 1578.183594 212.777344 C 1576.773438 211.835938 1575.320312 210.964844 1573.828125 210.164062 C 1572.332031 209.367188 1570.800781 208.644531 1569.234375 207.996094 C 1567.671875 207.347656 1566.078125 206.777344 1564.453125 206.285156 C 1562.832031 205.792969 1561.191406 205.378906 1559.527344 205.050781 C 1557.867188 204.71875 1556.191406 204.472656 1554.503906 204.304688 C 1552.820312 204.140625 1551.128906 204.054688 1549.433594 204.054688 L 1083.726562 204.054688 L 1083.726562 307.546875 L 1549.433594 307.546875 C 1551.128906 307.546875 1552.820312 307.464844 1554.503906 307.296875 C 1556.191406 307.132812 1557.867188 306.882812 1559.527344 306.550781 C 1561.191406 306.222656 1562.832031 305.808594 1564.453125 305.316406 C 1566.078125 304.824219 1567.671875 304.257812 1569.234375 303.605469 C 1570.800781 302.957031 1572.332031 302.234375 1573.828125 301.4375 C 1575.320312 300.636719 1576.773438 299.765625 1578.183594 298.824219 C 1579.589844 297.882812 1580.949219 296.875 1582.261719 295.800781 C 1583.570312 294.726562 1584.824219 293.589844 1586.023438 292.390625 C 1587.222656 291.191406 1588.359375 289.9375 1589.433594 288.628906 C 1590.507812 287.316406 1591.515625 285.957031 1592.457031 284.550781 C 1593.398438 283.140625 1594.269531 281.6875 1595.070312 280.195312 C 1595.867188 278.699219 1596.589844 277.167969 1597.238281 275.601562 C 1597.886719 274.039062 1598.457031 272.445312 1598.949219 270.820312 C 1599.441406 269.199219 1599.855469 267.558594 1600.183594 265.894531 C 1600.515625 264.234375 1600.765625 262.558594 1600.929688 260.871094 C 1601.097656 259.1875 1601.179688 257.496094 1601.179688 255.800781 Z M 1601.179688 255.800781 "
            fill-opacity="1" fill-rule="nonzero" />
    </g>
    <g clip-path="url(#7a130bfc2a)">
        <path fill="#d62522"
            d="M 100.566406 307.546875 L 618.019531 307.546875 C 618.019531 310.085938 618.082031 312.625 618.207031 315.164062 C 618.328125 317.699219 618.515625 320.234375 618.765625 322.761719 C 619.015625 325.289062 619.324219 327.8125 619.699219 330.324219 C 620.070312 332.835938 620.503906 335.339844 621 337.832031 C 621.496094 340.324219 622.054688 342.800781 622.671875 345.265625 C 623.289062 347.730469 623.964844 350.175781 624.703125 352.609375 C 625.441406 355.039062 626.238281 357.453125 627.09375 359.84375 C 627.949219 362.234375 628.863281 364.605469 629.835938 366.953125 C 630.808594 369.300781 631.835938 371.621094 632.921875 373.917969 C 634.007812 376.214844 635.152344 378.484375 636.347656 380.722656 C 637.546875 382.964844 638.796875 385.175781 640.105469 387.351562 C 641.410156 389.53125 642.769531 391.679688 644.179688 393.789062 C 645.589844 395.902344 647.054688 397.980469 648.566406 400.019531 C 650.082031 402.0625 651.644531 404.0625 653.253906 406.027344 C 654.867188 407.992188 656.527344 409.914062 658.230469 411.796875 C 659.9375 413.679688 661.6875 415.519531 663.484375 417.316406 C 665.28125 419.109375 667.121094 420.863281 669.003906 422.570312 C 670.886719 424.273438 672.808594 425.933594 674.773438 427.546875 C 676.738281 429.15625 678.738281 430.71875 680.78125 432.234375 C 682.820312 433.746094 684.898438 435.207031 687.007812 436.621094 C 689.121094 438.03125 691.269531 439.390625 693.445312 440.695312 C 695.625 442.003906 697.835938 443.253906 700.078125 444.453125 C 702.316406 445.648438 704.585938 446.792969 706.882812 447.878906 C 709.179688 448.964844 711.5 449.992188 713.847656 450.964844 C 716.195312 451.9375 718.566406 452.851562 720.957031 453.707031 C 723.347656 454.5625 725.761719 455.359375 728.191406 456.097656 C 730.621094 456.835938 733.070312 457.511719 735.535156 458.128906 C 738 458.746094 740.476562 459.304688 742.96875 459.800781 C 745.460938 460.296875 747.964844 460.730469 750.476562 461.101562 C 752.988281 461.476562 755.511719 461.785156 758.039062 462.035156 C 760.566406 462.285156 763.097656 462.46875 765.636719 462.59375 C 768.175781 462.71875 770.714844 462.78125 773.253906 462.78125 L 825 462.78125 C 827.539062 462.78125 830.078125 462.71875 832.617188 462.59375 C 835.152344 462.46875 837.6875 462.285156 840.214844 462.035156 C 842.742188 461.785156 845.265625 461.476562 847.777344 461.101562 C 850.289062 460.730469 852.792969 460.296875 855.285156 459.800781 C 857.777344 459.304688 860.253906 458.746094 862.71875 458.128906 C 865.183594 457.511719 867.628906 456.835938 870.0625 456.097656 C 872.492188 455.359375 874.90625 454.5625 877.296875 453.707031 C 879.6875 452.851562 882.058594 451.9375 884.40625 450.964844 C 886.753906 449.992188 889.074219 448.964844 891.371094 447.878906 C 893.667969 446.792969 895.9375 445.648438 898.175781 444.453125 C 900.417969 443.253906 902.628906 442.003906 904.804688 440.695312 C 906.984375 439.390625 909.132812 438.03125 911.242188 436.621094 C 913.355469 435.207031 915.433594 433.746094 917.472656 432.234375 C 919.515625 430.71875 921.515625 429.15625 923.480469 427.546875 C 925.445312 425.933594 927.367188 424.273438 929.25 422.570312 C 931.132812 420.863281 932.972656 419.109375 934.769531 417.316406 C 936.5625 415.519531 938.316406 413.679688 940.023438 411.796875 C 941.726562 409.914062 943.386719 407.992188 945 406.027344 C 946.609375 404.0625 948.171875 402.0625 949.6875 400.019531 C 951.199219 397.980469 952.660156 395.902344 954.074219 393.789062 C 955.484375 391.679688 956.84375 389.53125 958.148438 387.351562 C 959.457031 385.175781 960.707031 382.964844 961.90625 380.722656 C 963.101562 378.484375 964.246094 376.214844 965.332031 373.917969 C 966.417969 371.621094 967.445312 369.300781 968.417969 366.953125 C 969.390625 364.605469 970.304688 362.234375 971.160156 359.84375 C 972.015625 357.453125 972.8125 355.039062 973.550781 352.609375 C 974.289062 350.175781 974.964844 347.730469 975.582031 345.265625 C 976.199219 342.800781 976.757812 340.324219 977.253906 337.832031 C 977.75 335.339844 978.183594 332.835938 978.554688 330.324219 C 978.929688 327.8125 979.238281 325.289062 979.488281 322.761719 C 979.738281 320.234375 979.921875 317.699219 980.046875 315.164062 C 980.171875 312.625 980.234375 310.085938 980.234375 307.546875 L 980.234375 204.054688 C 980.234375 201.515625 980.171875 198.976562 980.046875 196.4375 C 979.921875 193.902344 979.738281 191.367188 979.488281 188.839844 C 979.238281 186.3125 978.929688 183.789062 978.554688 181.277344 C 978.183594 178.765625 977.75 176.261719 977.253906 173.769531 C 976.757812 171.277344 976.199219 168.800781 975.582031 166.335938 C 974.964844 163.871094 974.289062 161.425781 973.550781 158.992188 C 972.8125 156.5625 972.015625 154.148438 971.160156 151.757812 C 970.304688 149.367188 969.390625 146.996094 968.417969 144.648438 C 967.445312 142.300781 966.417969 139.980469 965.332031 137.683594 C 964.246094 135.386719 963.101562 133.117188 961.90625 130.878906 C 960.707031 128.636719 959.457031 126.425781 958.148438 124.25 C 956.84375 122.070312 955.484375 119.921875 954.074219 117.8125 C 952.660156 115.699219 951.199219 113.621094 949.6875 111.582031 C 948.171875 109.542969 946.609375 107.539062 945 105.574219 C 943.386719 103.609375 941.726562 101.6875 940.023438 99.804688 C 938.316406 97.921875 936.5625 96.082031 934.769531 94.289062 C 932.972656 92.492188 931.132812 90.738281 929.25 89.035156 C 927.367188 87.328125 925.445312 85.667969 923.480469 84.058594 C 921.515625 82.445312 919.515625 80.882812 917.472656 79.367188 C 915.433594 77.855469 913.355469 76.394531 911.242188 74.980469 C 909.132812 73.570312 906.984375 72.210938 904.804688 70.90625 C 902.628906 69.597656 900.417969 68.347656 898.175781 67.148438 C 895.9375 65.953125 893.667969 64.808594 891.371094 63.722656 C 889.074219 62.636719 886.753906 61.609375 884.40625 60.636719 C 882.058594 59.664062 879.6875 58.75 877.296875 57.894531 C 874.90625 57.039062 872.492188 56.242188 870.0625 55.503906 C 867.628906 54.765625 865.183594 54.089844 862.71875 53.472656 C 860.253906 52.855469 857.777344 52.296875 855.285156 51.800781 C 852.792969 51.308594 850.289062 50.871094 847.777344 50.5 C 845.265625 50.128906 842.742188 49.816406 840.214844 49.566406 C 837.6875 49.316406 835.152344 49.132812 832.617188 49.007812 C 830.078125 48.882812 827.539062 48.820312 825 48.820312 L 773.253906 48.820312 C 770.714844 48.820312 768.175781 48.882812 765.636719 49.007812 C 763.097656 49.132812 760.566406 49.316406 758.039062 49.566406 C 755.511719 49.816406 752.988281 50.128906 750.476562 50.5 C 747.964844 50.871094 745.460938 51.308594 742.96875 51.800781 C 740.476562 52.296875 738 52.855469 735.535156 53.472656 C 733.070312 54.089844 730.621094 54.765625 728.191406 55.503906 C 725.761719 56.242188 723.347656 57.039062 720.957031 57.894531 C 718.566406 58.75 716.195312 59.664062 713.847656 60.636719 C 711.5 61.609375 709.179688 62.636719 706.882812 63.722656 C 704.585938 64.808594 702.316406 65.953125 700.078125 67.148438 C 697.835938 68.347656 695.625 69.597656 693.445312 70.90625 C 691.269531 72.210938 689.121094 73.570312 687.007812 74.980469 C 684.898438 76.394531 682.820312 77.855469 680.78125 79.367188 C 678.738281 80.882812 676.738281 82.445312 674.773438 84.058594 C 672.808594 85.667969 670.886719 87.328125 669.003906 89.035156 C 667.121094 90.738281 665.28125 92.492188 663.484375 94.289062 C 661.6875 96.082031 659.9375 97.921875 658.230469 99.804688 C 656.527344 101.6875 654.867188 103.609375 653.253906 105.574219 C 651.644531 107.539062 650.082031 109.542969 648.566406 111.582031 C 647.054688 113.621094 645.589844 115.699219 644.179688 117.8125 C 642.769531 119.921875 641.410156 122.070312 640.105469 124.25 C 638.796875 126.425781 637.546875 128.636719 636.347656 130.878906 C 635.152344 133.117188 634.007812 135.386719 632.921875 137.683594 C 631.835938 139.980469 630.808594 142.300781 629.835938 144.648438 C 628.863281 146.996094 627.949219 149.367188 627.09375 151.757812 C 626.238281 154.148438 625.441406 156.5625 624.703125 158.992188 C 623.964844 161.425781 623.289062 163.871094 622.671875 166.335938 C 622.054688 168.800781 621.496094 171.277344 621 173.769531 C 620.503906 176.261719 620.070312 178.765625 619.699219 181.277344 C 619.324219 183.789062 619.015625 186.3125 618.765625 188.839844 C 618.515625 191.367188 618.328125 193.902344 618.207031 196.4375 C 618.082031 198.976562 618.019531 201.515625 618.019531 204.054688 L 100.566406 204.054688 C 98.871094 204.054688 97.179688 204.140625 95.492188 204.304688 C 93.804688 204.472656 92.132812 204.71875 90.46875 205.050781 C 88.808594 205.378906 87.164062 205.792969 85.542969 206.285156 C 83.921875 206.777344 82.328125 207.347656 80.761719 207.996094 C 79.199219 208.644531 77.667969 209.367188 76.171875 210.164062 C 74.679688 210.964844 73.226562 211.835938 71.816406 212.777344 C 70.40625 213.71875 69.046875 214.726562 67.738281 215.800781 C 66.429688 216.875 65.175781 218.011719 63.976562 219.210938 C 62.777344 220.410156 61.640625 221.664062 60.566406 222.972656 C 59.492188 224.285156 58.480469 225.644531 57.539062 227.054688 C 56.597656 228.460938 55.730469 229.914062 54.929688 231.410156 C 54.132812 232.902344 53.40625 234.433594 52.757812 236 C 52.109375 237.566406 51.539062 239.160156 51.046875 240.78125 C 50.554688 242.402344 50.144531 244.042969 49.8125 245.707031 C 49.484375 247.367188 49.234375 249.042969 49.070312 250.730469 C 48.902344 252.414062 48.820312 254.105469 48.820312 255.800781 C 48.820312 257.496094 48.902344 259.1875 49.070312 260.871094 C 49.234375 262.558594 49.484375 264.234375 49.8125 265.894531 C 50.144531 267.558594 50.554688 269.199219 51.046875 270.820312 C 51.539062 272.445312 52.109375 274.039062 52.757812 275.601562 C 53.40625 277.167969 54.132812 278.699219 54.929688 280.195312 C 55.730469 281.6875 56.597656 283.140625 57.539062 284.550781 C 58.480469 285.957031 59.492188 287.316406 60.566406 288.628906 C 61.640625 289.9375 62.777344 291.191406 63.976562 292.390625 C 65.175781 293.589844 66.429688 294.726562 67.738281 295.800781 C 69.046875 296.875 70.40625 297.882812 71.816406 298.824219 C 73.226562 299.765625 74.679688 300.636719 76.171875 301.4375 C 77.667969 302.234375 79.199219 302.957031 80.761719 303.605469 C 82.328125 304.257812 83.921875 304.824219 85.542969 305.316406 C 87.164062 305.808594 88.808594 306.222656 90.46875 306.550781 C 92.132812 306.882812 93.804688 307.132812 95.492188 307.296875 C 97.179688 307.464844 98.871094 307.546875 100.566406 307.546875 Z M 100.566406 307.546875 "
            fill-opacity="1" fill-rule="nonzero" />
    </g>
    <g clip-path="url(#f82d5a4d16)">
        <path fill="#d62522"
            d="M 1549.433594 1342.453125 L 773.253906 1342.453125 L 773.253906 1445.941406 L 1549.433594 1445.941406 C 1551.128906 1445.941406 1552.820312 1445.859375 1554.503906 1445.695312 C 1556.191406 1445.527344 1557.867188 1445.277344 1559.527344 1444.949219 C 1561.191406 1444.617188 1562.832031 1444.207031 1564.453125 1443.714844 C 1566.078125 1443.222656 1567.671875 1442.652344 1569.234375 1442.003906 C 1570.800781 1441.355469 1572.332031 1440.632812 1573.828125 1439.832031 C 1575.320312 1439.035156 1576.773438 1438.164062 1578.183594 1437.222656 C 1579.589844 1436.28125 1580.949219 1435.273438 1582.261719 1434.199219 C 1583.570312 1433.121094 1584.824219 1431.984375 1586.023438 1430.785156 C 1587.222656 1429.589844 1588.359375 1428.335938 1589.433594 1427.023438 C 1590.507812 1425.714844 1591.515625 1424.355469 1592.457031 1422.945312 C 1593.398438 1421.535156 1594.269531 1420.085938 1595.070312 1418.589844 C 1595.867188 1417.09375 1596.589844 1415.566406 1597.238281 1414 C 1597.886719 1412.433594 1598.457031 1410.839844 1598.949219 1409.21875 C 1599.441406 1407.597656 1599.855469 1405.953125 1600.183594 1404.292969 C 1600.515625 1402.628906 1600.765625 1400.957031 1600.929688 1399.269531 C 1601.097656 1397.582031 1601.179688 1395.890625 1601.179688 1394.199219 C 1601.179688 1392.503906 1601.097656 1390.8125 1600.929688 1389.125 C 1600.765625 1387.4375 1600.515625 1385.765625 1600.183594 1384.101562 C 1599.855469 1382.441406 1599.441406 1380.796875 1598.949219 1379.175781 C 1598.457031 1377.554688 1597.890625 1375.960938 1597.238281 1374.394531 C 1596.589844 1372.828125 1595.867188 1371.300781 1595.070312 1369.804688 C 1594.269531 1368.308594 1593.398438 1366.859375 1592.457031 1365.449219 C 1591.515625 1364.039062 1590.507812 1362.679688 1589.433594 1361.371094 C 1588.359375 1360.0625 1587.222656 1358.804688 1586.023438 1357.609375 C 1584.824219 1356.410156 1583.570312 1355.273438 1582.261719 1354.199219 C 1580.949219 1353.121094 1579.589844 1352.113281 1578.183594 1351.171875 C 1576.773438 1350.230469 1575.320312 1349.359375 1573.828125 1348.5625 C 1572.332031 1347.761719 1570.800781 1347.039062 1569.234375 1346.390625 C 1567.671875 1345.742188 1566.078125 1345.171875 1564.453125 1344.679688 C 1562.832031 1344.1875 1561.191406 1343.777344 1559.527344 1343.445312 C 1557.867188 1343.117188 1556.191406 1342.867188 1554.503906 1342.703125 C 1552.820312 1342.535156 1551.128906 1342.453125 1549.433594 1342.453125 Z M 1549.433594 1342.453125 "
            fill-opacity="1" fill-rule="nonzero" />
    </g>
    <g clip-path="url(#0796a9b5e5)">
        <path fill="#d62522"
            d="M 514.527344 1187.214844 L 462.78125 1187.214844 C 460.242188 1187.214844 457.703125 1187.277344 455.164062 1187.402344 C 452.628906 1187.527344 450.09375 1187.714844 447.566406 1187.964844 C 445.039062 1188.214844 442.515625 1188.523438 440.003906 1188.898438 C 437.492188 1189.269531 434.988281 1189.703125 432.496094 1190.199219 C 430.003906 1190.695312 427.527344 1191.25 425.0625 1191.867188 C 422.597656 1192.484375 420.152344 1193.164062 417.71875 1193.902344 C 415.289062 1194.636719 412.875 1195.433594 410.484375 1196.292969 C 408.09375 1197.148438 405.722656 1198.0625 403.375 1199.03125 C 401.027344 1200.003906 398.707031 1201.035156 396.410156 1202.121094 C 394.113281 1203.207031 391.84375 1204.347656 389.605469 1205.546875 C 387.363281 1206.746094 385.152344 1207.996094 382.976562 1209.300781 C 380.796875 1210.609375 378.648438 1211.96875 376.539062 1213.378906 C 374.425781 1214.789062 372.347656 1216.253906 370.308594 1217.765625 C 368.269531 1219.277344 366.265625 1220.839844 364.300781 1222.453125 C 362.335938 1224.066406 360.414062 1225.722656 358.53125 1227.429688 C 356.648438 1229.136719 354.808594 1230.886719 353.015625 1232.683594 C 351.21875 1234.480469 349.464844 1236.320312 347.761719 1238.203125 C 346.054688 1240.085938 344.394531 1242.007812 342.785156 1243.972656 C 341.171875 1245.9375 339.609375 1247.9375 338.09375 1249.976562 C 336.582031 1252.019531 335.121094 1254.09375 333.707031 1256.207031 C 332.296875 1258.320312 330.9375 1260.464844 329.632812 1262.644531 C 328.324219 1264.824219 327.074219 1267.035156 325.875 1269.273438 C 324.679688 1271.515625 323.535156 1273.785156 322.449219 1276.082031 C 321.363281 1278.378906 320.335938 1280.699219 319.363281 1283.046875 C 318.390625 1285.394531 317.476562 1287.761719 316.621094 1290.15625 C 315.765625 1292.546875 314.96875 1294.957031 314.230469 1297.390625 C 313.492188 1299.820312 312.816406 1302.269531 312.199219 1304.734375 C 311.582031 1307.199219 311.023438 1309.675781 310.527344 1312.167969 C 310.035156 1314.660156 309.597656 1317.160156 309.226562 1319.675781 C 308.855469 1322.1875 308.542969 1324.707031 308.292969 1327.238281 C 308.042969 1329.765625 307.859375 1332.296875 307.734375 1334.835938 C 307.609375 1337.371094 307.546875 1339.910156 307.546875 1342.453125 L 100.566406 1342.453125 C 98.871094 1342.453125 97.179688 1342.535156 95.492188 1342.703125 C 93.804688 1342.867188 92.132812 1343.117188 90.46875 1343.445312 C 88.808594 1343.777344 87.164062 1344.1875 85.542969 1344.679688 C 83.921875 1345.171875 82.328125 1345.742188 80.761719 1346.390625 C 79.199219 1347.039062 77.667969 1347.761719 76.171875 1348.5625 C 74.679688 1349.359375 73.226562 1350.230469 71.816406 1351.171875 C 70.40625 1352.113281 69.046875 1353.121094 67.738281 1354.199219 C 66.429688 1355.273438 65.175781 1356.410156 63.976562 1357.609375 C 62.777344 1358.804688 61.640625 1360.0625 60.566406 1361.371094 C 59.492188 1362.679688 58.480469 1364.039062 57.539062 1365.449219 C 56.597656 1366.859375 55.730469 1368.308594 54.929688 1369.804688 C 54.132812 1371.300781 53.40625 1372.828125 52.757812 1374.394531 C 52.109375 1375.960938 51.539062 1377.554688 51.046875 1379.175781 C 50.554688 1380.796875 50.144531 1382.441406 49.8125 1384.101562 C 49.484375 1385.765625 49.234375 1387.4375 49.070312 1389.125 C 48.902344 1390.8125 48.820312 1392.503906 48.820312 1394.199219 C 48.820312 1395.890625 48.902344 1397.582031 49.070312 1399.269531 C 49.234375 1400.957031 49.484375 1402.628906 49.8125 1404.292969 C 50.144531 1405.953125 50.554688 1407.597656 51.046875 1409.21875 C 51.539062 1410.839844 52.109375 1412.433594 52.757812 1414 C 53.40625 1415.566406 54.132812 1417.09375 54.929688 1418.589844 C 55.730469 1420.085938 56.597656 1421.535156 57.539062 1422.945312 C 58.480469 1424.355469 59.492188 1425.714844 60.566406 1427.023438 C 61.640625 1428.335938 62.777344 1429.589844 63.976562 1430.785156 C 65.175781 1431.984375 66.429688 1433.121094 67.738281 1434.199219 C 69.046875 1435.273438 70.40625 1436.28125 71.816406 1437.222656 C 73.226562 1438.164062 74.679688 1439.035156 76.171875 1439.832031 C 77.667969 1440.632812 79.199219 1441.355469 80.761719 1442.003906 C 82.328125 1442.652344 83.921875 1443.222656 85.542969 1443.714844 C 87.164062 1444.207031 88.808594 1444.617188 90.46875 1444.949219 C 92.132812 1445.277344 93.804688 1445.527344 95.492188 1445.695312 C 97.179688 1445.859375 98.871094 1445.941406 100.566406 1445.941406 L 307.546875 1445.941406 C 307.546875 1448.484375 307.609375 1451.023438 307.734375 1453.558594 C 307.859375 1456.097656 308.042969 1458.628906 308.292969 1461.160156 C 308.542969 1463.6875 308.855469 1466.207031 309.226562 1468.722656 C 309.597656 1471.234375 310.035156 1473.734375 310.527344 1476.226562 C 311.023438 1478.71875 311.582031 1481.199219 312.199219 1483.660156 C 312.816406 1486.125 313.492188 1488.574219 314.230469 1491.003906 C 314.96875 1493.4375 315.765625 1495.847656 316.621094 1498.242188 C 317.476562 1500.632812 318.390625 1503.003906 319.363281 1505.347656 C 320.335938 1507.695312 321.363281 1510.019531 322.449219 1512.316406 C 323.535156 1514.613281 324.679688 1516.878906 325.875 1519.121094 C 327.074219 1521.359375 328.324219 1523.570312 329.632812 1525.75 C 330.9375 1527.929688 332.296875 1530.074219 333.707031 1532.1875 C 335.121094 1534.300781 336.582031 1536.375 338.09375 1538.417969 C 339.609375 1540.457031 341.171875 1542.460938 342.785156 1544.421875 C 344.394531 1546.386719 346.054688 1548.308594 347.761719 1550.191406 C 349.464844 1552.074219 351.21875 1553.914062 353.015625 1555.710938 C 354.808594 1557.507812 356.648438 1559.257812 358.53125 1560.964844 C 360.414062 1562.671875 362.335938 1564.332031 364.300781 1565.941406 C 366.265625 1567.554688 368.269531 1569.117188 370.308594 1570.628906 C 372.347656 1572.144531 374.425781 1573.605469 376.539062 1575.015625 C 378.648438 1576.429688 380.796875 1577.785156 382.976562 1579.09375 C 385.152344 1580.398438 387.363281 1581.652344 389.605469 1582.847656 C 391.84375 1584.046875 394.113281 1585.1875 396.410156 1586.273438 C 398.707031 1587.359375 401.027344 1588.390625 403.375 1589.363281 C 405.722656 1590.335938 408.09375 1591.25 410.484375 1592.105469 C 412.875 1592.960938 415.289062 1593.757812 417.71875 1594.496094 C 420.152344 1595.230469 422.597656 1595.910156 425.0625 1596.527344 C 427.527344 1597.144531 430.003906 1597.699219 432.496094 1598.195312 C 434.988281 1598.691406 437.492188 1599.125 440.003906 1599.5 C 442.515625 1599.871094 445.039062 1600.183594 447.566406 1600.429688 C 450.09375 1600.679688 452.628906 1600.867188 455.164062 1600.992188 C 457.703125 1601.117188 460.242188 1601.179688 462.78125 1601.179688 L 514.527344 1601.179688 C 517.066406 1601.179688 519.605469 1601.117188 522.144531 1600.992188 C 524.683594 1600.867188 527.214844 1600.679688 529.742188 1600.429688 C 532.273438 1600.183594 534.792969 1599.871094 537.304688 1599.5 C 539.820312 1599.125 542.320312 1598.691406 544.8125 1598.195312 C 547.304688 1597.699219 549.78125 1597.144531 552.246094 1596.527344 C 554.710938 1595.910156 557.160156 1595.230469 559.589844 1594.496094 C 562.019531 1593.757812 564.433594 1592.960938 566.824219 1592.105469 C 569.21875 1591.25 571.585938 1590.335938 573.933594 1589.363281 C 576.28125 1588.390625 578.601562 1587.359375 580.898438 1586.273438 C 583.195312 1585.1875 585.464844 1584.046875 587.707031 1582.847656 C 589.945312 1581.652344 592.15625 1580.398438 594.335938 1579.09375 C 596.515625 1577.785156 598.660156 1576.429688 600.773438 1575.015625 C 602.882812 1573.605469 604.960938 1572.144531 607 1570.628906 C 609.042969 1569.117188 611.042969 1567.554688 613.007812 1565.941406 C 614.972656 1564.332031 616.894531 1562.671875 618.777344 1560.964844 C 620.660156 1559.257812 622.5 1557.507812 624.296875 1555.710938 C 626.09375 1553.914062 627.84375 1552.074219 629.550781 1550.191406 C 631.253906 1548.3125 632.914062 1546.386719 634.527344 1544.421875 C 636.136719 1542.460938 637.699219 1540.457031 639.214844 1538.417969 C 640.726562 1536.375 642.191406 1534.300781 643.601562 1532.1875 C 645.011719 1530.074219 646.371094 1527.929688 647.679688 1525.75 C 648.984375 1523.570312 650.234375 1521.359375 651.433594 1519.121094 C 652.632812 1516.878906 653.773438 1514.613281 654.859375 1512.316406 C 655.945312 1510.019531 656.972656 1507.695312 657.945312 1505.347656 C 658.917969 1503.003906 659.832031 1500.632812 660.6875 1498.242188 C 661.542969 1495.847656 662.339844 1493.4375 663.078125 1491.003906 C 663.816406 1488.574219 664.492188 1486.125 665.109375 1483.664062 C 665.726562 1481.199219 666.285156 1478.71875 666.78125 1476.226562 C 667.277344 1473.738281 667.710938 1471.234375 668.082031 1468.722656 C 668.457031 1466.207031 668.765625 1463.6875 669.015625 1461.160156 C 669.265625 1458.628906 669.453125 1456.097656 669.578125 1453.558594 C 669.699219 1451.023438 669.761719 1448.484375 669.761719 1445.941406 L 669.761719 1342.453125 C 669.761719 1339.910156 669.699219 1337.371094 669.578125 1334.835938 C 669.453125 1332.296875 669.265625 1329.765625 669.015625 1327.238281 C 668.765625 1324.707031 668.457031 1322.1875 668.082031 1319.675781 C 667.710938 1317.160156 667.277344 1314.660156 666.78125 1312.167969 C 666.285156 1309.675781 665.726562 1307.199219 665.109375 1304.734375 C 664.492188 1302.269531 663.816406 1299.820312 663.078125 1297.390625 C 662.339844 1294.957031 661.542969 1292.546875 660.6875 1290.15625 C 659.832031 1287.761719 658.917969 1285.394531 657.945312 1283.046875 C 656.972656 1280.699219 655.945312 1278.378906 654.859375 1276.082031 C 653.773438 1273.785156 652.632812 1271.515625 651.433594 1269.273438 C 650.234375 1267.035156 648.984375 1264.824219 647.679688 1262.644531 C 646.371094 1260.464844 645.011719 1258.320312 643.601562 1256.207031 C 642.191406 1254.09375 640.726562 1252.019531 639.214844 1249.976562 C 637.699219 1247.9375 636.136719 1245.9375 634.527344 1243.972656 C 632.914062 1242.007812 631.253906 1240.085938 629.550781 1238.203125 C 627.84375 1236.320312 626.09375 1234.480469 624.296875 1232.683594 C 622.5 1230.886719 620.660156 1229.136719 618.777344 1227.429688 C 616.894531 1225.722656 614.972656 1224.066406 613.007812 1222.453125 C 611.042969 1220.839844 609.042969 1219.277344 607 1217.765625 C 604.960938 1216.253906 602.882812 1214.789062 600.773438 1213.378906 C 598.660156 1211.96875 596.515625 1210.609375 594.335938 1209.300781 C 592.15625 1207.996094 589.945312 1206.742188 587.707031 1205.546875 C 585.464844 1204.347656 583.195312 1203.207031 580.898438 1202.121094 C 578.601562 1201.035156 576.28125 1200.003906 573.933594 1199.03125 C 571.585938 1198.0625 569.21875 1197.148438 566.824219 1196.289062 C 564.433594 1195.433594 562.019531 1194.636719 559.589844 1193.902344 C 557.160156 1193.164062 554.710938 1192.484375 552.246094 1191.867188 C 549.78125 1191.25 547.304688 1190.695312 544.8125 1190.199219 C 542.320312 1189.703125 539.820312 1189.269531 537.304688 1188.898438 C 534.792969 1188.523438 532.273438 1188.214844 529.742188 1187.964844 C 527.214844 1187.714844 524.683594 1187.527344 522.144531 1187.402344 C 519.605469 1187.277344 517.066406 1187.214844 514.527344 1187.214844 Z M 514.527344 1187.214844 "
            fill-opacity="1" fill-rule="nonzero" />
    </g>
</svg>