<?xml version="1.0" encoding="UTF-8" standalone="no"?>
<svg
   width="2200"
   zoomAndPan="magnify"
   viewBox="0 0 1650 1649.999929"
   height="2200"
   preserveAspectRatio="xMidYMid meet"
   version="1.0"
   id="svg2"
   sodipodi:docname="Home.svg"
   inkscape:version="1.3.2 (091e20e, 2023-11-25, custom)"
   xmlns:inkscape="http://www.inkscape.org/namespaces/inkscape"
   xmlns:sodipodi="http://sodipodi.sourceforge.net/DTD/sodipodi-0.dtd"
   xmlns="http://www.w3.org/2000/svg"
   xmlns:svg="http://www.w3.org/2000/svg">
  <sodipodi:namedview
     id="namedview2"
     pagecolor="#ffffff"
     bordercolor="#000000"
     borderopacity="0.25"
     inkscape:showpageshadow="2"
     inkscape:pageopacity="0.0"
     inkscape:pagecheckerboard="0"
     inkscape:deskcolor="#d1d1d1"
     inkscape:zoom="0.26902199"
     inkscape:cx="537.13081"
     inkscape:cy="949.73649"
     inkscape:window-width="1920"
     inkscape:window-height="1051"
     inkscape:window-x="-9"
     inkscape:window-y="-9"
     inkscape:window-maximized="1"
     inkscape:current-layer="svg2" />
  <defs
     id="defs1">
    <clipPath
       id="caefce52d6">
      <path
         d="M 794 795.203125 L 856 795.203125 L 856 854.453125 L 794 854.453125 Z M 794 795.203125 "
         clip-rule="nonzero"
         id="path1" />
    </clipPath>
  </defs>
  <g
     clip-path="url(#caefce52d6)"
     id="g2"
     transform="matrix(26.320657,0,0,26.320657,-20884.899,-20891.299)">
    <path
       fill="#fad550"
       d="m 852.36328,826.36328 h -2.51953 v 25.81641 c -0.0195,0.35156 -0.10938,0.68359 -0.26172,1.0039 -0.15234,0.31641 -0.36328,0.58985 -0.625,0.82422 -0.26172,0.23438 -0.55859,0.41016 -0.89062,0.52735 -0.33204,0.11718 -0.67579,0.16796 -1.02735,0.15234 h -14.875 v -17.60547 c 0,-0.24219 -0.043,-0.47656 -0.13672,-0.70312 -0.0937,-0.22657 -0.22656,-0.42579 -0.39843,-0.59766 -0.17188,-0.17188 -0.3711,-0.30469 -0.59766,-0.39844 -0.22656,-0.0937 -0.46094,-0.14062 -0.70313,-0.14062 h -10.79296 c -0.24219,0 -0.47657,0.0469 -0.70313,0.14062 -0.22266,0.0937 -0.42187,0.22656 -0.59375,0.39844 -0.17578,0.17187 -0.30859,0.37109 -0.39844,0.59766 -0.0937,0.22656 -0.14062,0.46093 -0.14062,0.70312 v 17.60156 h -14.875 c -0.35156,0.0195 -0.69141,-0.0273 -1.02344,-0.14453 -0.33203,-0.11719 -0.62891,-0.29297 -0.89062,-0.52734 -0.26172,-0.23438 -0.46875,-0.50781 -0.6211,-0.82422 -0.15234,-0.31641 -0.23828,-0.64844 -0.26172,-1 V 826.36328 H 797.5 c -2.80078,0 -4.32031,-2.64062 -2.48438,-4.33203 l 27.67188,-25.58203 c 0.35156,-0.29688 0.73828,-0.52344 1.16797,-0.67969 0.42969,-0.15625 0.875,-0.23437 1.33203,-0.23437 0.45703,0 0.89844,0.082 1.32812,0.23828 0.42969,0.16015 0.81641,0.38672 1.16407,0.68359 9.05859,8.52734 18.125,17.05469 27.1914,25.58203 1.80078,1.71094 0.28516,4.32422 -2.50781,4.32422 z m 0,0"
       fill-opacity="1"
       fill-rule="nonzero"
       id="path2" />
  </g>
</svg>
