<?xml version="1.0" encoding="UTF-8" standalone="no"?>
<svg
   width="2200"
   zoomAndPan="magnify"
   viewBox="0 0 1650 1649.999929"
   height="2200"
   preserveAspectRatio="xMidYMid meet"
   version="1.0"
   id="svg16"
   sodipodi:docname="Instagram.svg"
   inkscape:version="1.3.2 (091e20e, 2023-11-25, custom)"
   xmlns:inkscape="http://www.inkscape.org/namespaces/inkscape"
   xmlns:sodipodi="http://sodipodi.sourceforge.net/DTD/sodipodi-0.dtd"
   xmlns="http://www.w3.org/2000/svg"
   xmlns:svg="http://www.w3.org/2000/svg">
  <sodipodi:namedview
     id="namedview16"
     pagecolor="#ffffff"
     bordercolor="#000000"
     borderopacity="0.25"
     inkscape:showpageshadow="2"
     inkscape:pageopacity="0.0"
     inkscape:pagecheckerboard="0"
     inkscape:deskcolor="#d1d1d1"
     inkscape:zoom="0.26902199"
     inkscape:cx="1343.7563"
     inkscape:cy="1247.1099"
     inkscape:window-width="1920"
     inkscape:window-height="1051"
     inkscape:window-x="-9"
     inkscape:window-y="-9"
     inkscape:window-maximized="1"
     inkscape:current-layer="svg16" />
  <defs
     id="defs8">
    <clipPath
       id="3fb0efbff6">
      <path
         d="M 801.964844 802.019531 L 848.101562 802.019531 L 848.101562 847.976562 L 801.964844 847.976562 Z M 801.964844 802.019531 "
         clip-rule="nonzero"
         id="path1" />
    </clipPath>
    <clipPath
       id="a57229bf4f">
      <path
         d="M 810.214844 802.019531 L 839.785156 802.019531 C 841.972656 802.019531 844.074219 802.890625 845.621094 804.4375 C 847.167969 805.984375 848.035156 808.082031 848.035156 810.269531 L 848.035156 839.726562 C 848.035156 841.917969 847.167969 844.015625 845.621094 845.5625 C 844.074219 847.109375 841.972656 847.976562 839.785156 847.976562 L 810.214844 847.976562 C 808.027344 847.976562 805.925781 847.109375 804.378906 845.5625 C 802.832031 844.015625 801.964844 841.917969 801.964844 839.726562 L 801.964844 810.269531 C 801.964844 808.082031 802.832031 805.984375 804.378906 804.4375 C 805.925781 802.890625 808.027344 802.019531 810.214844 802.019531 Z M 810.214844 802.019531 "
         clip-rule="nonzero"
         id="path2" />
    </clipPath>
    <clipPath
       id="14ffd97012">
      <path
         d="M 801.964844 802.023438 L 848.496094 802.023438 L 848.496094 847.519531 L 801.964844 847.519531 Z M 801.964844 802.023438 "
         clip-rule="nonzero"
         id="path3" />
    </clipPath>
    <clipPath
       id="b34a0f1b6b">
      <path
         d="M 810.210938 802.023438 L 839.78125 802.023438 C 841.96875 802.023438 844.066406 802.890625 845.613281 804.4375 C 847.160156 805.984375 848.027344 808.082031 848.027344 810.269531 L 848.027344 839.722656 C 848.027344 841.910156 847.160156 844.007812 845.613281 845.554688 C 844.066406 847.101562 841.96875 847.972656 839.78125 847.972656 L 810.210938 847.972656 C 808.023438 847.972656 805.925781 847.101562 804.378906 845.554688 C 802.832031 844.007812 801.964844 841.910156 801.964844 839.722656 L 801.964844 810.269531 C 801.964844 808.082031 802.832031 805.984375 804.378906 804.4375 C 805.925781 802.890625 808.023438 802.023438 810.210938 802.023438 Z M 810.210938 802.023438 "
         clip-rule="nonzero"
         id="path4" />
    </clipPath>
    <clipPath
       id="924137a5b6">
      <path
         d="M 812.796875 813.476562 L 837.195312 813.476562 L 837.195312 837.875 L 812.796875 837.875 Z M 812.796875 813.476562 "
         clip-rule="nonzero"
         id="path5" />
    </clipPath>
    <clipPath
       id="5c2b2f4306">
      <path
         d="M 824.996094 813.476562 C 818.257812 813.476562 812.796875 818.9375 812.796875 825.675781 C 812.796875 832.414062 818.257812 837.875 824.996094 837.875 C 831.730469 837.875 837.195312 832.414062 837.195312 825.675781 C 837.195312 818.9375 831.730469 813.476562 824.996094 813.476562 Z M 824.996094 813.476562 "
         clip-rule="nonzero"
         id="path6" />
    </clipPath>
    <clipPath
       id="05095b1a89">
      <path
         d="M 834.972656 807.976562 L 841.503906 807.976562 L 841.503906 814.511719 L 834.972656 814.511719 Z M 834.972656 807.976562 "
         clip-rule="nonzero"
         id="path7" />
    </clipPath>
    <clipPath
       id="f403cbc6c1">
      <path
         d="M 838.238281 807.976562 C 836.433594 807.976562 834.972656 809.441406 834.972656 811.246094 C 834.972656 813.050781 836.433594 814.511719 838.238281 814.511719 C 840.042969 814.511719 841.503906 813.050781 841.503906 811.246094 C 841.503906 809.441406 840.042969 807.976562 838.238281 807.976562 Z M 838.238281 807.976562 "
         clip-rule="nonzero"
         id="path8" />
    </clipPath>
  </defs>
  <g
     clip-path="url(#3fb0efbff6)"
     id="g10"
     transform="matrix(34.887564,0,0,35.697722,-27957.241,-28631.159)">
    <g
       clip-path="url(#a57229bf4f)"
       id="g9">
      <path
         fill="#d62522"
         d="m 801.96484,802.01953 h 46.13672 v 45.95703 h -46.13672 z m 0,0"
         fill-opacity="1"
         fill-rule="nonzero"
         id="path9" />
    </g>
  </g>
  <g
     clip-path="url(#14ffd97012)"
     id="g12"
     transform="matrix(34.887564,0,0,36.188004,-27957.241,-29024.375)">
    <g
       clip-path="url(#b34a0f1b6b)"
       id="g11">
      <path
         stroke-linecap="butt"
         transform="matrix(1.034065,0,0,1.034065,801.96371,802.02231)"
         fill="none"
         stroke-linejoin="miter"
         d="m 7.975539,0.00108835 h 28.596182 c 2.115438,0 4.143991,0.83861965 5.639908,2.33453665 1.495916,1.495916 2.334536,3.52447 2.334536,5.639907 v 28.482856 c 0,2.115437 -0.83862,4.143991 -2.334536,5.639907 -1.495917,1.495917 -3.52447,2.338314 -5.639908,2.338314 H 7.975539 c -2.115438,0 -4.143991,-0.842397 -5.639908,-2.338314 C 0.839715,40.602379 0.00109488,38.573825 0.00109488,36.458388 V 7.975532 c 0,-2.115437 0.83862012,-4.143991 2.33453612,-5.639907 1.495917,-1.495917 3.52447,-2.33453665 5.639908,-2.33453665 z m 0,0"
         stroke="#fbb93e"
         stroke-width="4.35176"
         stroke-opacity="1"
         stroke-miterlimit="4"
         id="path10" />
    </g>
  </g>
  <g
     clip-path="url(#924137a5b6)"
     id="g14"
     transform="matrix(34.887564,0,0,36.188004,-27957.241,-29024.375)">
    <g
       clip-path="url(#5c2b2f4306)"
       id="g13">
      <path
         stroke-linecap="butt"
         transform="matrix(1.034065,0,0,1.034065,812.79599,813.47734)"
         fill="none"
         stroke-linejoin="miter"
         d="M 11.798197,-7.54886e-4 C 5.281894,-7.54886e-4 8.55209e-4,5.280284 8.55209e-4,11.796587 c 0,6.516303 5.281038791,11.797342 11.797341791,11.797342 6.512526,0 11.797342,-5.281039 11.797342,-11.797342 0,-6.516303 -5.284816,-11.797341886 -11.797342,-11.797341886 z m 0,0"
         stroke="#fbb93e"
         stroke-width="5.80234"
         stroke-opacity="1"
         stroke-miterlimit="4"
         id="path12" />
    </g>
  </g>
  <g
     clip-path="url(#05095b1a89)"
     id="g16"
     transform="matrix(34.887564,0,0,36.188004,-27957.241,-29024.375)">
    <g
       clip-path="url(#f403cbc6c1)"
       id="g15">
      <path
         fill="#fbb93e"
         d="m 834.97266,807.97656 h 6.53125 v 6.53516 h -6.53125 z m 0,0"
         fill-opacity="1"
         fill-rule="nonzero"
         id="path14" />
    </g>
  </g>
</svg>
