<svg xmlns="http://www.w3.org/2000/svg" viewBox="0 0 24 24">
   <rect fill="#d62522" x="0" y="0" width="24" height="24" rx="7" />
   <path
      fill="#fbb93e"
      d="
      M 12 0.9 z z m 0 5.838 c -3.403 0 -6.162 2.759 -6.162 6.162 s 2.759 6.163 6.162 6.163 s 6.162 -2.759 6.162 -6.163 c 0 -3.403 -2.759 -6.162 -6.162 -6.162 z m 0 10.162 c -2.209 0 -4 -1.79 -4 -4 c 0 -2.209 1.791 -4 4 -4 s 4 1.791 4 4 c 0 2.21 -1.791 4 -4 4 z m 6.406 -13 c -0.796 0 -1.441 0.645 -1.441 1.44 s 0.645 1.44 1.441 1.44 c 0.795 0 1.439 -0.645 1.439 -1.44 s -0.644 -1.44 -1.439 -1.44 z">
   </path>
</svg>