<?xml version="1.0" encoding="UTF-8" standalone="no"?>
<svg
   width="2200"
   zoomAndPan="magnify"
   viewBox="0 0 1650 1649.999929"
   height="2200"
   preserveAspectRatio="xMidYMid meet"
   version="1.0"
   id="svg8"
   sodipodi:docname="Loja.svg"
   inkscape:version="1.3.2 (091e20e, 2023-11-25, custom)"
   xmlns:inkscape="http://www.inkscape.org/namespaces/inkscape"
   xmlns:sodipodi="http://sodipodi.sourceforge.net/DTD/sodipodi-0.dtd"
   xmlns="http://www.w3.org/2000/svg"
   xmlns:svg="http://www.w3.org/2000/svg">
   <sodipodi:namedview
      id="namedview8"
      pagecolor="#ffffff"
      bordercolor="#000000"
      borderopacity="0.25"
      inkscape:showpageshadow="2"
      inkscape:pageopacity="0.0"
      inkscape:pagecheckerboard="0"
      inkscape:deskcolor="#d1d1d1"
      inkscape:zoom="0.26902199"
      inkscape:cx="1235.9584"
      inkscape:cy="1176.4838"
      inkscape:window-width="1920"
      inkscape:window-height="1051"
      inkscape:window-x="-9"
      inkscape:window-y="-9"
      inkscape:window-maximized="1"
      inkscape:current-layer="svg8" />
   <defs
      id="defs4">
      <clipPath
         id="91e152473b">
         <path
            d="M 809 787.640625 L 841 787.640625 L 841 817 L 809 817 Z M 809 787.640625 "
            clip-rule="nonzero"
            id="path1" />
      </clipPath>
      <clipPath
         id="24c5c6a039">
         <path
            d="M 791.421875 804.890625 L 791.421875 845.109375 C 791.421875 854.636719 799.148438 862.359375 808.671875 862.359375 L 841.328125 862.359375 C 850.851562 862.359375 858.578125 854.636719 858.578125 845.109375 L 858.578125 804.890625 C 858.578125 795.363281 850.851562 787.640625 841.328125 787.640625 L 808.671875 787.640625 C 799.148438 787.640625 791.421875 795.363281 791.421875 804.890625 Z M 791.421875 804.890625 "
            clip-rule="nonzero"
            id="path2" />
      </clipPath>
      <clipPath
         id="60584a66c6">
         <path
            d="M 791.421875 806 L 858.921875 806 L 858.921875 862.640625 L 791.421875 862.640625 Z M 791.421875 806 "
            clip-rule="nonzero"
            id="path3" />
      </clipPath>
      <clipPath
         id="3b150fb6a8">
         <path
            d="M 791.421875 804.890625 L 791.421875 845.109375 C 791.421875 854.636719 799.148438 862.359375 808.671875 862.359375 L 841.328125 862.359375 C 850.851562 862.359375 858.578125 854.636719 858.578125 845.109375 L 858.578125 804.890625 C 858.578125 795.363281 850.851562 787.640625 841.328125 787.640625 L 808.671875 787.640625 C 799.148438 787.640625 791.421875 795.363281 791.421875 804.890625 Z M 791.421875 804.890625 "
            clip-rule="nonzero"
            id="path4" />
      </clipPath>
   </defs>
   <g
      clip-path="url(#91e152473b)"
      id="g6"
      transform="matrix(21.036104,0,0,21.036104,-16534.709,-16525.485)">
      <g
         clip-path="url(#24c5c6a039)"
         id="g5">
         <path
            fill="#fad550"
            d="m 838.67187,816.64062 c -0.83984,0 -1.51953,-0.68359 -1.51953,-1.51953 v -12.15625 c 0,-6.69922 -5.45312,-12.15234 -12.15625,-12.15234 -6.69922,0 -12.15234,5.45312 -12.15234,12.15234 v 12.15625 c 0,0.83594 -0.67969,1.51953 -1.51953,1.51953 -0.83594,0 -1.51953,-0.68359 -1.51953,-1.51953 v -12.15625 c 0,-8.375 6.8164,-15.1914 15.1914,-15.1914 8.37891,0 15.19532,6.8164 15.19532,15.1914 v 12.15625 c 0,0.83594 -0.67969,1.51953 -1.51954,1.51953 z m 0,0"
            fill-opacity="1"
            fill-rule="nonzero"
            id="path5" />
      </g>
   </g>
   <g
      clip-path="url(#60584a66c6)"
      id="g8"
      transform="matrix(21.036104,0,0,21.036104,-16534.709,-16525.485)">
      <g
         clip-path="url(#3b150fb6a8)"
         id="g7">
         <path
            fill="#fad550"
            d="m 852.17969,806.00391 h -8.95313 v 9.11718 c 0,2.51563 -2.03906,4.55469 -4.55469,4.55469 -0.33984,0 -0.66406,-0.0391 -0.98046,-0.10937 -0.008,0 -0.0117,-0.004 -0.0156,-0.004 -2.03906,-0.45313 -3.5625,-2.26563 -3.5625,-4.44141 0,-2.51953 2.03906,-4.55859 4.55859,-4.55859 0.53516,0 1.03907,0.10937 1.51954,0.27734 v -4.83593 h -24.3086 v 9.11718 c 0,2.51563 -2.03906,4.55469 -4.55859,4.55469 -0.33594,0 -0.66406,-0.0391 -0.98047,-0.10937 0,0 -0.004,0 -0.008,-0.004 -2.04297,-0.45313 -3.57032,-2.26563 -3.57032,-4.44141 0,-2.51953 2.04297,-4.55859 4.5586,-4.55859 0.53906,0 1.04297,0.10937 1.51953,0.27734 v -4.83593 h -15.02734 l -6.42579,56.21093 h 67.21485 z m 0,0"
            fill-opacity="1"
            fill-rule="nonzero"
            id="path6" />
      </g>
   </g>
</svg>