<svg xmlns="http://www.w3.org/2000/svg" xmlns:xlink="http://www.w3.org/1999/xlink" width="2200" zoomAndPan="magnify" viewBox="0 0 1650 1649.999929" height="2200" preserveAspectRatio="xMidYMid meet" version="1.0"><defs><clipPath id="37a579ef65"><path d="M 460.074219 0 L 490.824219 0 L 490.824219 30.75 L 460.074219 30.75 Z M 460.074219 0 " clip-rule="nonzero"/></clipPath><clipPath id="51075653d7"><path d="M 0 19.976562 L 1636 19.976562 L 1636 1633.976562 L 0 1633.976562 Z M 0 19.976562 " clip-rule="nonzero"/></clipPath></defs><g clip-path="url(#37a579ef65)"><path fill="#fbb93e" d="M 472.164062 0 C 465.5 0 460.078125 5.421875 460.078125 12.085938 C 460.078125 18.773438 465.5 24.171875 472.164062 24.171875 C 474.585938 24.171875 476.867188 23.457031 478.761719 22.210938 L 486.140625 29.589844 C 486.671875 30.121094 487.386719 30.398438 488.101562 30.398438 C 488.816406 30.398438 489.53125 30.121094 490.0625 29.589844 C 491.144531 28.507812 491.144531 26.730469 490.0625 25.648438 L 482.613281 18.199219 C 483.671875 16.398438 484.273438 14.324219 484.273438 12.085938 C 484.273438 5.421875 478.851562 0 472.164062 0 Z M 472.164062 19.582031 C 468.058594 19.582031 464.691406 16.214844 464.691406 12.085938 C 464.691406 7.980469 468.058594 4.613281 472.164062 4.613281 C 476.292969 4.613281 479.636719 7.980469 479.636719 12.085938 C 479.660156 16.214844 476.292969 19.582031 472.164062 19.582031 Z M 472.164062 19.582031 " fill-opacity="1" fill-rule="nonzero"/></g><g clip-path="url(#51075653d7)"><path fill="#fbb93e" d="M 641.925781 19.976562 C 288.019531 19.976562 0.242188 307.753906 0.242188 661.660156 C 0.242188 1016.789062 288.019531 1303.339844 641.925781 1303.339844 C 770.507812 1303.339844 891.738281 1265.378906 992.15625 1199.25 L 1384.023438 1591.117188 C 1412.1875 1619.285156 1450.148438 1633.976562 1488.113281 1633.976562 C 1526.074219 1633.976562 1564.035156 1619.285156 1592.199219 1591.117188 C 1649.757812 1533.5625 1649.757812 1439.269531 1592.199219 1381.714844 L 1196.660156 986.175781 C 1252.992188 890.65625 1284.832031 780.445312 1284.832031 661.660156 C 1284.832031 307.753906 997.054688 19.976562 641.925781 19.976562 Z M 641.925781 1059.648438 C 423.949219 1059.648438 245.160156 880.859375 245.160156 661.660156 C 245.160156 443.683594 423.949219 264.894531 641.925781 264.894531 C 861.125 264.894531 1038.691406 443.683594 1038.691406 661.660156 C 1039.914062 880.859375 861.125 1059.648438 641.925781 1059.648438 Z M 641.925781 1059.648438 " fill-opacity="1" fill-rule="nonzero"/></g></svg>