<svg xmlns="http://www.w3.org/2000/svg" xmlns:xlink="http://www.w3.org/1999/xlink" width="2200" zoomAndPan="magnify" viewBox="0 0 1650 1649.999929" height="2200" preserveAspectRatio="xMidYMid meet" version="1.0"><path fill="#fbb93e" d="M 156.320312 100.257812 L 1461.0625 100.257812 C 1463.199219 100.257812 1465.332031 100.3125 1467.464844 100.417969 C 1469.597656 100.519531 1471.726562 100.679688 1473.851562 100.886719 C 1475.976562 101.097656 1478.097656 101.359375 1480.207031 101.671875 C 1482.320312 101.984375 1484.425781 102.351562 1486.519531 102.765625 C 1488.613281 103.183594 1490.695312 103.652344 1492.765625 104.167969 C 1494.835938 104.6875 1496.894531 105.257812 1498.9375 105.878906 C 1500.980469 106.496094 1503.007812 107.167969 1505.019531 107.886719 C 1507.03125 108.605469 1509.019531 109.375 1510.996094 110.191406 C 1512.96875 111.007812 1514.917969 111.875 1516.847656 112.785156 C 1518.777344 113.699219 1520.6875 114.660156 1522.570312 115.664062 C 1524.453125 116.671875 1526.308594 117.722656 1528.140625 118.820312 C 1529.972656 119.917969 1531.777344 121.0625 1533.550781 122.25 C 1535.328125 123.433594 1537.070312 124.664062 1538.789062 125.9375 C 1540.503906 127.207031 1542.183594 128.519531 1543.835938 129.875 C 1545.488281 131.230469 1547.101562 132.625 1548.683594 134.058594 C 1550.265625 135.492188 1551.8125 136.964844 1553.324219 138.472656 C 1554.832031 139.984375 1556.304688 141.53125 1557.738281 143.113281 C 1559.171875 144.695312 1560.566406 146.3125 1561.921875 147.960938 C 1563.277344 149.613281 1564.589844 151.296875 1565.863281 153.011719 C 1567.132812 154.726562 1568.363281 156.46875 1569.550781 158.246094 C 1570.734375 160.019531 1571.878906 161.824219 1572.976562 163.65625 C 1574.074219 165.488281 1575.125 167.34375 1576.132812 169.226562 C 1577.136719 171.113281 1578.097656 173.019531 1579.011719 174.949219 C 1579.925781 176.878906 1580.789062 178.832031 1581.605469 180.804688 C 1582.421875 182.777344 1583.191406 184.769531 1583.910156 186.777344 C 1584.628906 188.789062 1585.300781 190.816406 1585.921875 192.859375 C 1586.539062 194.902344 1587.109375 196.960938 1587.628906 199.03125 C 1588.148438 201.101562 1588.613281 203.183594 1589.03125 205.28125 C 1589.449219 207.375 1589.8125 209.476562 1590.125 211.589844 C 1590.441406 213.703125 1590.699219 215.820312 1590.910156 217.945312 C 1591.121094 220.070312 1591.277344 222.199219 1591.382812 224.332031 C 1591.484375 226.464844 1591.539062 228.597656 1591.539062 230.734375 C 1591.539062 232.867188 1591.484375 235.003906 1591.382812 237.136719 C 1591.277344 239.269531 1591.121094 241.398438 1590.910156 243.523438 C 1590.699219 245.648438 1590.441406 247.765625 1590.125 249.878906 C 1589.8125 251.992188 1589.449219 254.09375 1589.03125 256.1875 C 1588.613281 258.28125 1588.148438 260.363281 1587.628906 262.4375 C 1587.109375 264.507812 1586.539062 266.566406 1585.921875 268.609375 C 1585.300781 270.652344 1584.628906 272.679688 1583.910156 274.6875 C 1583.191406 276.699219 1582.421875 278.691406 1581.605469 280.664062 C 1580.789062 282.636719 1579.925781 284.589844 1579.011719 286.519531 C 1578.097656 288.449219 1577.136719 290.355469 1576.132812 292.238281 C 1575.125 294.121094 1574.074219 295.980469 1572.976562 297.8125 C 1571.878906 299.640625 1570.734375 301.445312 1569.550781 303.222656 C 1568.363281 304.996094 1567.132812 306.742188 1565.863281 308.457031 C 1564.589844 310.171875 1563.277344 311.855469 1561.921875 313.503906 C 1560.566406 315.15625 1559.171875 316.773438 1557.738281 318.355469 C 1556.304688 319.9375 1554.832031 321.484375 1553.324219 322.992188 C 1551.8125 324.503906 1550.265625 325.976562 1548.683594 327.410156 C 1547.101562 328.84375 1545.488281 330.238281 1543.835938 331.589844 C 1542.183594 332.945312 1540.503906 334.257812 1538.789062 335.53125 C 1537.070312 336.804688 1535.328125 338.03125 1533.550781 339.21875 C 1531.777344 340.40625 1529.972656 341.546875 1528.140625 342.644531 C 1526.308594 343.742188 1524.453125 344.796875 1522.570312 345.800781 C 1520.6875 346.808594 1518.777344 347.769531 1516.847656 348.679688 C 1514.917969 349.59375 1512.96875 350.460938 1510.996094 351.277344 C 1509.019531 352.09375 1507.03125 352.863281 1505.019531 353.582031 C 1503.007812 354.300781 1500.980469 354.96875 1498.9375 355.589844 C 1496.894531 356.210938 1494.839844 356.777344 1492.765625 357.296875 C 1490.695312 357.816406 1488.613281 358.285156 1486.519531 358.699219 C 1484.425781 359.117188 1482.320312 359.484375 1480.207031 359.796875 C 1478.097656 360.109375 1475.976562 360.371094 1473.851562 360.578125 C 1471.726562 360.789062 1469.597656 360.945312 1467.464844 361.050781 C 1465.332031 361.15625 1463.199219 361.207031 1461.0625 361.207031 L 156.320312 361.207031 C 154.183594 361.207031 152.050781 361.15625 149.917969 361.050781 C 147.785156 360.945312 145.65625 360.789062 143.53125 360.578125 C 141.40625 360.371094 139.289062 360.109375 137.175781 359.796875 C 135.0625 359.484375 132.960938 359.117188 130.867188 358.699219 C 128.773438 358.285156 126.6875 357.816406 124.617188 357.296875 C 122.546875 356.777344 120.488281 356.210938 118.445312 355.589844 C 116.402344 354.96875 114.375 354.300781 112.363281 353.582031 C 110.355469 352.863281 108.363281 352.09375 106.390625 351.277344 C 104.417969 350.460938 102.464844 349.59375 100.535156 348.679688 C 98.605469 347.769531 96.699219 346.808594 94.816406 345.800781 C 92.933594 344.796875 91.074219 343.742188 89.242188 342.644531 C 87.410156 341.546875 85.609375 340.40625 83.832031 339.21875 C 82.058594 338.03125 80.3125 336.804688 78.597656 335.53125 C 76.882812 334.257812 75.199219 332.945312 73.546875 331.589844 C 71.898438 330.238281 70.28125 328.84375 68.699219 327.410156 C 67.117188 325.976562 65.570312 324.503906 64.0625 322.992188 C 62.550781 321.484375 61.078125 319.9375 59.644531 318.355469 C 58.210938 316.773438 56.816406 315.15625 55.460938 313.503906 C 54.109375 311.855469 52.792969 310.171875 51.523438 308.457031 C 50.25 306.742188 49.019531 304.996094 47.835938 303.222656 C 46.648438 301.445312 45.507812 299.640625 44.410156 297.8125 C 43.3125 295.980469 42.257812 294.121094 41.253906 292.238281 C 40.246094 290.355469 39.285156 288.449219 38.371094 286.519531 C 37.460938 284.589844 36.59375 282.636719 35.777344 280.664062 C 34.960938 278.691406 34.191406 276.699219 33.472656 274.6875 C 32.753906 272.679688 32.082031 270.652344 31.464844 268.609375 C 30.84375 266.566406 30.273438 264.507812 29.757812 262.4375 C 29.238281 260.363281 28.769531 258.28125 28.351562 256.1875 C 27.9375 254.09375 27.570312 251.992188 27.257812 249.878906 C 26.945312 247.765625 26.683594 245.648438 26.472656 243.523438 C 26.265625 241.398438 26.109375 239.269531 26.003906 237.136719 C 25.898438 235.003906 25.847656 232.867188 25.847656 230.734375 C 25.847656 228.597656 25.898438 226.464844 26.003906 224.332031 C 26.109375 222.199219 26.265625 220.070312 26.472656 217.945312 C 26.683594 215.820312 26.945312 213.703125 27.257812 211.589844 C 27.570312 209.476562 27.9375 207.375 28.351562 205.28125 C 28.769531 203.183594 29.238281 201.101562 29.757812 199.03125 C 30.273438 196.960938 30.84375 194.902344 31.464844 192.859375 C 32.082031 190.816406 32.753906 188.789062 33.472656 186.777344 C 34.191406 184.769531 34.960938 182.777344 35.777344 180.804688 C 36.59375 178.832031 37.460938 176.878906 38.371094 174.949219 C 39.285156 173.019531 40.246094 171.113281 41.253906 169.226562 C 42.257812 167.34375 43.3125 165.488281 44.410156 163.65625 C 45.507812 161.824219 46.648438 160.019531 47.835938 158.246094 C 49.019531 156.46875 50.25 154.726562 51.523438 153.011719 C 52.792969 151.296875 54.109375 149.613281 55.460938 147.960938 C 56.816406 146.3125 58.210938 144.695312 59.644531 143.113281 C 61.078125 141.53125 62.550781 139.984375 64.0625 138.472656 C 65.570312 136.964844 67.117188 135.492188 68.699219 134.058594 C 70.28125 132.625 71.898438 131.230469 73.546875 129.875 C 75.199219 128.519531 76.882812 127.207031 78.597656 125.9375 C 80.3125 124.664062 82.058594 123.433594 83.832031 122.25 C 85.609375 121.0625 87.410156 119.917969 89.242188 118.820312 C 91.074219 117.722656 92.933594 116.671875 94.816406 115.664062 C 96.699219 114.660156 98.605469 113.699219 100.535156 112.785156 C 102.464844 111.875 104.417969 111.007812 106.390625 110.191406 C 108.363281 109.375 110.355469 108.605469 112.363281 107.886719 C 114.375 107.167969 116.402344 106.496094 118.445312 105.878906 C 120.488281 105.257812 122.546875 104.6875 124.617188 104.167969 C 126.6875 103.652344 128.773438 103.183594 130.867188 102.765625 C 132.960938 102.351562 135.0625 101.984375 137.175781 101.671875 C 139.289062 101.359375 141.40625 101.097656 143.53125 100.886719 C 145.65625 100.679688 147.785156 100.519531 149.917969 100.417969 C 152.050781 100.3125 154.183594 100.257812 156.320312 100.257812 Z M 156.320312 100.257812 " fill-opacity="1" fill-rule="nonzero"/><path fill="#fbb93e" d="M 156.320312 694.527344 L 1461.0625 694.527344 C 1463.199219 694.527344 1465.332031 694.578125 1467.464844 694.683594 C 1469.597656 694.789062 1471.726562 694.945312 1473.851562 695.152344 C 1475.976562 695.363281 1478.097656 695.625 1480.207031 695.9375 C 1482.320312 696.25 1484.425781 696.617188 1486.519531 697.03125 C 1488.613281 697.449219 1490.695312 697.917969 1492.765625 698.4375 C 1494.835938 698.953125 1496.894531 699.523438 1498.9375 700.144531 C 1500.980469 700.761719 1503.007812 701.433594 1505.019531 702.152344 C 1507.03125 702.871094 1509.019531 703.640625 1510.996094 704.457031 C 1512.96875 705.273438 1514.917969 706.140625 1516.847656 707.050781 C 1518.777344 707.964844 1520.6875 708.925781 1522.570312 709.933594 C 1524.453125 710.9375 1526.308594 711.992188 1528.140625 713.089844 C 1529.972656 714.1875 1531.777344 715.328125 1533.550781 716.515625 C 1535.328125 717.699219 1537.070312 718.929688 1538.789062 720.203125 C 1540.503906 721.472656 1542.183594 722.789062 1543.835938 724.140625 C 1545.488281 725.496094 1547.101562 726.890625 1548.683594 728.324219 C 1550.265625 729.757812 1551.8125 731.230469 1553.324219 732.742188 C 1554.832031 734.25 1556.304688 735.796875 1557.738281 737.378906 C 1559.171875 738.960938 1560.566406 740.578125 1561.921875 742.226562 C 1563.277344 743.878906 1564.589844 745.5625 1565.863281 747.277344 C 1567.132812 748.992188 1568.363281 750.738281 1569.550781 752.511719 C 1570.734375 754.289062 1571.878906 756.089844 1572.976562 757.921875 C 1574.074219 759.753906 1575.125 761.613281 1576.132812 763.496094 C 1577.136719 765.378906 1578.097656 767.285156 1579.011719 769.214844 C 1579.925781 771.144531 1580.789062 773.097656 1581.605469 775.070312 C 1582.421875 777.042969 1583.191406 779.035156 1583.910156 781.042969 C 1584.628906 783.054688 1585.300781 785.082031 1585.921875 787.125 C 1586.539062 789.167969 1587.109375 791.226562 1587.628906 793.296875 C 1588.148438 795.367188 1588.613281 797.453125 1589.03125 799.546875 C 1589.449219 801.640625 1589.8125 803.742188 1590.125 805.855469 C 1590.441406 807.96875 1590.699219 810.085938 1590.910156 812.210938 C 1591.121094 814.335938 1591.277344 816.464844 1591.382812 818.597656 C 1591.484375 820.730469 1591.539062 822.863281 1591.539062 825 C 1591.539062 827.136719 1591.484375 829.269531 1591.382812 831.402344 C 1591.277344 833.535156 1591.121094 835.664062 1590.910156 837.789062 C 1590.699219 839.914062 1590.441406 842.03125 1590.125 844.144531 C 1589.8125 846.257812 1589.449219 848.359375 1589.03125 850.453125 C 1588.613281 852.546875 1588.148438 854.632812 1587.628906 856.703125 C 1587.109375 858.773438 1586.539062 860.832031 1585.921875 862.875 C 1585.300781 864.917969 1584.628906 866.945312 1583.910156 868.957031 C 1583.191406 870.964844 1582.421875 872.957031 1581.605469 874.929688 C 1580.789062 876.902344 1579.925781 878.855469 1579.011719 880.785156 C 1578.097656 882.714844 1577.136719 884.621094 1576.132812 886.503906 C 1575.125 888.386719 1574.074219 890.246094 1572.976562 892.078125 C 1571.878906 893.910156 1570.734375 895.710938 1569.550781 897.488281 C 1568.363281 899.261719 1567.132812 901.007812 1565.863281 902.722656 C 1564.589844 904.4375 1563.277344 906.121094 1561.921875 907.773438 C 1560.566406 909.421875 1559.171875 911.039062 1557.738281 912.621094 C 1556.304688 914.203125 1554.832031 915.75 1553.324219 917.257812 C 1551.8125 918.769531 1550.265625 920.242188 1548.683594 921.675781 C 1547.101562 923.109375 1545.488281 924.503906 1543.835938 925.859375 C 1542.183594 927.210938 1540.503906 928.527344 1538.789062 929.796875 C 1537.070312 931.070312 1535.328125 932.300781 1533.550781 933.484375 C 1531.777344 934.671875 1529.972656 935.8125 1528.140625 936.910156 C 1526.308594 938.007812 1524.453125 939.0625 1522.570312 940.066406 C 1520.6875 941.074219 1518.777344 942.035156 1516.847656 942.949219 C 1514.917969 943.859375 1512.96875 944.726562 1510.996094 945.542969 C 1509.019531 946.359375 1507.03125 947.128906 1505.019531 947.847656 C 1503.007812 948.566406 1500.980469 949.238281 1498.9375 949.855469 C 1496.894531 950.476562 1494.839844 951.046875 1492.765625 951.5625 C 1490.695312 952.082031 1488.613281 952.550781 1486.519531 952.96875 C 1484.425781 953.382812 1482.320312 953.75 1480.207031 954.0625 C 1478.097656 954.375 1475.976562 954.636719 1473.851562 954.847656 C 1471.726562 955.054688 1469.597656 955.210938 1467.464844 955.316406 C 1465.332031 955.421875 1463.199219 955.472656 1461.0625 955.472656 L 156.320312 955.472656 C 154.183594 955.472656 152.050781 955.421875 149.917969 955.316406 C 147.785156 955.210938 145.65625 955.054688 143.53125 954.847656 C 141.40625 954.636719 139.289062 954.375 137.175781 954.0625 C 135.0625 953.75 132.960938 953.382812 130.867188 952.96875 C 128.773438 952.550781 126.6875 952.082031 124.617188 951.5625 C 122.546875 951.046875 120.488281 950.476562 118.445312 949.855469 C 116.402344 949.238281 114.375 948.566406 112.363281 947.847656 C 110.355469 947.128906 108.363281 946.359375 106.390625 945.542969 C 104.417969 944.726562 102.464844 943.859375 100.535156 942.949219 C 98.605469 942.035156 96.699219 941.074219 94.816406 940.066406 C 92.933594 939.0625 91.074219 938.007812 89.242188 936.910156 C 87.410156 935.8125 85.609375 934.671875 83.832031 933.484375 C 82.058594 932.300781 80.3125 931.070312 78.597656 929.796875 C 76.882812 928.527344 75.199219 927.210938 73.546875 925.859375 C 71.898438 924.503906 70.28125 923.109375 68.699219 921.675781 C 67.117188 920.242188 65.570312 918.769531 64.0625 917.257812 C 62.550781 915.75 61.078125 914.203125 59.644531 912.621094 C 58.210938 911.039062 56.816406 909.421875 55.460938 907.773438 C 54.109375 906.121094 52.792969 904.4375 51.523438 902.722656 C 50.25 901.007812 49.019531 899.261719 47.835938 897.488281 C 46.648438 895.710938 45.507812 893.910156 44.410156 892.078125 C 43.3125 890.246094 42.257812 888.386719 41.253906 886.503906 C 40.246094 884.621094 39.285156 882.714844 38.371094 880.785156 C 37.460938 878.855469 36.59375 876.902344 35.777344 874.929688 C 34.960938 872.957031 34.191406 870.964844 33.472656 868.957031 C 32.753906 866.945312 32.082031 864.917969 31.464844 862.875 C 30.84375 860.832031 30.273438 858.773438 29.757812 856.703125 C 29.238281 854.632812 28.769531 852.546875 28.351562 850.453125 C 27.9375 848.359375 27.570312 846.257812 27.257812 844.144531 C 26.945312 842.03125 26.683594 839.914062 26.472656 837.789062 C 26.265625 835.664062 26.109375 833.535156 26.003906 831.402344 C 25.898438 829.269531 25.847656 827.136719 25.847656 825 C 25.847656 822.863281 25.898438 820.730469 26.003906 818.597656 C 26.109375 816.464844 26.265625 814.335938 26.472656 812.210938 C 26.683594 810.085938 26.945312 807.96875 27.257812 805.855469 C 27.570312 803.742188 27.9375 801.640625 28.351562 799.546875 C 28.769531 797.453125 29.238281 795.367188 29.757812 793.296875 C 30.273438 791.226562 30.84375 789.167969 31.464844 787.125 C 32.082031 785.082031 32.753906 783.054688 33.472656 781.042969 C 34.191406 779.035156 34.960938 777.042969 35.777344 775.070312 C 36.59375 773.097656 37.460938 771.144531 38.371094 769.214844 C 39.285156 767.285156 40.246094 765.378906 41.253906 763.496094 C 42.257812 761.613281 43.3125 759.753906 44.410156 757.921875 C 45.507812 756.089844 46.648438 754.289062 47.835938 752.511719 C 49.019531 750.738281 50.25 748.992188 51.523438 747.277344 C 52.792969 745.5625 54.109375 743.878906 55.460938 742.226562 C 56.816406 740.578125 58.210938 738.960938 59.644531 737.378906 C 61.078125 735.796875 62.550781 734.25 64.0625 732.742188 C 65.570312 731.230469 67.117188 729.757812 68.699219 728.324219 C 70.28125 726.890625 71.898438 725.496094 73.546875 724.140625 C 75.199219 722.789062 76.882812 721.472656 78.597656 720.203125 C 80.3125 718.929688 82.058594 717.699219 83.832031 716.515625 C 85.609375 715.328125 87.410156 714.1875 89.242188 713.089844 C 91.074219 711.992188 92.933594 710.9375 94.816406 709.933594 C 96.699219 708.925781 98.605469 707.964844 100.535156 707.050781 C 102.464844 706.140625 104.417969 705.273438 106.390625 704.457031 C 108.363281 703.640625 110.355469 702.871094 112.363281 702.152344 C 114.375 701.433594 116.402344 700.761719 118.445312 700.144531 C 120.488281 699.523438 122.546875 698.953125 124.617188 698.4375 C 126.6875 697.917969 128.773438 697.449219 130.867188 697.03125 C 132.960938 696.617188 135.0625 696.25 137.175781 695.9375 C 139.289062 695.625 141.40625 695.363281 143.53125 695.152344 C 145.65625 694.945312 147.785156 694.789062 149.917969 694.683594 C 152.050781 694.578125 154.183594 694.527344 156.320312 694.527344 Z M 156.320312 694.527344 " fill-opacity="1" fill-rule="nonzero"/><path fill="#fbb93e" d="M 156.320312 1288.792969 L 1461.0625 1288.792969 C 1463.199219 1288.792969 1465.332031 1288.84375 1467.464844 1288.949219 C 1469.597656 1289.054688 1471.726562 1289.210938 1473.851562 1289.421875 C 1475.976562 1289.628906 1478.097656 1289.890625 1480.207031 1290.203125 C 1482.320312 1290.515625 1484.425781 1290.882812 1486.519531 1291.296875 C 1488.613281 1291.714844 1490.695312 1292.183594 1492.765625 1292.703125 C 1494.835938 1293.222656 1496.894531 1293.789062 1498.9375 1294.410156 C 1500.980469 1295.03125 1503.007812 1295.699219 1505.019531 1296.417969 C 1507.03125 1297.136719 1509.019531 1297.90625 1510.996094 1298.722656 C 1512.96875 1299.539062 1514.917969 1300.40625 1516.847656 1301.320312 C 1518.777344 1302.230469 1520.6875 1303.191406 1522.570312 1304.199219 C 1524.453125 1305.203125 1526.308594 1306.257812 1528.140625 1307.355469 C 1529.972656 1308.453125 1531.777344 1309.59375 1533.550781 1310.78125 C 1535.328125 1311.96875 1537.070312 1313.195312 1538.789062 1314.46875 C 1540.503906 1315.738281 1542.183594 1317.054688 1543.835938 1318.40625 C 1545.488281 1319.761719 1547.101562 1321.15625 1548.683594 1322.589844 C 1550.265625 1324.023438 1551.8125 1325.496094 1553.324219 1327.007812 C 1554.832031 1328.515625 1556.304688 1330.0625 1557.738281 1331.644531 C 1559.171875 1333.226562 1560.566406 1334.84375 1561.921875 1336.492188 C 1563.277344 1338.144531 1564.589844 1339.828125 1565.863281 1341.542969 C 1567.132812 1343.257812 1568.363281 1345.003906 1569.550781 1346.777344 C 1570.734375 1348.554688 1571.878906 1350.355469 1572.976562 1352.1875 C 1574.074219 1354.019531 1575.125 1355.878906 1576.132812 1357.761719 C 1577.136719 1359.644531 1578.097656 1361.550781 1579.011719 1363.480469 C 1579.925781 1365.410156 1580.789062 1367.363281 1581.605469 1369.335938 C 1582.421875 1371.308594 1583.191406 1373.300781 1583.910156 1375.3125 C 1584.628906 1377.320312 1585.300781 1379.347656 1585.921875 1381.390625 C 1586.539062 1383.433594 1587.109375 1385.492188 1587.628906 1387.5625 C 1588.148438 1389.636719 1588.613281 1391.71875 1589.03125 1393.8125 C 1589.449219 1395.90625 1589.8125 1398.007812 1590.125 1400.121094 C 1590.441406 1402.234375 1590.699219 1404.351562 1590.910156 1406.476562 C 1591.121094 1408.601562 1591.277344 1410.730469 1591.382812 1412.863281 C 1591.484375 1414.996094 1591.539062 1417.128906 1591.539062 1419.265625 C 1591.539062 1421.402344 1591.484375 1423.535156 1591.382812 1425.667969 C 1591.277344 1427.800781 1591.121094 1429.929688 1590.910156 1432.054688 C 1590.699219 1434.179688 1590.441406 1436.296875 1590.125 1438.410156 C 1589.8125 1440.523438 1589.449219 1442.625 1589.03125 1444.71875 C 1588.613281 1446.816406 1588.148438 1448.898438 1587.628906 1450.96875 C 1587.109375 1453.039062 1586.539062 1455.097656 1585.921875 1457.140625 C 1585.300781 1459.183594 1584.628906 1461.210938 1583.910156 1463.222656 C 1583.191406 1465.230469 1582.421875 1467.222656 1581.605469 1469.195312 C 1580.789062 1471.167969 1579.925781 1473.121094 1579.011719 1475.050781 C 1578.097656 1476.980469 1577.136719 1478.886719 1576.132812 1480.769531 C 1575.125 1482.65625 1574.074219 1484.511719 1572.976562 1486.34375 C 1571.878906 1488.175781 1570.734375 1489.976562 1569.550781 1491.753906 C 1568.363281 1493.527344 1567.132812 1495.273438 1565.863281 1496.988281 C 1564.589844 1498.703125 1563.277344 1500.386719 1561.921875 1502.039062 C 1560.566406 1503.6875 1559.171875 1505.304688 1557.738281 1506.886719 C 1556.304688 1508.46875 1554.832031 1510.015625 1553.324219 1511.527344 C 1551.8125 1513.035156 1550.265625 1514.507812 1548.683594 1515.941406 C 1547.101562 1517.375 1545.488281 1518.769531 1543.835938 1520.125 C 1542.183594 1521.480469 1540.503906 1522.792969 1538.789062 1524.0625 C 1537.070312 1525.335938 1535.328125 1526.566406 1533.550781 1527.75 C 1531.777344 1528.9375 1529.972656 1530.078125 1528.140625 1531.179688 C 1526.308594 1532.277344 1524.453125 1533.328125 1522.570312 1534.335938 C 1520.6875 1535.339844 1518.777344 1536.300781 1516.847656 1537.214844 C 1514.917969 1538.125 1512.96875 1538.992188 1510.996094 1539.808594 C 1509.019531 1540.625 1507.03125 1541.394531 1505.019531 1542.113281 C 1503.007812 1542.832031 1500.980469 1543.503906 1498.9375 1544.121094 C 1496.894531 1544.742188 1494.839844 1545.3125 1492.765625 1545.832031 C 1490.695312 1546.347656 1488.613281 1546.816406 1486.519531 1547.234375 C 1484.425781 1547.648438 1482.320312 1548.015625 1480.207031 1548.328125 C 1478.097656 1548.640625 1475.976562 1548.902344 1473.851562 1549.113281 C 1471.726562 1549.320312 1469.597656 1549.480469 1467.464844 1549.582031 C 1465.332031 1549.6875 1463.199219 1549.742188 1461.0625 1549.742188 L 156.320312 1549.742188 C 154.183594 1549.742188 152.050781 1549.6875 149.917969 1549.582031 C 147.785156 1549.480469 145.65625 1549.320312 143.53125 1549.113281 C 141.40625 1548.902344 139.289062 1548.640625 137.175781 1548.328125 C 135.0625 1548.015625 132.960938 1547.648438 130.867188 1547.234375 C 128.773438 1546.816406 126.6875 1546.347656 124.617188 1545.832031 C 122.546875 1545.3125 120.488281 1544.742188 118.445312 1544.121094 C 116.402344 1543.503906 114.375 1542.832031 112.363281 1542.113281 C 110.355469 1541.394531 108.363281 1540.625 106.390625 1539.808594 C 104.417969 1538.992188 102.464844 1538.125 100.535156 1537.214844 C 98.605469 1536.300781 96.699219 1535.339844 94.816406 1534.335938 C 92.933594 1533.328125 91.074219 1532.277344 89.242188 1531.179688 C 87.410156 1530.078125 85.609375 1528.9375 83.832031 1527.75 C 82.058594 1526.566406 80.3125 1525.335938 78.597656 1524.0625 C 76.882812 1522.792969 75.199219 1521.480469 73.546875 1520.125 C 71.898438 1518.769531 70.28125 1517.375 68.699219 1515.941406 C 67.117188 1514.507812 65.570312 1513.035156 64.0625 1511.527344 C 62.550781 1510.015625 61.078125 1508.46875 59.644531 1506.886719 C 58.210938 1505.304688 56.816406 1503.6875 55.460938 1502.039062 C 54.109375 1500.386719 52.792969 1498.703125 51.523438 1496.988281 C 50.25 1495.273438 49.019531 1493.527344 47.835938 1491.753906 C 46.648438 1489.976562 45.507812 1488.175781 44.410156 1486.34375 C 43.3125 1484.511719 42.257812 1482.65625 41.253906 1480.769531 C 40.246094 1478.886719 39.285156 1476.980469 38.371094 1475.050781 C 37.460938 1473.121094 36.59375 1471.167969 35.777344 1469.195312 C 34.960938 1467.222656 34.191406 1465.230469 33.472656 1463.222656 C 32.753906 1461.210938 32.082031 1459.183594 31.464844 1457.140625 C 30.84375 1455.097656 30.273438 1453.039062 29.757812 1450.96875 C 29.238281 1448.898438 28.769531 1446.816406 28.351562 1444.71875 C 27.9375 1442.625 27.570312 1440.523438 27.257812 1438.410156 C 26.945312 1436.296875 26.683594 1434.179688 26.472656 1432.054688 C 26.265625 1429.929688 26.109375 1427.800781 26.003906 1425.667969 C 25.898438 1423.535156 25.847656 1421.402344 25.847656 1419.265625 C 25.847656 1417.128906 25.898438 1414.996094 26.003906 1412.863281 C 26.109375 1410.730469 26.265625 1408.601562 26.472656 1406.476562 C 26.683594 1404.351562 26.945312 1402.234375 27.257812 1400.121094 C 27.570312 1398.007812 27.9375 1395.90625 28.351562 1393.8125 C 28.769531 1391.71875 29.238281 1389.636719 29.757812 1387.5625 C 30.273438 1385.492188 30.84375 1383.433594 31.464844 1381.390625 C 32.082031 1379.347656 32.753906 1377.320312 33.472656 1375.3125 C 34.191406 1373.300781 34.960938 1371.308594 35.777344 1369.335938 C 36.59375 1367.363281 37.460938 1365.410156 38.371094 1363.480469 C 39.285156 1361.550781 40.246094 1359.644531 41.253906 1357.761719 C 42.257812 1355.878906 43.3125 1354.019531 44.410156 1352.1875 C 45.507812 1350.355469 46.648438 1348.554688 47.835938 1346.777344 C 49.019531 1345.003906 50.25 1343.257812 51.523438 1341.542969 C 52.792969 1339.828125 54.109375 1338.144531 55.460938 1336.492188 C 56.816406 1334.84375 58.210938 1333.226562 59.644531 1331.644531 C 61.078125 1330.0625 62.550781 1328.515625 64.0625 1327.007812 C 65.570312 1325.496094 67.117188 1324.023438 68.699219 1322.589844 C 70.28125 1321.15625 71.898438 1319.761719 73.546875 1318.40625 C 75.199219 1317.054688 76.882812 1315.738281 78.597656 1314.46875 C 80.3125 1313.195312 82.058594 1311.96875 83.832031 1310.78125 C 85.609375 1309.59375 87.410156 1308.453125 89.242188 1307.355469 C 91.074219 1306.257812 92.933594 1305.203125 94.816406 1304.199219 C 96.699219 1303.191406 98.605469 1302.230469 100.535156 1301.320312 C 102.464844 1300.40625 104.417969 1299.539062 106.390625 1298.722656 C 108.363281 1297.90625 110.355469 1297.136719 112.363281 1296.417969 C 114.375 1295.699219 116.402344 1295.03125 118.445312 1294.410156 C 120.488281 1293.789062 122.546875 1293.222656 124.617188 1292.703125 C 126.6875 1292.183594 128.773438 1291.714844 130.867188 1291.296875 C 132.960938 1290.882812 135.0625 1290.515625 137.175781 1290.203125 C 139.289062 1289.890625 141.40625 1289.628906 143.53125 1289.421875 C 145.65625 1289.210938 147.785156 1289.054688 149.917969 1288.949219 C 152.050781 1288.84375 154.183594 1288.792969 156.320312 1288.792969 Z M 156.320312 1288.792969 " fill-opacity="1" fill-rule="nonzero"/></svg>