<?xml version="1.0" encoding="UTF-8" standalone="no"?>
<svg
   width="2200"
   zoomAndPan="magnify"
   viewBox="0 0 1650 1649.999929"
   height="2200"
   preserveAspectRatio="xMidYMid meet"
   version="1.0"
   id="svg36"
   sodipodi:docname="Reviews.svg"
   inkscape:version="1.3.2 (091e20e, 2023-11-25, custom)"
   xmlns:inkscape="http://www.inkscape.org/namespaces/inkscape"
   xmlns:sodipodi="http://sodipodi.sourceforge.net/DTD/sodipodi-0.dtd"
   xmlns="http://www.w3.org/2000/svg"
   xmlns:svg="http://www.w3.org/2000/svg">
  <sodipodi:namedview
     id="namedview36"
     pagecolor="#ffffff"
     bordercolor="#000000"
     borderopacity="0.25"
     inkscape:showpageshadow="2"
     inkscape:pageopacity="0.0"
     inkscape:pagecheckerboard="0"
     inkscape:deskcolor="#d1d1d1"
     inkscape:zoom="0.19022727"
     inkscape:cx="-123.53644"
     inkscape:cy="1075.0299"
     inkscape:window-width="1920"
     inkscape:window-height="1051"
     inkscape:window-x="-9"
     inkscape:window-y="-9"
     inkscape:window-maximized="1"
     inkscape:current-layer="svg36" />
  <defs
     id="defs18">
    <clipPath
       id="1db42c4b58">
      <path
         d="M 852 789.714844 L 867.921875 789.714844 L 867.921875 805 L 852 805 Z M 852 789.714844 "
         clip-rule="nonzero"
         id="path1" />
    </clipPath>
    <clipPath
       id="8015093703">
      <path
         d="M 782.421875 803.964844 L 782.421875 846.035156 C 782.421875 853.90625 788.804688 860.285156 796.671875 860.285156 L 853.328125 860.285156 C 861.195312 860.285156 867.578125 853.90625 867.578125 846.035156 L 867.578125 803.964844 C 867.578125 796.09375 861.195312 789.714844 853.328125 789.714844 L 796.671875 789.714844 C 788.804688 789.714844 782.421875 796.09375 782.421875 803.964844 Z M 782.421875 803.964844 "
         clip-rule="nonzero"
         id="path2" />
    </clipPath>
    <clipPath
       id="10a54fb118">
      <path
         d="M 782.421875 789.714844 L 851 789.714844 L 851 805 L 782.421875 805 Z M 782.421875 789.714844 "
         clip-rule="nonzero"
         id="path3" />
    </clipPath>
    <clipPath
       id="83b3154145">
      <path
         d="M 782.421875 803.964844 L 782.421875 846.035156 C 782.421875 853.90625 788.804688 860.285156 796.671875 860.285156 L 853.328125 860.285156 C 861.195312 860.285156 867.578125 853.90625 867.578125 846.035156 L 867.578125 803.964844 C 867.578125 796.09375 861.195312 789.714844 853.328125 789.714844 L 796.671875 789.714844 C 788.804688 789.714844 782.421875 796.09375 782.421875 803.964844 Z M 782.421875 803.964844 "
         clip-rule="nonzero"
         id="path4" />
    </clipPath>
    <clipPath
       id="e8e41d75c7">
      <path
         d="M 807 810 L 843 810 L 843 828 L 807 828 Z M 807 810 "
         clip-rule="nonzero"
         id="path5" />
    </clipPath>
    <clipPath
       id="bf00627b95">
      <path
         d="M 782.421875 803.964844 L 782.421875 846.035156 C 782.421875 853.90625 788.804688 860.285156 796.671875 860.285156 L 853.328125 860.285156 C 861.195312 860.285156 867.578125 853.90625 867.578125 846.035156 L 867.578125 803.964844 C 867.578125 796.09375 861.195312 789.714844 853.328125 789.714844 L 796.671875 789.714844 C 788.804688 789.714844 782.421875 796.09375 782.421875 803.964844 Z M 782.421875 803.964844 "
         clip-rule="nonzero"
         id="path6" />
    </clipPath>
    <clipPath
       id="606456ca68">
      <path
         d="M 809 834 L 841 834 L 841 839 L 809 839 Z M 809 834 "
         clip-rule="nonzero"
         id="path7" />
    </clipPath>
    <clipPath
       id="99a12a8e7c">
      <path
         d="M 782.421875 803.964844 L 782.421875 846.035156 C 782.421875 853.90625 788.804688 860.285156 796.671875 860.285156 L 853.328125 860.285156 C 861.195312 860.285156 867.578125 853.90625 867.578125 846.035156 L 867.578125 803.964844 C 867.578125 796.09375 861.195312 789.714844 853.328125 789.714844 L 796.671875 789.714844 C 788.804688 789.714844 782.421875 796.09375 782.421875 803.964844 Z M 782.421875 803.964844 "
         clip-rule="nonzero"
         id="path8" />
    </clipPath>
    <clipPath
       id="525bb5aa0f">
      <path
         d="M 804 829 L 846 829 L 846 833 L 804 833 Z M 804 829 "
         clip-rule="nonzero"
         id="path9" />
    </clipPath>
    <clipPath
       id="7c61f2fc15">
      <path
         d="M 782.421875 803.964844 L 782.421875 846.035156 C 782.421875 853.90625 788.804688 860.285156 796.671875 860.285156 L 853.328125 860.285156 C 861.195312 860.285156 867.578125 853.90625 867.578125 846.035156 L 867.578125 803.964844 C 867.578125 796.09375 861.195312 789.714844 853.328125 789.714844 L 796.671875 789.714844 C 788.804688 789.714844 782.421875 796.09375 782.421875 803.964844 Z M 782.421875 803.964844 "
         clip-rule="nonzero"
         id="path10" />
    </clipPath>
    <clipPath
       id="0b90419ead">
      <path
         d="M 782.421875 806 L 867.921875 806 L 867.921875 860.214844 L 782.421875 860.214844 Z M 782.421875 806 "
         clip-rule="nonzero"
         id="path11" />
    </clipPath>
    <clipPath
       id="dfccbedd8d">
      <path
         d="M 782.421875 803.964844 L 782.421875 846.035156 C 782.421875 853.90625 788.804688 860.285156 796.671875 860.285156 L 853.328125 860.285156 C 861.195312 860.285156 867.578125 853.90625 867.578125 846.035156 L 867.578125 803.964844 C 867.578125 796.09375 861.195312 789.714844 853.328125 789.714844 L 796.671875 789.714844 C 788.804688 789.714844 782.421875 796.09375 782.421875 803.964844 Z M 782.421875 803.964844 "
         clip-rule="nonzero"
         id="path12" />
    </clipPath>
    <clipPath
       id="21d44b3d5c">
      <path
         d="M 811 793 L 818 793 L 818 801 L 811 801 Z M 811 793 "
         clip-rule="nonzero"
         id="path13" />
    </clipPath>
    <clipPath
       id="977a85797e">
      <path
         d="M 782.421875 803.964844 L 782.421875 846.035156 C 782.421875 853.90625 788.804688 860.285156 796.671875 860.285156 L 853.328125 860.285156 C 861.195312 860.285156 867.578125 853.90625 867.578125 846.035156 L 867.578125 803.964844 C 867.578125 796.09375 861.195312 789.714844 853.328125 789.714844 L 796.671875 789.714844 C 788.804688 789.714844 782.421875 796.09375 782.421875 803.964844 Z M 782.421875 803.964844 "
         clip-rule="nonzero"
         id="path14" />
    </clipPath>
    <clipPath
       id="abb5bad484">
      <path
         d="M 799 793 L 807 793 L 807 801 L 799 801 Z M 799 793 "
         clip-rule="nonzero"
         id="path15" />
    </clipPath>
    <clipPath
       id="27e634cf9f">
      <path
         d="M 782.421875 803.964844 L 782.421875 846.035156 C 782.421875 853.90625 788.804688 860.285156 796.671875 860.285156 L 853.328125 860.285156 C 861.195312 860.285156 867.578125 853.90625 867.578125 846.035156 L 867.578125 803.964844 C 867.578125 796.09375 861.195312 789.714844 853.328125 789.714844 L 796.671875 789.714844 C 788.804688 789.714844 782.421875 796.09375 782.421875 803.964844 Z M 782.421875 803.964844 "
         clip-rule="nonzero"
         id="path16" />
    </clipPath>
    <clipPath
       id="76de064199">
      <path
         d="M 788 793 L 795 793 L 795 801 L 788 801 Z M 788 793 "
         clip-rule="nonzero"
         id="path17" />
    </clipPath>
    <clipPath
       id="098aa4d66b">
      <path
         d="M 782.421875 803.964844 L 782.421875 846.035156 C 782.421875 853.90625 788.804688 860.285156 796.671875 860.285156 L 853.328125 860.285156 C 861.195312 860.285156 867.578125 853.90625 867.578125 846.035156 L 867.578125 803.964844 C 867.578125 796.09375 861.195312 789.714844 853.328125 789.714844 L 796.671875 789.714844 C 788.804688 789.714844 782.421875 796.09375 782.421875 803.964844 Z M 782.421875 803.964844 "
         clip-rule="nonzero"
         id="path18" />
    </clipPath>
  </defs>
  <g
     clip-path="url(#1db42c4b58)"
     id="g20"
     transform="matrix(18.817356,0,0,18.817356,-14698.14,-14693.409)">
    <g
       clip-path="url(#8015093703)"
       id="g19">
      <path
         fill="#fad550"
         d="m 852.58984,789.72266 v 14.875 h 14.97266 v -12.13282 c 0,-1.51172 -1.23047,-2.74218 -2.74219,-2.74218 z m 0,0"
         fill-opacity="1"
         fill-rule="evenodd"
         id="path19" />
    </g>
  </g>
  <g
     clip-path="url(#10a54fb118)"
     id="g22"
     transform="matrix(18.817356,0,0,18.817356,-14698.14,-14693.409)">
    <g
       clip-path="url(#83b3154145)"
       id="g21">
      <path
         fill="#fad550"
         d="m 819.74219,797.16016 c 0,2.90234 -2.36328,5.26953 -5.26953,5.26953 -2.90625,0 -5.26954,-2.36719 -5.26954,-5.26953 0,-2.91016 2.36329,-5.27344 5.26954,-5.27344 2.90625,0 5.26953,2.36719 5.26953,5.27344 z m -11.5586,0 c 0,2.90234 -2.36718,5.26953 -5.26953,5.26953 -2.91015,0 -5.27344,-2.36719 -5.27344,-5.26953 0,-2.91016 2.36719,-5.27344 5.27344,-5.27344 2.90235,0 5.26953,2.36719 5.26953,5.27344 z m -11.5625,0 c 0,2.90234 -2.36328,5.26953 -5.26953,5.26953 -2.90625,0 -5.26953,-2.36719 -5.26953,-5.26953 0,-2.91016 2.36328,-5.27344 5.26953,-5.27344 2.90625,0 5.26953,2.36719 5.26953,5.27344 z m -14.20703,-4.69532 v 12.13282 h 68.15625 v -14.875 h -65.41015 c -1.51563,0 -2.7461,1.23046 -2.7461,2.74218 z m 0,0"
         fill-opacity="1"
         fill-rule="evenodd"
         id="path20" />
    </g>
  </g>
  <g
     clip-path="url(#e8e41d75c7)"
     id="g24"
     transform="matrix(18.817356,0,0,18.817356,-14698.14,-14693.409)">
    <g
       clip-path="url(#bf00627b95)"
       id="g23">
      <path
         fill="#fad550"
         d="m 824.98828,810.88672 c -9.50391,0 -17.28906,7.46484 -17.82031,16.83984 h 35.64062 c -0.52343,-9.375 -8.3164,-16.83984 -17.82031,-16.83984 z m 11.30469,9.6875 c -0.32031,0 -0.63281,-0.15235 -0.82813,-0.42969 -2.37109,-3.39062 -6.25781,-5.41406 -10.38672,-5.41406 -0.55859,0 -1.00781,-0.45313 -1.00781,-1.01172 0,-0.55859 0.44922,-1.00781 1.00781,-1.00781 4.78907,0 9.28907,2.34375 12.03907,6.27343 0.32031,0.45704 0.20703,1.08594 -0.25,1.40625 -0.17188,0.1211 -0.375,0.1836 -0.57422,0.1836 z m 0,0"
         fill-opacity="1"
         fill-rule="evenodd"
         id="path22" />
    </g>
  </g>
  <g
     clip-path="url(#606456ca68)"
     id="g26"
     transform="matrix(18.817356,0,0,18.817356,-14698.14,-14693.409)">
    <g
       clip-path="url(#99a12a8e7c)"
       id="g25">
      <path
         fill="#fad550"
         d="m 840.57031,834.875 h -31.16015 c 0.45703,1.89453 2.16406,3.30859 4.19921,3.30859 h 22.76172 c 2.03516,0 3.7461,-1.41406 4.19922,-3.30859 z m 0,0"
         fill-opacity="1"
         fill-rule="evenodd"
         id="path24" />
    </g>
  </g>
  <g
     clip-path="url(#525bb5aa0f)"
     id="g28"
     transform="matrix(18.817356,0,0,18.817356,-14698.14,-14693.409)">
    <g
       clip-path="url(#7c61f2fc15)"
       id="g27">
      <path
         fill="#fad550"
         d="m 843.54687,829.74219 h -37.11328 c -0.85547,0 -1.55468,0.69922 -1.55468,1.55859 0,0.85547 0.69921,1.55469 1.55468,1.55469 h 37.11328 c 0.85547,0 1.55469,-0.69922 1.55469,-1.55469 0,-0.85937 -0.69922,-1.55859 -1.55469,-1.55859 z m 0,0"
         fill-opacity="1"
         fill-rule="evenodd"
         id="path26" />
    </g>
  </g>
  <g
     clip-path="url(#0b90419ead)"
     id="g30"
     transform="matrix(18.817356,0,0,18.817356,-14698.14,-14693.409)">
    <g
       clip-path="url(#dfccbedd8d)"
       id="g29">
      <path
         fill="#fad550"
         d="m 824.99219,808.86719 c 10.69922,0 19.44531,8.5039 19.85156,19.10156 1.33203,0.52344 2.27734,1.81641 2.27734,3.33203 0,1.97266 -1.60156,3.57422 -3.57422,3.57422 H 842.625 c -0.48438,3.01562 -3.10547,5.32812 -6.25391,5.32812 h -22.76172 c -3.14843,0 -5.76953,-2.3125 -6.2539,-5.32812 h -0.92188 c -1.96875,0 -3.57422,-1.60156 -3.57422,-3.57422 0,-1.51172 0.94922,-2.80859 2.28125,-3.33203 0.40235,-10.60156 9.15235,-19.10156 19.85157,-19.10156 z m 26.58593,-2.25391 h -69.16406 v 50.91797 c 0,1.51172 1.23047,2.74219 2.7461,2.74219 h 79.65625 c 1.51562,0 2.74609,-1.23047 2.74609,-2.74219 v -50.91797 z m -58.40625,38.00391 h 63.63282 c 0.55859,0 1.01172,0.45312 1.01172,1.00781 0,0.55859 -0.45313,1.01172 -1.01172,1.01172 h -63.63282 c -0.55468,0 -1.00781,-0.45313 -1.00781,-1.01172 0.004,-0.55469 0.45313,-1.00781 1.00781,-1.00781 z m 0,8.9375 h 63.63282 c 0.55859,0 1.01172,0.44922 1.01172,1.00781 0,0.55859 -0.45313,1.00781 -1.01172,1.00781 h -63.63282 c -0.55468,0 -1.00781,-0.44922 -1.00781,-1.00781 0.004,-0.55469 0.45313,-1.00781 1.00781,-1.00781 z m 0,0"
         fill-opacity="1"
         fill-rule="evenodd"
         id="path28" />
    </g>
  </g>
  <g
     clip-path="url(#21d44b3d5c)"
     id="g32"
     transform="matrix(18.817356,0,0,18.817356,-14698.14,-14693.409)">
    <g
       clip-path="url(#977a85797e)"
       id="g31">
      <path
         fill="#fad550"
         d="m 811.21875,797.15625 c 0,1.79297 1.46094,3.25391 3.25391,3.25391 1.79296,0 3.25,-1.46094 3.25,-3.25391 0,-1.79297 -1.45704,-3.25 -3.25,-3.25 -1.79297,0 -3.25391,1.45703 -3.25391,3.25 z m 0,0"
         fill-opacity="1"
         fill-rule="evenodd"
         id="path30" />
    </g>
  </g>
  <g
     clip-path="url(#abb5bad484)"
     id="g34"
     transform="matrix(18.817356,0,0,18.817356,-14698.14,-14693.409)">
    <g
       clip-path="url(#27e634cf9f)"
       id="g33">
      <path
         fill="#fad550"
         d="m 799.66016,797.15625 c 0,1.79297 1.45703,3.25391 3.2539,3.25391 1.79297,0 3.25,-1.46094 3.25,-3.25391 0,-1.79297 -1.45703,-3.25 -3.25,-3.25 -1.79687,0 -3.2539,1.45703 -3.2539,3.25 z m 0,0"
         fill-opacity="1"
         fill-rule="evenodd"
         id="path32" />
    </g>
  </g>
  <g
     clip-path="url(#76de064199)"
     id="g36"
     transform="matrix(18.817356,0,0,18.817356,-14698.14,-14693.409)">
    <g
       clip-path="url(#098aa4d66b)"
       id="g35">
      <path
         fill="#fad550"
         d="m 788.10156,797.15625 c 0,1.79297 1.45703,3.25391 3.25,3.25391 1.79297,0 3.25391,-1.46094 3.25391,-3.25391 0,-1.79297 -1.46094,-3.25 -3.25391,-3.25 -1.79297,0 -3.25,1.45703 -3.25,3.25 z m 0,0"
         fill-opacity="1"
         fill-rule="evenodd"
         id="path34" />
    </g>
  </g>
</svg>
