<svg xmlns="http://www.w3.org/2000/svg" xmlns:xlink="http://www.w3.org/1999/xlink" width="2200"
    zoomAndPan="magnify" viewBox="0 0 24 24" height="2200"
    preserveAspectRatio="xMidYMid meet" version="1.0">


    <circle cx="12" cy="12" r="12" fill="#d62522"/>
    <path
        fill="#fbb93e"
        d="M 17.1187 7.2546 a 3.672 3.672 90 0 1 -0.3176 -0.1848 a 4.4651 4.4651 90 0 1 -0.8156 -0.6929 c -0.6083 -0.696 -0.8354 -1.402 -0.9191 -1.8963 h 0.0034 C 14.9999 4.0702 15.0288 3.8047 15.0331 3.8047 H 12.2627 V 14.5173 c 0 0.1438 0 0.286 -0.006 0.4264 c 0 0.0175 -0.0017 0.0336 -0.0027 0.0524 c 0 0.0077 0 0.0158 -0.0017 0.0239 c 0 0.002 0 0.004 0 0.006 a 2.3524 2.3524 90 0 1 -1.1836 1.8671 a 2.312 2.312 90 0 1 -1.1463 0.3024 c -1.2908 0 -2.3369 -1.0525 -2.3369 -2.3524 s 1.0461 -2.3524 2.3369 -2.3524 a 2.3154 2.3154 90 0 1 0.7195 0.1139 l 0.0034 -2.8208 a 5.1463 5.1463 90 0 0 -3.9654 1.16 a 5.437 5.437 90 0 0 -1.1863 1.4628 c -0.1169 0.2016 -0.5582 1.0118 -0.6116 2.3268 c -0.0336 0.7464 0.1905 1.5196 0.2974 1.8392 v 0.0067 c 0.0672 0.1882 0.3276 0.8304 0.7521 1.3718 A 5.6299 5.6299 90 0 0 7.1316 19.0835 v -0.0067 l 0.0067 0.0067 C 8.4795 19.9949 9.9665 19.9351 9.9665 19.9351 c 0.2574 -0.0104 1.1197 0 2.099 -0.4641 c 1.0861 -0.5145 1.7044 -1.281 1.7044 -1.281 a 5.3251 5.3251 90 0 0 0.9288 -1.5435 c 0.2507 -0.659 0.3344 -1.4494 0.3344 -1.7653 V 9.198 c 0.0336 0.0202 0.4812 0.3162 0.4812 0.3162 s 0.6449 0.4133 1.651 0.6825 c 0.7218 0.1915 1.6944 0.2319 1.6944 0.2319 V 7.6783 C 18.519 7.7153 17.8271 7.6078 17.1187 7.2546 Z"
        >
    </path>
</svg>