<svg xmlns="http://www.w3.org/2000/svg" xmlns:xlink="http://www.w3.org/1999/xlink" width="2200"
    zoomAndPan="magnify" viewBox="0 0 1650 1649.999929" height="2200"
    preserveAspectRatio="xMidYMid meet" version="1.0">
    <defs>
        <clipPath id="9378fcb141">
            <path d="M 8 145 L 1647 145 L 1647 1505 L 8 1505 Z M 8 145 " clip-rule="nonzero" />
        </clipPath>
        <clipPath id="4f8f9d7ca1">
            <path
                d="M 0 141.65625 L 0 1508.34375 C 0 1510.828125 2.015625 1512.84375 4.5 1512.84375 L 1645.5 1512.84375 C 1647.984375 1512.84375 1650 1510.828125 1650 1508.34375 L 1650 141.65625 C 1650 139.171875 1647.984375 137.15625 1645.5 137.15625 L 4.5 137.15625 C 2.015625 137.15625 0 139.171875 0 141.65625 Z M 0 141.65625 "
                clip-rule="nonzero" />
        </clipPath>
        <clipPath id="712e839aa9">
            <path d="M 625 609 L 1634 609 L 1634 1505 L 625 1505 Z M 625 609 " clip-rule="nonzero" />
        </clipPath>
        <clipPath id="9669445b6a">
            <path
                d="M 0 141.65625 L 0 1508.34375 C 0 1510.828125 2.015625 1512.84375 4.5 1512.84375 L 1645.5 1512.84375 C 1647.984375 1512.84375 1650 1510.828125 1650 1508.34375 L 1650 141.65625 C 1650 139.171875 1647.984375 137.15625 1645.5 137.15625 L 4.5 137.15625 C 2.015625 137.15625 0 139.171875 0 141.65625 Z M 0 141.65625 "
                clip-rule="nonzero" />
        </clipPath>
        <clipPath id="2b47b2c393">
            <path d="M 625 565 L 1090 565 L 1090 1085 L 625 1085 Z M 625 565 " clip-rule="nonzero" />
        </clipPath>
        <clipPath id="625ab9c621">
            <path
                d="M 0 141.65625 L 0 1508.34375 C 0 1510.828125 2.015625 1512.84375 4.5 1512.84375 L 1645.5 1512.84375 C 1647.984375 1512.84375 1650 1510.828125 1650 1508.34375 L 1650 141.65625 C 1650 139.171875 1647.984375 137.15625 1645.5 137.15625 L 4.5 137.15625 C 2.015625 137.15625 0 139.171875 0 141.65625 Z M 0 141.65625 "
                clip-rule="nonzero" />
        </clipPath>
        <clipPath id="4836a292c7">
            <path d="M 625 565 L 805 565 L 805 1027 L 625 1027 Z M 625 565 " clip-rule="nonzero" />
        </clipPath>
        <clipPath id="1cd0fc0aa6">
            <path
                d="M 0 141.65625 L 0 1508.34375 C 0 1510.828125 2.015625 1512.84375 4.5 1512.84375 L 1645.5 1512.84375 C 1647.984375 1512.84375 1650 1510.828125 1650 1508.34375 L 1650 141.65625 C 1650 139.171875 1647.984375 137.15625 1645.5 137.15625 L 4.5 137.15625 C 2.015625 137.15625 0 139.171875 0 141.65625 Z M 0 141.65625 "
                clip-rule="nonzero" />
        </clipPath>
    </defs>
    <g clip-path="url(#9378fcb141)">
        <g clip-path="url(#4f8f9d7ca1)">
            <path fill="#d62522"
                d="M 177.640625 226.832031 C 173.160156 227.996094 168.730469 229.320312 164.347656 230.8125 C 159.96875 232.300781 155.644531 233.945312 151.386719 235.753906 C 147.125 237.558594 142.9375 239.515625 138.820312 241.628906 C 134.703125 243.742188 130.667969 246.003906 126.714844 248.414062 C 122.765625 250.820312 118.90625 253.371094 115.144531 256.0625 C 111.378906 258.753906 107.71875 261.582031 104.160156 264.542969 C 100.605469 267.503906 97.160156 270.589844 93.832031 273.800781 C 90.5 277.015625 87.292969 280.34375 84.207031 283.792969 C 81.121094 287.242188 78.164062 290.796875 75.339844 294.464844 C 72.515625 298.128906 69.828125 301.890625 67.277344 305.753906 C 64.726562 309.617188 62.324219 313.566406 60.066406 317.605469 C 57.804688 321.644531 55.695312 325.761719 53.738281 329.953125 C 51.78125 334.148438 49.980469 338.40625 48.335938 342.730469 C 46.691406 347.058594 45.207031 351.4375 43.882812 355.871094 C 42.558594 360.304688 41.398438 364.78125 40.40625 369.300781 C 39.410156 373.820312 38.582031 378.371094 37.917969 382.949219 C 28.023438 456.210938 20.597656 529.71875 15.636719 603.476562 C 10.679688 677.234375 8.199219 751.074219 8.199219 825 C 8.199219 898.925781 10.679688 972.765625 15.636719 1046.523438 C 20.597656 1120.28125 28.023438 1193.789062 37.917969 1267.050781 C 38.582031 1271.628906 39.410156 1276.179688 40.40625 1280.699219 C 41.398438 1285.21875 42.558594 1289.695312 43.882812 1294.128906 C 45.207031 1298.5625 46.691406 1302.941406 48.335938 1307.269531 C 49.980469 1311.59375 51.78125 1315.851562 53.738281 1320.046875 C 55.695312 1324.238281 57.804688 1328.355469 60.066406 1332.394531 C 62.324219 1336.433594 64.726562 1340.382812 67.277344 1344.246094 C 69.828125 1348.105469 72.515625 1351.871094 75.339844 1355.535156 C 78.164062 1359.203125 81.121094 1362.757812 84.207031 1366.207031 C 87.292969 1369.65625 90.5 1372.984375 93.832031 1376.199219 C 97.160156 1379.410156 100.605469 1382.496094 104.160156 1385.457031 C 107.71875 1388.417969 111.378906 1391.246094 115.144531 1393.9375 C 118.90625 1396.628906 122.765625 1399.179688 126.714844 1401.585938 C 130.667969 1403.996094 134.703125 1406.257812 138.820312 1408.371094 C 142.9375 1410.484375 147.125 1412.441406 151.386719 1414.246094 C 155.644531 1416.054688 159.96875 1417.699219 164.347656 1419.1875 C 168.730469 1420.679688 173.160156 1422.003906 177.640625 1423.167969 C 230.566406 1436.925781 283.878906 1448.957031 337.585938 1459.257812 C 391.289062 1469.558594 445.273438 1478.105469 499.53125 1484.902344 C 553.792969 1491.699219 608.214844 1496.730469 662.804688 1499.996094 C 717.390625 1503.261719 772.023438 1504.753906 826.707031 1504.472656 C 881.390625 1504.753906 936.027344 1503.261719 990.613281 1499.996094 C 1045.199219 1496.730469 1099.621094 1491.699219 1153.882812 1484.902344 C 1208.144531 1478.105469 1262.125 1469.558594 1315.832031 1459.257812 C 1369.535156 1448.957031 1422.851562 1436.925781 1475.777344 1423.167969 C 1480.253906 1422.003906 1484.6875 1420.679688 1489.066406 1419.1875 C 1493.449219 1417.699219 1497.769531 1416.054688 1502.03125 1414.246094 C 1506.292969 1412.441406 1510.480469 1410.484375 1514.597656 1408.371094 C 1518.714844 1406.257812 1522.75 1403.996094 1526.699219 1401.585938 C 1530.652344 1399.179688 1534.507812 1396.628906 1538.273438 1393.9375 C 1542.039062 1391.246094 1545.699219 1388.417969 1549.253906 1385.457031 C 1552.8125 1382.496094 1556.253906 1379.410156 1559.585938 1376.199219 C 1562.917969 1372.984375 1566.125 1369.65625 1569.210938 1366.207031 C 1572.296875 1362.757812 1575.253906 1359.203125 1578.078125 1355.535156 C 1580.902344 1351.871094 1583.589844 1348.109375 1586.140625 1344.246094 C 1588.6875 1340.382812 1591.09375 1336.433594 1593.351562 1332.394531 C 1595.609375 1328.355469 1597.71875 1324.238281 1599.675781 1320.046875 C 1601.632812 1315.851562 1603.433594 1311.59375 1605.082031 1307.269531 C 1606.726562 1302.941406 1608.210938 1298.5625 1609.535156 1294.128906 C 1610.855469 1289.695312 1612.015625 1285.21875 1613.011719 1280.699219 C 1614.007812 1276.179688 1614.835938 1271.628906 1615.496094 1267.050781 C 1635.808594 1120.398438 1646.171875 973.050781 1646.582031 825 C 1646.625 676.980469 1636.71875 529.632812 1616.863281 382.949219 C 1616.191406 378.347656 1615.347656 373.777344 1614.335938 369.238281 C 1613.324219 364.699219 1612.148438 360.203125 1610.808594 355.75 C 1609.464844 351.296875 1607.960938 346.902344 1606.296875 342.558594 C 1604.628906 338.21875 1602.804688 333.941406 1600.824219 329.734375 C 1598.84375 325.527344 1596.707031 321.398438 1594.421875 317.351562 C 1592.136719 313.300781 1589.707031 309.339844 1587.128906 305.46875 C 1584.550781 301.597656 1581.832031 297.828125 1578.976562 294.15625 C 1576.121094 290.484375 1573.136719 286.925781 1570.015625 283.476562 C 1566.898438 280.023438 1563.660156 276.695312 1560.292969 273.484375 C 1556.929688 270.269531 1553.453125 267.1875 1549.863281 264.234375 C 1546.273438 261.277344 1542.578125 258.460938 1538.777344 255.777344 C 1534.980469 253.09375 1531.085938 250.554688 1527.101562 248.160156 C 1523.117188 245.761719 1519.046875 243.515625 1514.894531 241.421875 C 1510.742188 239.324219 1506.519531 237.386719 1502.226562 235.601562 C 1497.929688 233.816406 1493.578125 232.191406 1489.164062 230.730469 C 1484.75 229.265625 1480.285156 227.964844 1475.777344 226.832031 C 1422.851562 213.074219 1369.535156 201.042969 1315.832031 190.742188 C 1262.125 180.441406 1208.144531 171.894531 1153.882812 165.097656 C 1099.621094 158.300781 1045.199219 153.269531 990.613281 150.003906 C 936.027344 146.738281 881.390625 145.246094 826.707031 145.527344 C 772.023438 145.246094 717.390625 146.738281 662.804688 150.003906 C 608.214844 153.269531 553.792969 158.300781 499.53125 165.097656 C 445.273438 171.894531 391.289062 180.441406 337.585938 190.742188 C 283.878906 201.042969 230.566406 213.074219 177.640625 226.832031 Z M 177.640625 226.832031 "
                fill-opacity="1" fill-rule="nonzero" />
        </g>
    </g>
    <g clip-path="url(#712e839aa9)">
        <g clip-path="url(#9669445b6a)">
            <path fill="#d62522"
                d="M 792.546875 624.472656 C 790.425781 623.238281 788.265625 622.074219 786.070312 620.980469 C 783.871094 619.890625 781.640625 618.871094 779.378906 617.925781 C 777.113281 616.984375 774.820312 616.113281 772.496094 615.320312 C 770.175781 614.527344 767.832031 613.8125 765.460938 613.175781 C 763.09375 612.535156 760.703125 611.976562 758.296875 611.496094 C 755.890625 611.019531 753.472656 610.617188 751.039062 610.296875 C 748.605469 609.976562 746.167969 609.738281 743.71875 609.578125 C 741.269531 609.421875 738.820312 609.34375 736.363281 609.34375 C 733.910156 609.347656 731.460938 609.433594 729.011719 609.597656 C 726.566406 609.761719 724.125 610.007812 721.691406 610.335938 C 719.261719 610.660156 716.84375 611.066406 714.4375 611.554688 C 712.03125 612.039062 709.644531 612.605469 707.277344 613.25 C 704.910156 613.894531 702.566406 614.613281 700.246094 615.414062 C 697.925781 616.210938 695.636719 617.085938 693.375 618.039062 C 691.113281 618.988281 688.882812 620.011719 686.691406 621.109375 C 684.496094 622.207031 682.339844 623.375 680.222656 624.617188 C 678.105469 625.855469 676.03125 627.164062 674 628.542969 C 671.96875 629.917969 669.988281 631.359375 668.050781 632.871094 C 666.117188 634.378906 664.234375 635.949219 662.402344 637.582031 C 660.570312 639.214844 658.792969 640.90625 657.074219 642.65625 C 655.355469 644.40625 653.695312 646.210938 652.09375 648.070312 C 650.492188 649.929688 648.957031 651.839844 647.480469 653.800781 C 646.007812 655.761719 644.601562 657.769531 643.257812 659.824219 C 641.917969 661.878906 640.644531 663.976562 639.441406 666.113281 C 638.238281 668.253906 637.109375 670.429688 636.050781 672.640625 C 634.988281 674.855469 634.003906 677.101562 633.09375 679.378906 C 632.183594 681.65625 631.351562 683.964844 630.589844 686.296875 C 629.832031 688.632812 629.152344 690.988281 628.550781 693.367188 C 627.949219 695.742188 627.425781 698.140625 626.980469 700.554688 C 626.535156 702.964844 626.171875 705.390625 625.886719 707.828125 C 625.605469 710.265625 625.402344 712.710938 625.277344 715.160156 C 625.15625 717.609375 625.117188 720.0625 625.15625 722.515625 L 625.15625 1496.957031 C 690.746094 1501.738281 758.042969 1504.472656 826.707031 1504.472656 C 878.976562 1504.683594 931.203125 1503.292969 983.386719 1500.292969 C 1035.570312 1497.296875 1087.613281 1492.703125 1139.515625 1486.507812 C 1191.417969 1480.3125 1243.078125 1472.527344 1294.503906 1463.160156 C 1345.925781 1453.789062 1397.011719 1442.851562 1447.765625 1430.339844 L 1578.261719 1355.527344 C 1583.253906 1349.121094 1587.816406 1342.421875 1591.945312 1335.429688 C 1596.074219 1328.433594 1599.742188 1321.207031 1602.941406 1313.738281 C 1606.140625 1306.273438 1608.847656 1298.632812 1611.0625 1290.820312 C 1613.277344 1283.007812 1614.984375 1275.082031 1616.179688 1267.050781 C 1623.355469 1215.125 1628.820312 1161.832031 1633.261719 1107.855469 Z M 792.546875 624.472656 "
                fill-opacity="1" fill-rule="nonzero" />
        </g>
    </g>
    <g clip-path="url(#2b47b2c393)">
        <g clip-path="url(#625ab9c621)">
            <path fill="#fcba3e"
                d="M 625.15625 613.539062 L 625.15625 1036.460938 C 625.160156 1037.496094 625.199219 1038.53125 625.273438 1039.566406 C 625.347656 1040.601562 625.453125 1041.628906 625.59375 1042.65625 C 625.734375 1043.683594 625.910156 1044.707031 626.117188 1045.722656 C 626.324219 1046.738281 626.5625 1047.746094 626.835938 1048.746094 C 627.105469 1049.746094 627.410156 1050.738281 627.75 1051.71875 C 628.085938 1052.699219 628.453125 1053.667969 628.855469 1054.625 C 629.253906 1055.582031 629.683594 1056.523438 630.144531 1057.453125 C 630.605469 1058.378906 631.097656 1059.292969 631.617188 1060.191406 C 632.136719 1061.085938 632.6875 1061.964844 633.265625 1062.828125 C 633.84375 1063.6875 634.445312 1064.527344 635.078125 1065.351562 C 635.710938 1066.171875 636.371094 1066.972656 637.054688 1067.75 C 637.738281 1068.53125 638.449219 1069.285156 639.179688 1070.019531 C 639.914062 1070.75 640.671875 1071.460938 641.449219 1072.144531 C 642.230469 1072.828125 643.03125 1073.484375 643.855469 1074.117188 C 644.675781 1074.746094 645.519531 1075.351562 646.378906 1075.925781 C 647.242188 1076.503906 648.121094 1077.050781 649.019531 1077.570312 C 649.914062 1078.089844 650.828125 1078.582031 651.757812 1079.039062 C 652.6875 1079.5 653.628906 1079.929688 654.585938 1080.328125 C 655.542969 1080.726562 656.511719 1081.09375 657.492188 1081.429688 C 658.476562 1081.765625 659.464844 1082.070312 660.464844 1082.339844 C 661.46875 1082.613281 662.476562 1082.851562 663.492188 1083.058594 C 664.507812 1083.261719 665.53125 1083.433594 666.558594 1083.574219 C 667.585938 1083.714844 668.613281 1083.820312 669.648438 1083.890625 C 670.683594 1083.964844 671.71875 1084.003906 672.753906 1084.007812 C 673.792969 1084.011719 674.828125 1083.984375 675.863281 1083.921875 C 676.898438 1083.859375 677.929688 1083.761719 678.957031 1083.632812 C 679.988281 1083.503906 681.011719 1083.339844 682.027344 1083.144531 C 683.046875 1082.949219 684.058594 1082.71875 685.058594 1082.457031 C 686.0625 1082.195312 687.058594 1081.902344 688.042969 1081.574219 C 689.023438 1081.246094 689.996094 1080.890625 690.957031 1080.5 C 691.917969 1080.109375 692.867188 1079.691406 693.800781 1079.238281 C 694.734375 1078.789062 695.652344 1078.304688 696.554688 1077.796875 L 1065.839844 866.335938 C 1067.660156 865.304688 1069.40625 864.160156 1071.078125 862.898438 C 1072.746094 861.636719 1074.328125 860.273438 1075.816406 858.804688 C 1077.304688 857.332031 1078.691406 855.773438 1079.976562 854.117188 C 1081.261719 852.464844 1082.429688 850.734375 1083.484375 848.925781 C 1084.539062 847.121094 1085.46875 845.25 1086.277344 843.320312 C 1087.085938 841.390625 1087.761719 839.414062 1088.308594 837.394531 C 1088.851562 835.371094 1089.265625 833.324219 1089.539062 831.25 C 1089.816406 829.175781 1089.953125 827.09375 1089.953125 825 C 1089.953125 822.90625 1089.816406 820.824219 1089.539062 818.75 C 1089.265625 816.675781 1088.851562 814.625 1088.308594 812.605469 C 1087.761719 810.585938 1087.085938 808.609375 1086.277344 806.679688 C 1085.46875 804.75 1084.539062 802.878906 1083.484375 801.074219 C 1082.429688 799.265625 1081.261719 797.535156 1079.976562 795.882812 C 1078.691406 794.226562 1077.304688 792.667969 1075.816406 791.195312 C 1074.328125 789.726562 1072.746094 788.363281 1071.078125 787.101562 C 1069.40625 785.839844 1067.660156 784.695312 1065.839844 783.664062 L 696.554688 572.203125 C 695.652344 571.695312 694.734375 571.210938 693.800781 570.761719 C 692.867188 570.308594 691.917969 569.890625 690.957031 569.5 C 689.996094 569.109375 689.023438 568.753906 688.042969 568.425781 C 687.058594 568.097656 686.0625 567.804688 685.058594 567.542969 C 684.058594 567.28125 683.046875 567.050781 682.027344 566.855469 C 681.011719 566.660156 679.988281 566.496094 678.957031 566.367188 C 677.929688 566.238281 676.898438 566.140625 675.863281 566.078125 C 674.828125 566.015625 673.792969 565.988281 672.753906 565.992188 C 671.71875 565.996094 670.683594 566.035156 669.648438 566.109375 C 668.613281 566.179688 667.585938 566.285156 666.558594 566.425781 C 665.53125 566.566406 664.507812 566.738281 663.492188 566.941406 C 662.476562 567.148438 661.464844 567.386719 660.464844 567.660156 C 659.464844 567.929688 658.472656 568.234375 657.492188 568.570312 C 656.511719 568.90625 655.542969 569.273438 654.585938 569.671875 C 653.628906 570.070312 652.6875 570.5 651.757812 570.960938 C 650.828125 571.417969 649.914062 571.910156 649.019531 572.429688 C 648.121094 572.949219 647.242188 573.496094 646.378906 574.074219 C 645.519531 574.648438 644.675781 575.253906 643.855469 575.886719 C 643.03125 576.515625 642.230469 577.171875 641.449219 577.855469 C 640.671875 578.539062 639.914062 579.25 639.179688 579.980469 C 638.449219 580.714844 637.738281 581.46875 637.054688 582.25 C 636.371094 583.027344 635.710938 583.828125 635.078125 584.648438 C 634.445312 585.472656 633.84375 586.3125 633.265625 587.171875 C 632.6875 588.035156 632.136719 588.914062 631.617188 589.808594 C 631.097656 590.707031 630.605469 591.617188 630.144531 592.546875 C 629.683594 593.476562 629.253906 594.417969 628.855469 595.375 C 628.453125 596.332031 628.085938 597.300781 627.75 598.28125 C 627.410156 599.261719 627.105469 600.253906 626.835938 601.253906 C 626.5625 602.253906 626.324219 603.261719 626.117188 604.277344 C 625.910156 605.292969 625.734375 606.316406 625.59375 607.339844 C 625.453125 608.367188 625.347656 609.398438 625.273438 610.433594 C 625.199219 611.46875 625.160156 612.503906 625.15625 613.539062 Z M 625.15625 613.539062 "
                fill-opacity="1" fill-rule="nonzero" />
        </g>
    </g>
    <g clip-path="url(#4836a292c7)">
        <g clip-path="url(#1cd0fc0aa6)">
            <path fill="#fcba3e"
                d="M 696.554688 572.203125 C 694.75 571.15625 692.886719 570.226562 690.964844 569.421875 C 689.039062 568.617188 687.070312 567.941406 685.058594 567.398438 C 683.046875 566.851562 681.007812 566.441406 678.9375 566.164062 C 676.871094 565.886719 674.796875 565.746094 672.710938 565.742188 C 670.625 565.742188 668.546875 565.875 666.480469 566.144531 C 664.410156 566.414062 662.371094 566.820312 660.355469 567.359375 C 658.339844 567.898438 656.371094 568.570312 654.445312 569.367188 C 652.519531 570.167969 650.652344 571.089844 648.847656 572.132812 C 647.042969 573.179688 645.3125 574.335938 643.660156 575.609375 C 642.007812 576.882812 640.449219 578.257812 638.976562 579.738281 C 637.507812 581.214844 636.136719 582.785156 634.875 584.441406 C 633.609375 586.101562 632.460938 587.835938 631.425781 589.644531 C 630.386719 591.457031 629.476562 593.328125 628.6875 595.257812 C 627.898438 597.1875 627.238281 599.160156 626.707031 601.179688 C 626.179688 603.195312 625.785156 605.238281 625.523438 607.308594 C 625.265625 609.378906 625.140625 611.453125 625.15625 613.539062 L 625.15625 1026.894531 L 741.304688 910.402344 C 744.207031 907.5 747.027344 904.515625 749.761719 901.453125 C 752.492188 898.386719 755.136719 895.246094 757.6875 892.027344 C 760.242188 888.8125 762.699219 885.527344 765.066406 882.167969 C 767.429688 878.8125 769.695312 875.386719 771.863281 871.902344 C 774.03125 868.414062 776.097656 864.867188 778.0625 861.261719 C 780.027344 857.65625 781.886719 853.996094 783.644531 850.285156 C 785.398438 846.570312 787.046875 842.8125 788.585938 839.003906 C 790.125 835.199219 791.554688 831.347656 792.871094 827.460938 C 794.191406 823.570312 795.398438 819.648438 796.492188 815.691406 C 797.585938 811.730469 798.566406 807.746094 799.429688 803.730469 C 800.296875 799.71875 801.046875 795.683594 801.679688 791.625 C 802.316406 787.566406 802.832031 783.496094 803.230469 779.410156 C 803.632812 775.320312 803.917969 771.226562 804.082031 767.125 C 804.246094 763.019531 804.296875 758.914062 804.226562 754.808594 C 804.15625 750.703125 803.96875 746.605469 803.664062 742.507812 C 803.359375 738.414062 802.9375 734.332031 802.402344 730.257812 C 801.863281 726.1875 801.207031 722.136719 800.4375 718.101562 C 799.664062 714.070312 798.777344 710.0625 797.777344 706.078125 C 796.777344 702.097656 795.664062 698.144531 794.4375 694.226562 C 793.207031 690.308594 791.871094 686.425781 790.421875 682.585938 C 788.972656 678.742188 787.414062 674.945312 785.746094 671.191406 C 784.078125 667.441406 782.304688 663.738281 780.421875 660.085938 C 778.542969 656.4375 776.5625 652.84375 774.476562 649.304688 C 772.390625 645.769531 770.203125 642.292969 767.917969 638.882812 C 765.632812 635.46875 763.253906 632.125 760.777344 628.851562 C 758.300781 625.574219 755.730469 622.371094 753.070312 619.246094 C 750.410156 616.117188 747.664062 613.066406 744.828125 610.097656 C 741.992188 607.125 739.074219 604.238281 736.074219 601.433594 C 733.074219 598.632812 729.996094 595.917969 726.839844 593.289062 C 723.683594 590.664062 720.453125 588.128906 717.152344 585.6875 C 713.851562 583.246094 710.480469 580.898438 707.046875 578.648438 C 703.609375 576.402344 700.113281 574.253906 696.554688 572.207031 Z M 696.554688 572.203125 "
                fill-opacity="1" fill-rule="nonzero" />
        </g>
    </g>
</svg>