<?xml version="1.0" encoding="UTF-8"?>
<svg version="1.1" xmlns="http://www.w3.org/2000/svg" width="512" height="512">
<path d="M0 0 C1.83919393 -0.00436362 3.67838178 -0.01312475 5.51753658 -0.02589166 C10.56030165 -0.04821756 15.60093666 -0.00830749 20.64343035 0.04188895 C26.08503901 0.08511451 31.52652966 0.07045704 36.96826172 0.06286621 C46.39256771 0.05762517 55.81618086 0.08897269 65.24031258 0.1452446 C78.86586396 0.22655037 92.49108066 0.25256255 106.11684834 0.26512451 C128.22407869 0.28700539 150.33094359 0.35345385 172.43797302 0.44815063 C193.91158635 0.54002783 215.38510089 0.61084765 236.85887146 0.65322876 C237.85213709 0.65520165 237.85213709 0.65520165 238.8654687 0.6572144 C246.17532788 0.67170823 253.4851881 0.68562656 260.79504883 0.69930911 C315.88420496 0.80295946 370.97296096 0.97907613 426.06175232 1.20254517 C426.15572121 15.25109471 426.22571931 29.29959464 426.26900101 43.34839535 C426.28978476 49.87337662 426.31793271 56.39814523 426.36351013 62.92300415 C426.40729804 69.23189415 426.43095851 75.54058092 426.44126129 81.84961128 C426.44859391 84.24430091 426.4629109 86.63898071 426.48467255 89.03358269 C426.78648868 123.65382223 415.74071726 152.50442444 392.10472107 177.94863892 C390.68745855 179.51223447 389.32821845 181.12963099 388.01878357 182.78457642 C382.10514126 190.09105264 373.80407366 195.94967792 366.06175232 201.20254517 C365.40175232 201.20254517 364.74175232 201.20254517 364.06175232 201.20254517 C363.80522888 202.07524048 363.54870544 202.94793579 363.28440857 203.84707642 C359.653231 213.81251262 351.81743406 222.19484519 345.06175232 230.20254517 C344.20752906 231.28583388 343.35335101 232.36915824 342.49925232 233.45254517 C339.89521306 236.39043561 337.12971434 238.89328294 334.13987732 241.42910767 C332.83502114 242.54265035 331.55000136 243.68033035 330.29612732 244.85098267 C306.79715767 266.61307195 277.47524714 273.00141948 247.06175232 279.20254517 C245.51568825 279.51893739 243.96962716 279.83534418 242.42356873 280.15176392 C237.61686707 281.1340093 232.80836797 282.10719695 227.99925232 283.07754517 C227.22301514 283.23479065 226.44677795 283.39203613 225.64701843 283.55404663 C223.44083764 283.99997118 221.23387531 284.44178161 219.02659607 284.88223267 C217.75421082 285.13730591 216.48182556 285.39237915 215.17088318 285.65518188 C212.06175232 286.20254517 212.06175232 286.20254517 209.06175232 286.20254517 C211.92003048 295.1857051 215.57547203 299.88371968 223.81175232 304.39004517 C246.10640958 314.73959592 274.65042811 311.09862903 298.06175232 307.20254517 C299.03289978 307.04157349 300.00404724 306.88060181 301.00462341 306.7147522 C344.17198922 299.26123954 386.60590191 279.90315545 418.51097107 249.57754517 C420.94042333 247.31551304 423.45978966 245.260883 426.06175232 243.20254517 C426.52019321 269.41052487 426.89718592 295.61859399 427.17827415 321.82910252 C427.31068284 334.00029478 427.46933709 346.17006932 427.69065857 358.33999634 C427.88358483 368.95225405 428.02637161 379.56382539 428.10995829 390.17752784 C428.1559122 395.79364754 428.22627474 401.40697784 428.35677719 407.02182198 C428.47906413 412.31737439 428.53380373 417.60951623 428.53885841 422.90643692 C428.55222814 424.84037249 428.58936845 426.77432807 428.65325356 428.70725441 C428.95523521 438.24875742 428.71520454 445.27190793 422.17724574 452.66371244 C419.78336749 455.10549618 417.2956093 457.40679016 414.72873807 459.66492546 C412.32423283 461.88282962 410.38498506 464.31191138 408.37425232 466.89004517 C404.336812 471.94248445 400.02496406 476.67709005 395.63206482 481.41738892 C393.49187084 483.73647449 391.38665045 486.07525157 389.31175232 488.45254517 C388.79303529 489.0263218 388.27431826 489.60009844 387.73988253 490.19126225 C386.02481893 492.13534366 386.02481893 492.13534366 384.83797497 494.28626919 C383.13043192 496.89768882 381.66064011 498.4454583 379.06175232 500.20254517 C373.14842146 501.40628042 367.30021582 501.22434712 361.28808594 501.12661743 C359.44238161 501.12597516 357.59667325 501.12885635 355.75097889 501.13495636 C350.68110174 501.14151634 345.61269349 501.09808326 340.54311955 501.04652715 C335.07563604 500.99966712 329.60812583 500.99910662 324.14047241 500.99293518 C314.66815838 500.97590081 305.19635259 500.92950499 295.72426033 500.8631897 C282.02926714 500.76735175 268.33438877 500.71575871 254.63913404 500.67497849 C232.41987671 500.60761419 210.20091356 500.50451543 187.98191833 500.3788147 C166.39766313 500.25679004 144.8134332 500.15161975 123.22898865 500.06924438 C122.56356039 500.06669812 121.89813214 500.06415185 121.21253939 500.06152843 C113.86689023 500.0334407 106.52123939 500.00581408 99.17558777 499.97837639 C43.80403127 499.77112229 -11.56713941 499.50578463 -66.93824768 499.20254517 C-67.05534544 480.65186872 -67.14336482 462.10126787 -67.19730854 443.55029774 C-67.22302769 434.93563756 -67.25805695 426.32120779 -67.31544495 417.70669556 C-67.3654736 410.19327575 -67.39758434 402.6800229 -67.40869015 395.16644114 C-67.41517623 391.19249992 -67.43028662 387.21903613 -67.46689796 383.24524879 C-67.50116644 379.49490803 -67.51123959 375.74523536 -67.50378609 371.99475288 C-67.50578957 369.98255961 -67.53252161 367.97043691 -67.56034851 365.95843506 C-67.45068437 346.34156875 -56.31556142 331.88283193 -43.25074768 318.20254517 C-39.68545797 314.73013876 -35.84621854 311.65011459 -31.93824768 308.57754517 C-31.02112 307.85474365 -31.02112 307.85474365 -30.08546448 307.11734009 C-27.62132991 305.19791245 -25.20380154 303.36559697 -22.53981018 301.72988892 C-16.91204915 298.27092907 -14.88637763 293.40716661 -12.2202301 287.59072876 C-8.44934968 279.64160007 -2.92710216 273.5572497 3.06175232 267.20254517 C3.66632263 266.52965454 4.27089294 265.85676392 4.89378357 265.16348267 C33.04732107 235.08552615 76.74746913 218.00507761 115.46800232 207.49160767 C120.06051179 206.23749931 124.56230508 204.75477383 129.06175232 203.20254517 C100.92010405 183.93379306 59.58090691 185.61046253 27.46116638 191.46792603 C-5.5413745 197.96436034 -34.37589151 210.20251588 -59.93824768 232.20254517 C-61.14628496 233.23848248 -62.35450094 234.27421142 -63.56285095 235.30978394 C-64.19454885 235.85117634 -64.82624676 236.39256874 -65.47708702 236.95036697 C-66.20036155 237.57019518 -66.20036155 237.57019518 -66.93824768 238.20254517 C-67.05499771 214.42872364 -67.1431951 190.65494502 -67.19730854 166.88089466 C-67.22310109 155.84242488 -67.25827183 144.80413312 -67.31544495 133.76577759 C-67.36524758 124.14585668 -67.39753104 114.52606468 -67.40869015 104.90601844 C-67.41521421 99.81119976 -67.43056956 94.71674991 -67.46689796 89.62204933 C-67.50080774 84.8277446 -67.51131077 80.03396099 -67.50378609 75.23954773 C-67.50516288 73.479094 -67.51512534 71.71862305 -67.53427505 69.95827293 C-67.55913588 67.55527543 -67.55317994 65.15424805 -67.53952026 62.75120544 C-67.55408447 62.05372611 -67.56864868 61.35624678 -67.58365422 60.63763171 C-67.52433296 56.77980737 -67.03526537 55.31663762 -64.49804974 52.33288097 C-63.65331506 51.62987016 -62.80858038 50.92685934 -61.93824768 50.20254517 C-60.97518937 49.19255625 -60.01814717 48.17674448 -59.07106018 47.15176392 C-58.3368988 46.35766113 -58.3368988 46.35766113 -57.58790588 45.54751587 C-56.83320007 44.72706787 -56.83320007 44.72706787 -56.06324768 43.89004517 C-55.53368469 43.31536499 -55.0041217 42.74068481 -54.45851135 42.14859009 C-51.13388778 38.53075212 -47.86039251 34.87534028 -44.64527893 31.15957642 C-42.60191338 28.81695366 -40.52143909 26.50981094 -38.43824768 24.20254517 C-35.74841337 21.22191796 -33.07514404 18.23009284 -30.43824768 15.20254517 C-29.90014369 14.60931532 -29.3620397 14.01608548 -28.80762953 13.40487897 C-26.8760712 11.21741509 -26.8760712 11.21741509 -25.25834233 8.66669714 C-18.40636458 -0.76245308 -10.64194164 -0.18755255 0 0 Z " fill="#EBAA49" transform="translate(78.93824768066406,2.797454833984375)"/>
<path d="M0 0 C1.83919393 -0.00436362 3.67838178 -0.01312475 5.51753658 -0.02589166 C10.56030165 -0.04821756 15.60093666 -0.00830749 20.64343035 0.04188895 C26.08503901 0.08511451 31.52652966 0.07045704 36.96826172 0.06286621 C46.39256771 0.05762517 55.81618086 0.08897269 65.24031258 0.1452446 C78.86586396 0.22655037 92.49108066 0.25256255 106.11684834 0.26512451 C128.22407869 0.28700539 150.33094359 0.35345385 172.43797302 0.44815063 C193.91158635 0.54002783 215.38510089 0.61084765 236.85887146 0.65322876 C237.85213709 0.65520165 237.85213709 0.65520165 238.8654687 0.6572144 C246.17532788 0.67170823 253.4851881 0.68562656 260.79504883 0.69930911 C315.88420496 0.80295946 370.97296096 0.97907613 426.06175232 1.20254517 C426.15572121 15.25109471 426.22571931 29.29959464 426.26900101 43.34839535 C426.28978476 49.87337662 426.31793271 56.39814523 426.36351013 62.92300415 C426.40729804 69.23189415 426.43095851 75.54058092 426.44126129 81.84961128 C426.44859391 84.24430091 426.4629109 86.63898071 426.48467255 89.03358269 C426.78648868 123.65382223 415.74071726 152.50442444 392.10472107 177.94863892 C390.68745855 179.51223447 389.32821845 181.12963099 388.01878357 182.78457642 C382.03499166 190.17772451 373.67264277 195.60854069 366.06175232 201.20254517 C365.40175232 200.87254517 364.74175232 200.54254517 364.06175232 200.20254517 C364.44847107 199.33113892 364.83518982 198.45973267 365.23362732 197.56192017 C385.60795177 150.96321771 376.51909105 113.80996264 377.06175232 55.20254517 C231.20175232 55.20254517 85.34175232 55.20254517 -64.93824768 55.20254517 C-61.56515048 49.58071649 -61.56515048 49.58071649 -59.26637268 47.15176392 C-58.77048645 46.62236206 -58.27460022 46.09296021 -57.76368713 45.54751587 C-56.9838446 44.72706787 -56.9838446 44.72706787 -56.18824768 43.89004517 C-55.10284807 42.73190673 -54.01820843 41.57305556 -52.93434143 40.41348267 C-52.41468811 39.85886353 -51.89503479 39.30424438 -51.3596344 38.7328186 C-49.06213232 36.25931414 -46.85391018 33.71213078 -44.64527893 31.15957642 C-42.60191338 28.81695366 -40.52143909 26.50981094 -38.43824768 24.20254517 C-35.74841337 21.22191796 -33.07514404 18.23009284 -30.43824768 15.20254517 C-29.90014369 14.60931532 -29.3620397 14.01608548 -28.80762953 13.40487897 C-26.8760712 11.21741509 -26.8760712 11.21741509 -25.25834233 8.66669714 C-18.40636458 -0.76245308 -10.64194164 -0.18755255 0 0 Z " fill="#000000" transform="translate(78.93824768066406,2.797454833984375)"/>
<path d="M0 0 C0.45844089 26.20797971 0.8354336 52.41604883 1.11652184 78.62655735 C1.24893053 90.79774962 1.40758477 102.96752416 1.62890625 115.13745117 C1.82183251 125.74970889 1.96461929 136.36128023 2.04820597 146.97498268 C2.09415988 152.59110237 2.16452242 158.20443268 2.29502487 163.81927681 C2.41731181 169.11482922 2.47205141 174.40697107 2.47710609 179.70389175 C2.49047582 181.63782732 2.52761613 183.57178291 2.59150124 185.50470924 C2.89348289 195.04621225 2.65345223 202.06936277 -3.88450658 209.46116728 C-6.27838482 211.90295102 -8.76614302 214.20424499 -11.33301425 216.46238029 C-13.73751949 218.68028446 -15.67676726 221.10936621 -17.6875 223.6875 C-21.72494032 228.73993928 -26.03678826 233.47454488 -30.4296875 238.21484375 C-33.6917234 241.74954222 -36.85221338 245.36389326 -40 249 C-41.31176715 250.50064092 -42.62425786 252.00064969 -43.9375 253.5 C-44.81728516 254.50546875 -44.81728516 254.50546875 -45.71484375 255.53125 C-46.13894531 256.0159375 -46.56304687 256.500625 -47 257 C-47.99 256.67 -48.98 256.34 -50 256 C-49.505 156.505 -49.505 156.505 -49 55 C-49.66 55 -50.32 55 -51 55 C-51.27328125 55.59683594 -51.5465625 56.19367188 -51.828125 56.80859375 C-56.39376847 65.34634704 -66.37165184 71.32346371 -74 77 C-74.55091309 77.41121094 -75.10182617 77.82242188 -75.66943359 78.24609375 C-104.23418885 99.20789911 -139.33585254 112.59772907 -174 119 C-174.7744043 119.14953125 -175.54880859 119.2990625 -176.34667969 119.453125 C-188.84614936 121.78703 -201.25731908 122.30861425 -213.9375 122.375 C-214.67322235 122.38285522 -215.4089447 122.39071045 -216.16696167 122.39880371 C-231.19480234 122.5238242 -248.03819699 121.59798474 -259.96875 111.30078125 C-265.878003 104.85564011 -267.54598049 98.27639575 -267.4375 89.75 C-267.42920166 88.91098145 -267.42090332 88.07196289 -267.41235352 87.20751953 C-267.08483781 75.13955656 -262.7239863 66.40818264 -254.00390625 58.09765625 C-244.57554195 50.19167004 -229.53802822 43 -217 43 C-216.79246094 43.65226562 -216.58492188 44.30453125 -216.37109375 44.9765625 C-213.5117214 53.08808742 -209.71756409 57.10176309 -202.25 61.1875 C-179.95534274 71.53705076 -151.41132421 67.89608387 -128 64 C-127.02885254 63.83902832 -126.05770508 63.67805664 -125.05712891 63.51220703 C-79.74195773 55.68784259 -35.11971378 34.74288027 -2.734375 1.6875 C-1 0 -1 0 0 0 Z " fill="#000000" transform="translate(505,246)"/>
<path d="M0 0 C4.45985731 4.59102958 7.14894192 9.38462006 7.4375 15.8125 C7.08857971 25.93118835 1.00788497 34.43967486 -6.1875 41.1875 C-14.34779826 47.63620034 -23.31036337 49.73658827 -33.4375 50.875 C-72.71274663 56.05901755 -115.54843644 69.42407776 -148 93 C-148.66 92.67 -149.32 92.34 -150 92 C-144.85870164 80.35647136 -138.7181864 71.25076721 -130 62 C-129.39542969 61.32710938 -128.79085937 60.65421875 -128.16796875 59.9609375 C-98.89796465 28.69019894 -53.27296787 11.59417835 -13 1 C-12.25218262 0.80059814 -11.50436523 0.60119629 -10.73388672 0.39575195 C-3.54113562 -1.47547317 -3.54113562 -1.47547317 0 0 Z " fill="#010000" transform="translate(212,208)"/>
</svg>
