<?xml version="1.0" encoding="utf-8"?>
<svg viewBox="0 0 1213 229" xmlns="http://www.w3.org/2000/svg">
  <path style="stroke: rgb(0, 0, 0); fill: rgb(251, 185, 62);"
    d="M 49.432 72.204 C 49.432 72.204 37.822 76.267 42.466 133.736 C 47.11 191.205 81.359 172.048 82.52 165.663 C 83.681 159.278 80.198 148.248 86.583 144.765 C 92.968 141.282 138.827 132.575 141.149 111.097 C 143.471 89.619 121.412 60.594 88.905 61.755 C 56.398 62.916 48.851 72.204 49.432 72.204 Z" />
  <path style="stroke: rgb(0, 0, 0); fill: rgb(251, 185, 62);"
    d="M 160.886 115.16 C 160.886 115.16 163.788 167.985 186.427 173.209 C 209.066 178.433 211.388 163.341 211.969 161.599 C 212.55 159.857 203.262 138.96 221.257 154.053 C 239.252 169.146 245.057 174.37 258.408 166.243 C 271.759 158.116 279.306 147.087 259.569 136.058 C 239.832 125.029 258.989 122.707 260.73 103.55 C 262.471 84.393 243.315 57.692 210.227 60.594 C 177.139 63.496 152.759 67.56 160.886 115.16 Z" />
  <path style="stroke: rgb(0, 0, 0); fill: rgb(251, 185, 62);"
    d="M 293.818 127.931 C 293.818 127.931 290.916 176.692 354.77 169.146 C 418.624 161.6 397.726 76.848 391.34 73.365 C 384.954 69.882 357.092 51.306 332.711 69.301 C 308.33 87.296 295.56 112.258 293.818 127.931 Z" />
  <path style="stroke: rgb(0, 0, 0); fill: rgb(251, 185, 62);"
    d="M 430.233 113.999 C 430.233 113.999 416.882 147.087 427.331 164.502 C 437.78 181.917 466.804 166.824 467.385 159.858 C 467.966 152.892 471.448 146.507 471.448 146.507 C 471.448 146.507 478.994 155.214 492.346 155.795 C 505.698 156.376 513.824 143.604 513.824 143.604 C 513.824 143.604 513.243 172.048 531.239 172.048 C 549.235 172.048 557.941 162.76 555.619 146.507 C 553.297 130.254 541.107 61.175 521.951 61.175 C 502.795 61.175 490.024 82.653 490.024 82.653 C 490.024 82.653 476.673 61.175 460.999 62.336 C 445.325 63.497 430.233 112.258 430.233 113.999 Z" />
  <path style="stroke: rgb(0, 0, 0); fill: rgb(251, 185, 62);"
    d="M 626.439 170.887 C 626.439 170.887 679.844 163.921 680.425 100.067 C 681.006 36.213 592.771 65.238 582.902 97.746 C 573.033 130.254 559.683 160.438 626.439 170.887 Z" />
  <path style="stroke: rgb(0, 0, 0); fill: rgb(251, 185, 62);"
    d="M 705.966 126.19 C 705.966 126.19 721.059 156.956 740.215 164.502 C 759.371 172.048 752.405 190.624 752.405 190.624 C 752.405 190.624 765.176 208.619 782.591 195.848 C 800.006 183.077 787.815 170.307 787.815 170.307 C 787.815 170.307 826.128 149.99 807.552 137.219 C 788.976 124.448 775.045 140.121 755.888 134.316 C 736.731 128.511 746.601 101.228 765.176 100.648 C 783.751 100.068 800.586 105.872 805.811 93.682 C 811.036 81.492 819.162 59.433 768.659 58.853 C 718.156 58.273 693.195 97.165 705.966 126.19 Z" />
  <path style="stroke: rgb(0, 0, 0); fill: rgb(251, 185, 62);"
    d="M 832.513 125.609 C 832.513 125.609 831.352 169.726 881.855 172.048 C 932.358 174.37 952.094 102.389 934.679 80.911 C 917.264 59.433 921.328 46.082 921.328 46.082 C 921.328 46.082 916.104 33.311 902.752 40.277 C 889.4 47.243 889.982 36.794 883.016 35.633 C 876.05 34.472 858.635 46.082 860.377 55.95 C 862.119 65.818 866.762 69.301 866.762 69.301 C 866.762 69.301 831.933 107.033 832.513 125.609 Z" />
  <path style="stroke: rgb(0, 0, 0); fill: rgb(251, 185, 62);"
    d="M 964.826 124.384 C 964.826 124.384 964.424 169.8 994.969 170.202 C 1025.514 170.604 1065.706 166.986 1069.323 147.695 C 1072.94 128.404 1050.835 124.786 1040.385 129.207 C 1029.935 133.628 1040.385 124.786 1040.385 124.786 L 1041.189 95.044 C 1041.189 95.044 1060.481 94.24 1060.481 82.585 C 1060.481 70.93 1062.892 56.461 1031.141 55.657 C 999.39 54.853 967.639 63.695 966.031 80.977 C 964.423 98.259 964.424 124.384 964.826 124.384 Z" />
  <path style="stroke: rgb(0, 0, 0); fill: rgb(251, 185, 62);"
    d="M 1099.868 122.776 C 1099.868 122.776 1081.782 146.087 1095.849 157.341 C 1109.916 168.595 1147.294 179.446 1169.801 161.762 C 1192.308 144.078 1182.26 121.972 1172.212 114.336 C 1162.164 106.7 1175.428 102.279 1175.428 102.279 C 1175.428 102.279 1185.877 84.996 1171.007 74.949 C 1156.137 64.902 1113.533 68.518 1103.887 83.791 C 1094.241 99.064 1099.466 122.374 1099.868 122.776 Z" />
  <g
    transform="matrix(0.10000000149011612, 0, 0, -0.10000000149011612, -1.1859209537506104, 230.60743713378906)"
    fill="#d62522" stroke="none">
    <path
      d="M8747 1999 c-166 -39 -268 -256 -175 -374 l21 -27 -66 -62 c-81 -75&#10;-127 -137 -178 -238 -48 -95 -69 -179 -69 -278 0 -205 90 -357 262 -443 95&#10;-48 173 -67 273 -67 170 0 305 60 441 195 99 98 155 178 192 269 28 69 51 188&#10;51 261 0 81 -26 203 -55 261 -25 50 -100 134 -151 169 -21 15 -21 17 -7 52 20&#10;47 22 110 5 151 -8 19 -39 51 -73 77 -85 64 -124 63 -220 -7 -15 -10 -22 -8&#10;-46 15 -29 28 -107 58 -146 56 -12 -1 -38 -5 -59 -10z m155 -165 c38 -35 54&#10;-44 84 -44 43 0 88 24 105 57 16 30 29 29 63 -6 24 -25 27 -35 22 -63 -15 -83&#10;-148 -154 -219 -117 -12 7 -41 29 -64 50 -60 55 -107 53 -144 -7 -25 -40 -30&#10;-41 -65 -11 -24 21 -26 27 -19 65 12 73 99 139 165 126 13 -3 46 -25 72 -50z&#10;m283 -249 c63 -32 137 -106 159 -159 42 -101 40 -284 -4 -396 -52 -131 -190&#10;-284 -312 -344 -141 -70 -276 -71 -416 -4 -141 67 -204 170 -205 333 -1 145&#10;56 276 173 399 133 141 287 209 457 202 77 -3 101 -8 148 -31z" />
    <path
      d="M8768 1185 c-32 -18 -52 -74 -44 -119 9 -45 55 -108 101 -136 76 -47&#10;175 3 175 87 0 53 -36 120 -81 150 -47 31 -114 39 -151 18z" />
    <path
      d="M10140 1804 c-157 -20 -347 -70 -417 -110 -50 -29 -77 -64 -106 -141&#10;-19 -53 -21 -77 -21 -268 -1 -344 51 -577 153 -688 68 -75 155 -93 380 -77&#10;433 30 557 70 624 200 26 51 28 62 25 150 -3 83 -7 102 -32 143 -37 64 -76 87&#10;-148 87 -31 0 -67 -4 -80 -9 l-23 -9 0 98 0 98 42 7 c121 18 175 129 142 287&#10;-26 119 -79 181 -186 215 -48 15 -280 26 -353 17z m313 -134 c59 -15 91 -52&#10;106 -120 15 -71 14 -94 -7 -121 l-19 -22 -122 13 c-115 12 -272 10 -348 -6&#10;l-33 -6 0 -80 0 -79 43 6 c65 8 220 25 240 25 32 0 67 -45 67 -87 0 -68 -17&#10;-109 -53 -126 -37 -18 -183 -47 -233 -47 -38 0 -37 5 -13 -93 l10 -38 52 6&#10;c180 20 232 29 322 52 145 37 148 38 170 13 26 -29 33 -132 11 -183 -29 -69&#10;-154 -106 -436 -127 -276 -21 -350 -10 -390 55 -62 100 -103 326 -104 575 -1&#10;266 15 300 169 344 80 23 203 47 305 60 57 7 211 -1 263 -14z" />
    <path
      d="M7550 1765 c-202 -45 -307 -96 -409 -196 -121 -119 -174 -266 -152&#10;-423 39 -276 213 -506 444 -587 35 -12 37 -15 37 -59 0 -25 8 -58 18 -75 10&#10;-16 24 -49 31 -73 15 -54 72 -117 117 -132 96 -32 251 55 311 173 20 40 24 61&#10;21 107 l-3 58 44 23 c58 31 167 138 186 182 33 79 9 164 -65 230 -97 88 -175&#10;98 -296 37 -84 -43 -123 -48 -199 -29 -55 14 -81 39 -95 90 -9 33 -8 45 5 65&#10;43 65 181 91 294 55 114 -38 182 -23 246 52 47 55 75 135 81 232 5 70 3 85&#10;-18 125 -30 58 -92 104 -176 131 -88 28 -324 36 -422 14z m310 -116 c85 -13&#10;167 -51 181 -83 26 -56 -28 -230 -76 -246 -11 -4 -42 -1 -70 7 -27 8 -92 17&#10;-143 20 -127 7 -212 -18 -276 -82 -24 -25 -50 -61 -56 -81 -15 -44 -7 -117 19&#10;-177 60 -141 292 -184 456 -85 56 34 139 13 180 -45 24 -35 18 -55 -37 -113&#10;-67 -71 -153 -113 -258 -128 -66 -8 -80 -13 -80 -28 0 -12 8 -18 25 -18 36 0&#10;104 -30 115 -51 24 -44 3 -108 -48 -151 -63 -53 -133 -61 -148 -16 -7 22 -4&#10;25 57 69 33 23 15 39 -46 39 -33 0 -55 5 -57 12 -3 7 -2 42 2 78 4 36 6 65 6&#10;66 -1 0 -39 13 -85 28 -192 61 -303 170 -378 370 -22 59 -27 88 -27 171 -1 94&#10;1 105 32 167 99 202 415 325 712 277z" />
    <path
      d="M2006 1749 c-145 -21 -306 -84 -379 -149 -50 -44 -69 -98 -75 -217&#10;-11 -233 84 -674 172 -794 51 -69 89 -83 221 -84 99 0 114 3 154 25 53 30 81&#10;78 81 139 l0 43 71 -67 c127 -119 242 -154 345 -104 58 28 164 131 188 183 22&#10;47 16 114 -14 156 -12 16 -59 52 -105 80 -46 28 -87 55 -91 61 -3 5 11 28 31&#10;51 137 151 110 368 -67 534 -134 125 -317 174 -532 143z m214 -120 c229 -36&#10;404 -251 336 -413 -7 -18 -37 -55 -65 -83 -43 -42 -51 -56 -51 -87 0 -70 42&#10;-120 161 -191 62 -37 79 -52 79 -67 0 -13 -73 -90 -114 -120 -77 -55 -128 -31&#10;-296 142 -69 71 -134 131 -146 134 -31 9 -72 -28 -80 -71 -4 -20 -2 -77 4&#10;-127 15 -113 12 -116 -103 -116 -120 0 -133 14 -188 205 -75 262 -106 591 -61&#10;653 53 71 252 139 439 151 11 0 49 -4 85 -10z" />
    <path
      d="M2065 1395 c-52 -19 -65 -38 -65 -96 0 -59 15 -93 47 -108 52 -24&#10;155 -1 200 44 99 99 -31 214 -182 160z" />
    <path
      d="M3550 1740 c-283 -37 -541 -256 -637 -540 -20 -60 -26 -95 -26 -175&#10;-1 -162 43 -275 143 -368 101 -94 239 -147 382 -147 104 0 168 15 263 60 195&#10;94 368 308 411 509 32 154 7 352 -57 453 -95 148 -291 233 -479 208z m232&#10;-152 c65 -30 135 -95 161 -150 44 -94 48 -282 7 -393 -33 -88 -100 -184 -184&#10;-262 -170 -159 -361 -193 -551 -99 -134 66 -193 154 -202 299 -7 103 8 173 53&#10;262 92 179 248 309 434 360 85 23 211 15 282 -17z" />
    <path
      d="M3359 1171 c-24 -24 -29 -38 -29 -76 0 -54 10 -77 54 -123 57 -62&#10;110 -76 166 -47 38 20 50 43 50 100 0 74 -39 129 -112 160 -58 23 -95 19 -129&#10;-14z" />
    <path
      d="M4577 1739 c-128 -20 -207 -137 -295 -434 -60 -202 -99 -445 -87&#10;-544 10 -82 46 -155 92 -185 53 -35 192 -69 258 -64 91 8 165 64 181 137 11&#10;52 11 52 56 29 61 -32 201 -32 272 0 27 12 50 22 52 22 2 0 4 -12 4 -26 0 -38&#10;39 -102 76 -125 58 -35 127 -42 221 -19 97 23 128 37 165 77 85 90 85 285 -1&#10;625 -74 291 -138 423 -235 483 -46 28 -56 30 -135 29 -111 -2 -174 -27 -235&#10;-95 l-44 -49 -30 38 c-38 48 -112 88 -177 97 -27 3 -59 7 -70 9 -11 2 -42 0&#10;-68 -5z m731 -156 c75 -93 169 -407 202 -675 23 -193 -14 -250 -175 -265 -55&#10;-5 -65 -3 -84 16 -19 19 -21 32 -21 132 0 143 -39 412 -64 436 -23 24 -70 -99&#10;-111 -292 -31 -147 -38 -155 -135 -155 -50 0 -73 5 -88 18 -14 12 -33 66 -61&#10;177 -68 260 -79 287 -101 231 -24 -65 -52 -253 -57 -388 -5 -127 -8 -150 -25&#10;-164 -36 -34 -203 -8 -244 37 -29 32 -27 226 5 374 54 253 136 471 198 526 28&#10;24 42 29 86 29 29 0 68 -4 86 -10 66 -19 140 -112 181 -228 l23 -62 32 74 c42&#10;97 67 137 115 179 35 33 50 38 130 51 34 5 86 -15 108 -41z" />
    <path
      d="M6340 1740 c-238 -31 -465 -194 -582 -416 -63 -121 -81 -188 -82&#10;-304 0 -158 45 -272 144 -363 101 -94 239 -147 382 -147 104 0 168 15 263 60&#10;195 94 368 308 411 509 32 154 7 352 -57 453 -95 148 -291 233 -479 208z m232&#10;-152 c65 -30 135 -95 161 -150 44 -94 48 -282 7 -393 -33 -88 -100 -184 -184&#10;-262 -170 -159 -361 -193 -551 -99 -134 66 -193 154 -202 299 -7 103 8 173 53&#10;262 92 179 248 309 434 360 85 23 211 15 282 -17z" />
    <path
      d="M6174 1190 c-34 -13 -54 -50 -54 -98 0 -51 11 -75 54 -120 57 -62&#10;110 -76 166 -47 38 20 50 43 50 100 0 74 -39 129 -112 160 -41 17 -72 18 -104&#10;5z" />
    <path
      d="M724 1730 c-90 -16 -211 -59 -260 -93 -104 -69 -119 -126 -118 -437&#10;0 -231 17 -378 58 -516 37 -122 110 -169 274 -180 78 -5 92 -3 132 18 75 39&#10;85 67 89 249 1 25 4 27 91 38 184 26 400 167 457 299 59 139 19 312 -101 440&#10;-117 125 -254 182 -451 188 -66 1 -143 -1 -171 -6z m313 -134 c132 -36 252&#10;-134 291 -239 56 -150 11 -253 -154 -349 -94 -55 -142 -70 -246 -77 -73 -5&#10;-101 -11 -117 -25 -25 -23 -43 -105 -40 -189 1 -35 -1 -69 -5 -75 -9 -16 -130&#10;-15 -176 1 -45 15 -63 52 -89 182 -49 244 -53 560 -9 668 17 42 113 87 243&#10;113 81 16 224 11 302 -10z" />
    <path
      d="M853 1383 c-38 -7 -73 -59 -73 -106 0 -91 52 -125 163 -107 81 13&#10;122 50 122 111 0 32 -6 46 -28 65 -43 37 -113 51 -184 37z" />
    <path
      d="M11266 1668 c-139 -26 -274 -126 -331 -243 -26 -52 -30 -71 -30 -145&#10;0 -67 5 -95 23 -134 l22 -48 -25 -20 c-44 -35 -67 -94 -73 -189 -4 -70 -1 -93&#10;14 -125 60 -126 305 -244 506 -244 187 0 329 49 427 147 79 80 113 154 119&#10;259 4 72 1 89 -21 137 -14 31 -44 76 -67 101 l-42 46 30 25 c42 35 66 103 59&#10;160 -19 137 -102 220 -266 269 -61 18 -261 21 -345 4z m373 -148 c69 -32 76&#10;-38 98 -87 27 -59 24 -85 -11 -108 -21 -14 -32 -13 -107 5 -104 25 -187 27&#10;-196 4 -8 -22 40 -69 120 -116 118 -69 197 -129 224 -170 78 -117 6 -285 -152&#10;-359 -106 -49 -265 -59 -385 -24 -75 21 -194 83 -225 115 -28 29 -30 36 -27&#10;98 4 121 15 128 103 66 71 -50 139 -74 209 -74 51 0 85 24 74 53 -3 9 -53 48&#10;-110 88 -192 132 -227 173 -228 269 0 65 25 118 81 172 81 78 188 109 353 105&#10;95 -3 112 -7 179 -37z" />
  </g>
</svg>